<svg width="113" height="150" viewBox="0 0 113 150" fill="none" xmlns="http://www.w3.org/2000/svg">
<path d="M40.5525 29.2717C41.1168 27.1806 42.7641 25.556 44.8628 25.0208L104.52 9.80843C108.313 8.84105 112.002 11.7073 112.002 15.6224V143.9C112.002 147.214 109.316 149.9 106.002 149.9H15.8358C11.8863 149.9 9.01408 146.15 10.043 142.337L40.5525 29.2717Z" fill="#D3D3D3"/>
<path d="M33.0632 19.8415C33.6533 17.5402 35.5457 15.8037 37.8892 15.4133L100.012 5.06419C103.669 4.45496 106.998 7.27517 106.998 10.9826V138.9C106.998 142.214 104.312 144.9 100.998 144.9H8.73031C4.81197 144.9 1.94512 141.206 2.91831 137.41L33.0632 19.8415Z" fill="white"/>
<path d="M7.09741 139.456C3.78371 139.456 1.09741 136.77 1.09741 133.456V23.1799C1.09741 21.5748 1.74051 20.0367 2.88297 18.9093L20.191 1.82897C21.3138 0.720892 22.8279 0.0996094 24.4054 0.0996094H95.9651C99.2788 0.0996094 101.965 2.7859 101.965 6.09961V133.456C101.965 136.77 99.2788 139.456 95.9651 139.456H7.09741Z" fill="#CDE4FE"/>
<path d="M22.0718 20.7031H2.07178L22.0718 0.703125V20.7031Z" fill="#69BDFB"/>
<path d="M21.9434 38.5879H81.1191V41.9059H21.9434V38.5879ZM21.9434 52.1918H81.1191V55.5098H21.9434V52.1918ZM21.9434 66.1274H81.1191V69.4454H21.9434V66.1274Z" fill="#0B2353"/>
<path d="M21.9434 78.7363H81.1191V82.0543H21.9434V78.7363ZM21.9434 92.3402H81.1191V95.6582H21.9434V92.3402ZM21.9434 106.276H81.1191V109.594H21.9434V106.276Z" fill="#0B2353"/>
</svg>
