<svg width="123" height="148" viewBox="0 0 123 148" fill="none" xmlns="http://www.w3.org/2000/svg">
<path d="M25.2383 147.671C17.6709 147.671 11.4875 141.665 11.4875 134.303V123.055L5.53955 118.55V79.5648H11.4875V21.4107C11.4875 14.0494 17.6415 8.04261 25.2383 8.04261H41.9926V5.00977H78.7107L81.8613 8.04261H106.183C113.75 8.04261 119.934 14.0494 119.934 21.4107V45.0846L122.26 47.3224V83.0688H119.934V134.274C119.934 141.635 113.78 147.642 106.183 147.642H25.2383V147.671Z" fill="#BFBFBF"/>
<path d="M20.439 142.99C12.8716 142.99 6.68815 136.983 6.68815 129.622V118.374L0.740234 113.898V74.8832H6.68815V16.7291C6.68815 9.36778 12.8422 3.36097 20.439 3.36097H37.1933V0.328125H73.9114L77.0325 3.36097H101.354C108.922 3.36097 115.105 9.36778 115.105 16.7291V40.4324L117.431 42.6702V78.4166H115.105V129.622C115.105 136.983 108.951 142.99 101.354 142.99H20.439Z" fill="white"/>
<path d="M100.706 138.454H21.0867C15.6982 138.454 11.3403 134.096 11.3403 128.708V17.6409C11.3403 12.2524 15.6982 7.89453 21.0867 7.89453H100.706C106.095 7.89453 110.453 12.2524 110.453 17.6409V128.708C110.453 134.096 106.095 138.454 100.706 138.454Z" fill="#16896B"/>
<path d="M15.1973 127.325V19.0548C15.1973 14.9619 18.4951 11.6641 22.588 11.6641H99.1748C103.268 11.6641 106.565 14.9619 106.565 19.0548V127.325C106.565 131.417 103.268 134.715 99.1748 134.715H22.588C18.5246 134.715 15.1973 131.388 15.1973 127.325Z" fill="#49EBC8"/>
<path d="M112.75 73.8807V44.5534L71.9685 4.86133H41.8462L112.75 73.8807Z" fill="#2EBC9A"/>
<path d="M41.8462 4.86133V7.89418H44.9674L41.8462 4.86133Z" fill="#096047"/>
<path d="M110.453 71.6426V73.8804H112.75L110.453 71.6426Z" fill="#A50C3B"/>
<path d="M67.7871 111.658H5.42236V79.4453H67.8166C76.5912 79.4453 83.7169 86.571 83.7169 95.3457V95.7579C83.6875 104.533 76.5912 111.658 67.7871 111.658Z" fill="#2EBC9A"/>
<path d="M5.42236 111.658L11.3408 116.134V111.658H5.42236Z" fill="#096047"/>
<path d="M30.981 93.5251L34.3671 87.7539H37.5472L32.6299 95.4685L37.7533 103.33H34.5438L31.0693 97.4708L27.5948 103.33H24.3853L29.4204 95.4685L24.503 87.7539H27.6537L30.981 93.5251Z" fill="white"/>
<path d="M43.1715 101.269H50.6801V103.36H40.5215V87.7832H43.201V101.269H43.1715Z" fill="white"/>
<path d="M62.0456 99.3249C62.0456 98.6771 61.81 98.1471 61.3389 97.7349C60.8678 97.3227 60.0433 96.9399 58.8361 96.616C57.1283 96.1448 55.7738 95.5559 54.861 94.7904C53.9187 94.0248 53.4476 93.0531 53.4476 91.8459C53.4476 90.5797 53.9482 89.5491 54.9788 88.7541C56.0093 87.9297 57.3344 87.5469 58.9244 87.5469C60.6617 87.5469 62.0456 87.9886 63.0762 88.9014C64.1067 89.8142 64.6073 90.9331 64.5779 92.2581L64.5484 92.317H61.9867C61.9867 91.4925 61.6922 90.8447 61.1328 90.3442C60.5733 89.873 59.8372 89.608 58.895 89.608C57.9822 89.608 57.3049 89.8142 56.8044 90.2264C56.3038 90.6386 56.0682 91.1686 56.0682 91.8459C56.0682 92.4348 56.3332 92.9353 56.8632 93.3181C57.3933 93.7009 58.2766 94.0837 59.5133 94.437C61.1917 94.9082 62.4578 95.5265 63.3412 96.2921C64.2245 97.0871 64.6662 98.0882 64.6662 99.3249C64.6662 100.621 64.1362 101.651 63.1056 102.417C62.075 103.182 60.6911 103.565 59.0127 103.565C57.3933 103.565 55.9799 103.153 54.7726 102.299C53.5654 101.445 52.9765 100.267 53.0059 98.736L53.0354 98.6771H55.5971C55.5971 99.6194 55.921 100.326 56.5982 100.797C57.2755 101.268 58.0705 101.504 59.0127 101.504C59.955 101.504 60.6911 101.298 61.2211 100.915C61.7806 100.532 62.0456 100.002 62.0456 99.3249Z" fill="white"/>
</svg>
