<svg width="123" height="150" viewBox="0 0 123 150" fill="none" xmlns="http://www.w3.org/2000/svg">
<path d="M15.4202 149.999L4.74023 138.899V101.759C4.74023 96.5094 8.25023 92.0694 13.0502 90.6594V14.9994C13.0502 8.99937 17.9402 4.10938 23.9402 4.10938H92.7002L122.37 33.7794V139.109C122.37 145.109 117.48 149.999 111.48 149.999H15.4202Z" fill="#848484"/>
<path d="M11.3099 145.89L0.629883 134.79V97.68C0.629883 92.43 4.13988 87.99 8.93988 86.58V10.89C8.93988 4.89 13.8299 0 19.8299 0H88.5899L118.26 29.67V135C118.26 141 113.37 145.89 107.37 145.89H11.3099Z" fill="white"/>
<path d="M86.8801 4.14062H19.8301C16.1101 4.14062 13.0801 7.17062 13.0801 10.8906V141.781H107.4C111.12 141.781 114.15 138.751 114.15 135.031V31.3806L86.8801 4.14062Z" fill="#F45671"/>
<path d="M86.8799 4.14062V31.3806H114.15L86.8799 4.14062Z" fill="#E03258"/>
<path d="M76.7695 133.111H4.76953V98.3109C4.76953 93.8409 8.39953 90.2109 12.8695 90.2109H76.7995C81.2695 90.2109 84.8995 93.8409 84.8995 98.3109V125.011C84.8695 129.511 81.2395 133.111 76.7695 133.111Z" fill="#E03258"/>
<path d="M4.76953 133.111L13.0795 141.781V133.111H4.76953Z" fill="#BC2049"/>
<path d="M103.83 45.1791H23.6999C22.5599 45.1791 21.6299 44.2491 21.6299 43.1091C21.6299 41.9691 22.5599 41.0391 23.6999 41.0391H103.83C104.97 41.0391 105.9 41.9691 105.9 43.1091C105.9 44.2491 104.97 45.1791 103.83 45.1791Z" fill="#E03258"/>
<path d="M103.83 53.64H23.6999C22.5599 53.64 21.6299 52.71 21.6299 51.57C21.6299 50.43 22.5599 49.5 23.6999 49.5H103.83C104.97 49.5 105.9 50.43 105.9 51.57C105.9 52.71 104.97 53.64 103.83 53.64Z" fill="#E03258"/>
<path d="M103.83 62.1302H23.6999C22.5599 62.1302 21.6299 61.2002 21.6299 60.0602C21.6299 58.9202 22.5599 57.9902 23.6999 57.9902H103.83C104.97 57.9902 105.9 58.9202 105.9 60.0602C105.9 61.2002 104.97 62.1302 103.83 62.1302Z" fill="#E03258"/>
<path d="M103.83 70.5912H23.6999C22.5599 70.5912 21.6299 69.6612 21.6299 68.5212C21.6299 67.3812 22.5599 66.4512 23.6999 66.4512H103.83C104.97 66.4512 105.9 67.3812 105.9 68.5212C105.9 69.6612 104.97 70.5912 103.83 70.5912Z" fill="#E03258"/>
<path d="M88.0199 79.0814H23.6999C22.5599 79.0814 21.6299 78.1514 21.6299 77.0114C21.6299 75.8714 22.5599 74.9414 23.6999 74.9414H88.0199C89.1599 74.9414 90.0899 75.8714 90.0899 77.0114C90.0899 78.1514 89.1599 79.0814 88.0199 79.0814Z" fill="#E03258"/>
<path d="M20.4298 114.33V122.64H16.7998V100.77H25.1998C27.5998 100.77 29.5198 101.4 30.8698 102.63C32.2498 103.89 32.9098 105.51 32.9098 107.55C32.9098 109.59 32.2198 111.24 30.8698 112.5C29.4898 113.73 27.5998 114.36 25.1998 114.36H20.4298V114.33ZM20.4298 111.39H25.1698C26.5198 111.39 27.5398 111.03 28.2298 110.31C28.9198 109.59 29.2498 108.66 29.2498 107.55C29.2498 106.44 28.9198 105.51 28.2298 104.76C27.5398 104.01 26.5198 103.65 25.1698 103.65H20.4298V111.39Z" fill="white"/>
<path d="M37.3203 122.61V100.74H44.5503C47.3103 100.74 49.5903 101.61 51.3303 103.35C53.0703 105.09 53.9403 107.31 53.9403 110.04V113.37C53.9403 116.1 53.0703 118.32 51.3303 120.06C49.5903 121.77 47.3403 122.64 44.5503 122.64H37.3203V122.61ZM40.9503 103.68V119.7H44.5203C46.2603 119.7 47.6703 119.1 48.6903 117.93C49.7103 116.73 50.2503 115.23 50.2503 113.34V109.98C50.2503 108.15 49.7403 106.62 48.6903 105.42C47.6703 104.22 46.2603 103.65 44.5203 103.65H40.9503V103.68Z" fill="white"/>
<path d="M71.3101 113.28H62.4901V122.61H58.8301V100.74H72.8401V103.68H62.4901V110.37H71.3101V113.28Z" fill="white"/>
</svg>
