<svg width="123" height="148" viewBox="0 0 123 148" fill="none" xmlns="http://www.w3.org/2000/svg">
<path d="M25.1754 147.798C17.5949 147.798 11.4006 141.781 11.4006 134.407V123.139L5.44238 118.627V79.5734H11.4006V21.3181C11.4006 13.944 17.5654 7.92679 25.1754 7.92679H41.9588V4.88867H78.7407L81.8969 7.92679H106.261C113.841 7.92679 120.036 13.944 120.036 21.3181V45.0332L122.366 47.2749V83.0834H120.036V134.378C120.036 141.752 113.871 147.769 106.261 147.769H25.1754V147.798Z" fill="#BFBFBF"/>
<path d="M20.3673 143.109C12.7868 143.109 6.59254 137.092 6.59254 129.718V118.45L0.634277 113.967V74.8839H6.59254V16.6287C6.59254 9.25459 12.7573 3.23734 20.3673 3.23734H37.1507V0.199219H73.9326L77.0592 3.23734H101.423C109.004 3.23734 115.198 9.25459 115.198 16.6287V40.3732L117.528 42.6149V78.4235H115.198V129.718C115.198 137.092 109.033 143.109 101.423 143.109H20.3673Z" fill="white"/>
<path d="M100.775 138.566H21.0167C15.6189 138.566 11.2534 134.201 11.2534 128.803V17.5426C11.2534 12.1448 15.6189 7.7793 21.0167 7.7793H100.775C106.173 7.7793 110.538 12.1448 110.538 17.5426V128.803C110.538 134.201 106.173 138.566 100.775 138.566Z" fill="#1857A2"/>
<path d="M15.1177 127.416V18.9583C15.1177 14.8583 18.4213 11.5547 22.5213 11.5547H99.2412C103.341 11.5547 106.645 14.8583 106.645 18.9583V127.416C106.645 131.516 103.341 134.82 99.2412 134.82H22.5213C18.4508 134.82 15.1177 131.487 15.1177 127.416Z" fill="#53A2FF"/>
<path d="M112.839 73.8796V44.5013L71.9863 4.74023H41.8115L112.839 73.8796Z" fill="#1E6ECD"/>
<path d="M41.8115 4.74023V7.77836H44.9381L41.8115 4.74023Z" fill="#096047"/>
<path d="M110.538 71.6387V73.8804H112.839L110.538 71.6387Z" fill="#096047"/>
<path d="M67.7979 111.724H5.32471V79.4551H67.8274C76.6173 79.4551 83.7554 86.5932 83.7554 95.3831V95.796C83.7259 104.586 76.6173 111.724 67.7979 111.724Z" fill="#1E6ECD"/>
<path d="M5.32471 111.723L11.2535 116.206V111.723H5.32471Z" fill="#0D478C"/>
<path d="M22.6978 103.375V87.7715H28.0071C30.0423 87.7715 31.6941 88.3909 32.9625 89.6297C34.2308 90.8686 34.8797 92.4614 34.8797 94.4082V96.7679C34.8797 98.7146 34.2308 100.307 32.9625 101.546C31.6941 102.785 30.0423 103.405 28.0071 103.405H22.6978V103.375ZM25.3819 89.8657V101.31H28.0071C29.3049 101.31 30.3078 100.897 31.0747 100.042C31.8416 99.1866 32.1956 98.0952 32.1956 96.7679V94.3787C32.1956 93.0513 31.8121 91.9895 31.0747 91.1341C30.3078 90.2787 29.3049 89.8657 28.0071 89.8657H25.3819Z" fill="white"/>
<path d="M51.0733 96.974C51.0733 98.8912 50.4539 100.455 49.2151 101.723C47.9762 102.991 46.3834 103.611 44.4072 103.611C42.4899 103.611 40.9266 102.991 39.7172 101.723C38.5079 100.455 37.918 98.8912 37.918 96.974V94.1718C37.918 92.2841 38.5079 90.6913 39.7172 89.4229C40.9266 88.1546 42.4899 87.5352 44.4072 87.5352C46.3539 87.5352 47.9762 88.1546 49.1856 89.4229C50.4244 90.6913 51.0438 92.2546 51.0438 94.1718V96.974H51.0733ZM48.4187 94.1423C48.4187 92.8445 48.0647 91.7826 47.3568 90.9272C46.6489 90.1013 45.6755 89.6589 44.4662 89.6589C43.2863 89.6589 42.3424 90.0718 41.664 90.9272C40.9856 91.7531 40.6316 92.8445 40.6316 94.1423V96.974C40.6316 98.3013 40.9856 99.3632 41.664 100.219C42.3424 101.044 43.2863 101.487 44.4367 101.487C45.6755 101.487 46.6194 101.074 47.3273 100.219C48.0352 99.3927 48.3892 98.3013 48.3892 96.974V94.1423H48.4187Z" fill="white"/>
<path d="M66.3231 98.2718L66.3526 98.3308C66.3821 99.8941 65.8512 101.162 64.7893 102.136C63.6979 103.109 62.2526 103.581 60.4238 103.581C58.5656 103.581 57.0318 102.962 55.8814 101.752C54.731 100.514 54.1411 98.9502 54.1411 97.0625V94.0833C54.1411 92.1956 54.7015 90.6028 55.8519 89.3934C57.0023 88.1841 58.4771 87.5352 60.3353 87.5352C62.2231 87.5352 63.6979 88.0071 64.7893 88.951C65.8807 89.8949 66.4116 91.1632 66.3821 92.7855L66.3526 92.8445H63.7569C63.7569 91.8121 63.4619 91.0157 62.9015 90.4553C62.3116 89.8949 61.4562 89.6294 60.3353 89.6294C59.244 89.6294 58.3886 90.0423 57.7397 90.8977C57.0907 91.7236 56.7958 92.7855 56.7958 94.0833V97.0625C56.7958 98.3603 57.1202 99.4222 57.7692 100.248C58.4181 101.074 59.303 101.516 60.4238 101.516C61.5152 101.516 62.3411 101.251 62.931 100.691C63.4914 100.13 63.7864 99.3337 63.7864 98.2718H66.3231Z" fill="white"/>
</svg>
