<svg width="15" height="17" viewBox="0 0 15 17" fill="none" xmlns="http://www.w3.org/2000/svg">
<path d="M9 3C9 2.17157 8.32843 1.5 7.5 1.5C6.67157 1.5 6 2.17157 6 3H5C5 1.61929 6.11929 0.5 7.5 0.5C8.88071 0.5 10 1.61929 10 3H14.5C14.7761 3 15 3.22386 15 3.5C15 3.77614 14.7761 4 14.5 4H13.946L12.6499 15.2292C12.5335 16.2384 11.679 17 10.6631 17H4.33688C3.321 17 2.4665 16.2384 2.35006 15.2292L1.053 4H0.5C0.25454 4 0.0503916 3.82312 0.00805569 3.58988L0 3.5C0 3.22386 0.223858 3 0.5 3H9ZM12.938 4H2.061L3.34347 15.1146C3.40169 15.6192 3.82894 16 4.33688 16H10.6631C11.1711 16 11.5983 15.6192 11.6565 15.1146L12.938 4ZM6 6.5C6.24546 6.5 6.44961 6.65477 6.49194 6.85886L6.5 6.9375V13.0625C6.5 13.3041 6.27614 13.5 6 13.5C5.75454 13.5 5.55039 13.3452 5.50806 13.1411L5.5 13.0625V6.9375C5.5 6.69588 5.72386 6.5 6 6.5ZM9 6.5C9.24546 6.5 9.44961 6.65477 9.49194 6.85886L9.5 6.9375V13.0625C9.5 13.3041 9.27614 13.5 9 13.5C8.75454 13.5 8.55039 13.3452 8.50806 13.1411L8.5 13.0625V6.9375C8.5 6.69588 8.72386 6.5 9 6.5Z" fill="currentColor"/>
</svg>
