<svg width="23" height="23" viewBox="0 0 23 23" fill="none" xmlns="http://www.w3.org/2000/svg">
<path d="M4.90215 3.36572C3.05448 3.36572 1.55664 4.86356 1.55664 6.71124V15.7638C1.55664 17.6115 3.05448 19.1093 4.90215 19.1093H17.1034C18.9511 19.1093 20.4489 17.6115 20.4489 15.7638V6.71124C20.4489 4.86356 18.9511 3.36572 17.1034 3.36572H4.90215ZM8.68165 7.88609C9.17076 7.95855 9.6461 8.13662 9.99404 8.41498C10.2487 8.61867 10.2899 8.99019 10.0862 9.2448C9.88255 9.49941 9.51103 9.54069 9.25642 9.337C9.11238 9.22177 8.84973 9.10464 8.50861 9.05411C8.17428 9.00457 7.80966 9.02616 7.47977 9.13927C7.15544 9.25046 6.86644 9.4486 6.65448 9.76098C6.44156 10.0747 6.27972 10.5434 6.27972 11.2375C6.27972 11.9316 6.44156 12.4003 6.65447 12.7141C6.86644 13.0264 7.15544 13.2246 7.47976 13.3358C7.80965 13.4489 8.17428 13.4705 8.50861 13.4209C8.84973 13.3704 9.11238 13.2533 9.25642 13.138C9.51103 12.9343 9.88256 12.9756 10.0862 13.2302C10.2899 13.4848 10.2487 13.8564 9.99404 14.0601C9.6461 14.3384 9.17076 14.5165 8.68166 14.5889C8.18576 14.6624 7.62791 14.6348 7.09682 14.4527C6.56017 14.2687 6.04968 13.9257 5.67742 13.3771C5.30609 12.8299 5.09895 12.1178 5.09895 11.2375C5.09895 10.3573 5.30609 9.64519 5.67742 9.09797C6.04968 8.54937 6.56017 8.20632 7.09681 8.02232C7.62791 7.84023 8.18576 7.81262 8.68165 7.88609ZM16.6851 8.41498C16.9397 8.61867 16.981 8.99019 16.7773 9.2448C16.5736 9.49941 16.2021 9.54069 15.9474 9.337C15.8034 9.22177 15.5408 9.10464 15.1996 9.05411C14.8653 9.00457 14.5007 9.02616 14.1708 9.13927C13.8465 9.25046 13.5575 9.4486 13.3455 9.76098C13.1326 10.0747 12.9707 10.5434 12.9707 11.2375C12.9707 11.9316 13.1326 12.4003 13.3455 12.7141C13.5575 13.0264 13.8465 13.2246 14.1708 13.3358C14.5007 13.4489 14.8653 13.4705 15.1996 13.4209C15.5408 13.3704 15.8034 13.2533 15.9474 13.138C16.2021 12.9343 16.5736 12.9756 16.7773 13.2302C16.981 13.4848 16.9397 13.8564 16.6851 14.0601C16.3371 14.3384 15.8618 14.5165 15.3727 14.5889C14.8768 14.6624 14.3189 14.6348 13.7878 14.4527C13.2512 14.2687 12.7407 13.9257 12.3684 13.3771C11.9971 12.8299 11.79 12.1178 11.79 11.2375C11.79 10.3573 11.9971 9.64519 12.3684 9.09797C12.7407 8.54937 13.2512 8.20632 13.7878 8.02232C14.3189 7.84023 14.8768 7.81262 15.3727 7.88609C15.8618 7.95855 16.3371 8.13662 16.6851 8.41498Z" fill="currentColor"/>
</svg>
