<svg width="21" height="21" viewBox="0 0 21 21" fill="none" xmlns="http://www.w3.org/2000/svg">
<path d="M15.3677 8.03125L17.3677 8.03125C17.92 8.03125 18.3677 8.47896 18.3677 9.03125L18.3677 16.0312C18.3677 17.1358 17.4722 18.0312 16.3677 18.0312L9.36768 18.0312C8.81539 18.0312 8.36768 17.5835 8.36768 17.0312L8.36768 15.0312M10.3677 2.03125L4.36768 2.03125C3.26311 2.03125 2.36768 2.92668 2.36768 4.03125L2.36768 10.0312C2.36768 11.1358 3.26311 12.0312 4.36768 12.0312L10.3677 12.0312C11.4722 12.0312 12.3677 11.1358 12.3677 10.0312L12.3677 4.03125C12.3677 2.92668 11.4722 2.03125 10.3677 2.03125Z" stroke="currentColor" stroke-width="1.5" stroke-linecap="round"/>
</svg>
