<svg width="20" height="18" viewBox="0 0 20 18" fill="none" xmlns="http://www.w3.org/2000/svg">
<path d="M11.1621 3.55894C10.7806 3.51767 10.3929 3.49402 10 3.48814C8.28292 3.49575 6.50295 3.91342 4.81812 4.71374C3.56715 5.33244 2.34857 6.20589 1.29028 7.28331C0.770533 7.83331 0.107183 8.62968 0 9.47935C0.0126667 10.2154 0.80255 11.1238 1.29028 11.6754C2.28267 12.7105 3.46952 13.559 4.81812 14.245C4.86395 14.2672 4.90995 14.2892 4.95605 14.3109L3.70485 16.4959L5.40493 17.5007L14.5952 1.50013L12.9588 0.5L11.1621 3.55894ZM15.0427 4.65026L13.7939 6.81454C14.3684 7.56091 14.7095 8.48131 14.7095 9.47935C14.7095 11.967 12.6008 13.9838 9.99877 13.9838C9.88628 13.9838 9.77727 13.9716 9.66673 13.9642L8.84032 15.3949C9.22145 15.4357 9.60682 15.4654 9.99998 15.4706C11.7187 15.4629 13.4977 15.0404 15.1806 14.245C16.4316 13.6263 17.6514 12.7528 18.7097 11.6754C19.2295 11.1254 19.8928 10.329 20 9.47935C19.9873 8.74333 19.1974 7.83486 18.7097 7.28329C17.7173 6.24819 16.5292 5.39974 15.1806 4.71371C15.1351 4.69164 15.0885 4.67179 15.0427 4.65026ZM9.99878 4.97497C10.1129 4.97497 10.2261 4.97954 10.3381 4.98717L9.37012 6.66319C8.01155 6.93863 6.99218 8.09453 6.99218 9.47815C6.99218 9.82571 7.0562 10.1585 7.17407 10.4669C7.1742 10.4672 7.17393 10.4678 7.17407 10.4681L6.2036 12.149C5.62775 11.402 5.28807 10.4785 5.28807 9.47933C5.28808 6.99174 7.3968 4.97496 9.99878 4.97497ZM12.8149 8.50889L10.6335 12.2882C11.9848 12.0076 12.9968 10.8569 12.9968 9.47815C12.9968 9.13691 12.9287 8.81249 12.8149 8.50889Z" fill="currentColor"/>
</svg>
