<svg width="16" height="19" viewBox="0 0 16 19" fill="none" xmlns="http://www.w3.org/2000/svg">
<path d="M14.5309 0.213388H12.2751V1.96129C12.2751 2.5212 11.8431 3.01726 11.2791 3.02526L4.86758 3.02506C4.29968 3.02096 3.83972 2.55713 3.84367 1.9892L3.85167 0.213343H1.60381C0.995859 0.213343 0.5 0.709397 0.5 1.31735V17.896C0.5 18.5 0.995859 19 1.60381 19H14.5307C15.1387 19 15.6347 18.5 15.6347 17.896V1.31685C15.6347 0.708902 15.1389 0.213043 14.5309 0.213043L14.5309 0.213388ZM14.007 14.5802H2.12796C1.90806 14.5802 1.72799 14.4001 1.72799 14.1802C1.72799 13.9603 1.90806 13.7803 2.12796 13.7803H3.21577L3.21596 8.09274C3.21596 7.87284 3.39192 7.69277 3.61593 7.69277H5.35174C5.57574 7.69277 5.7517 7.87284 5.7517 8.09274V13.7803H6.79967V10.3607C6.79967 10.1366 6.97973 9.96068 7.19963 9.96068H8.93954C9.15944 9.96068 9.33951 10.1366 9.33951 10.3607V13.7803H10.3875L10.3873 6.53687C10.3873 6.31286 10.5673 6.1369 10.7872 6.1369H12.523C12.743 6.1369 12.923 6.31286 12.923 6.53687V13.7803H14.0069C14.2268 13.7803 14.4069 13.9603 14.4069 14.1802C14.4071 14.4001 14.227 14.5802 14.0071 14.5802H14.007Z" fill="white"/>
</svg>
