<svg width="19" height="20" viewBox="0 0 19 20" fill="none" xmlns="http://www.w3.org/2000/svg">
<path d="M0.75 18.125C0.75 19.1602 1.58984 20 2.625 20H16.375C17.4102 20 18.25 19.1602 18.25 18.125V7.5H0.75V18.125ZM13.25 10.4688C13.25 10.2109 13.4609 10 13.7188 10H15.2812C15.5391 10 15.75 10.2109 15.75 10.4688V12.0312C15.75 12.2891 15.5391 12.5 15.2812 12.5H13.7188C13.4609 12.5 13.25 12.2891 13.25 12.0312V10.4688ZM13.25 15.4688C13.25 15.2109 13.4609 15 13.7188 15H15.2812C15.5391 15 15.75 15.2109 15.75 15.4688V17.0312C15.75 17.2891 15.5391 17.5 15.2812 17.5H13.7188C13.4609 17.5 13.25 17.2891 13.25 17.0312V15.4688ZM8.25 10.4688C8.25 10.2109 8.46094 10 8.71875 10H10.2812C10.5391 10 10.75 10.2109 10.75 10.4688V12.0312C10.75 12.2891 10.5391 12.5 10.2812 12.5H8.71875C8.46094 12.5 8.25 12.2891 8.25 12.0312V10.4688ZM8.25 15.4688C8.25 15.2109 8.46094 15 8.71875 15H10.2812C10.5391 15 10.75 15.2109 10.75 15.4688V17.0312C10.75 17.2891 10.5391 17.5 10.2812 17.5H8.71875C8.46094 17.5 8.25 17.2891 8.25 17.0312V15.4688ZM3.25 10.4688C3.25 10.2109 3.46094 10 3.71875 10H5.28125C5.53906 10 5.75 10.2109 5.75 10.4688V12.0312C5.75 12.2891 5.53906 12.5 5.28125 12.5H3.71875C3.46094 12.5 3.25 12.2891 3.25 12.0312V10.4688ZM3.25 15.4688C3.25 15.2109 3.46094 15 3.71875 15H5.28125C5.53906 15 5.75 15.2109 5.75 15.4688V17.0312C5.75 17.2891 5.53906 17.5 5.28125 17.5H3.71875C3.46094 17.5 3.25 17.2891 3.25 17.0312V15.4688ZM16.375 2.5H14.5V0.625C14.5 0.28125 14.2188 0 13.875 0H12.625C12.2812 0 12 0.28125 12 0.625V2.5H7V0.625C7 0.28125 6.71875 0 6.375 0H5.125C4.78125 0 4.5 0.28125 4.5 0.625V2.5H2.625C1.58984 2.5 0.75 3.33984 0.75 4.375V6.25H18.25V4.375C18.25 3.33984 17.4102 2.5 16.375 2.5Z" fill="white"/>
</svg>
