<svg width="21" height="16" viewBox="0 0 21 16" fill="none" xmlns="http://www.w3.org/2000/svg">
<path d="M0.5 3C0.5 2.33696 0.763392 1.70107 1.23223 1.23223C1.70107 0.763392 2.33696 0.5 3 0.5H18C18.663 0.5 19.2989 0.763392 19.7678 1.23223C20.2366 1.70107 20.5 2.33696 20.5 3V9.25H0.5V3ZM14.875 4.25C14.7092 4.25 14.5503 4.31585 14.4331 4.43306C14.3158 4.55027 14.25 4.70924 14.25 4.875V6.125C14.25 6.29076 14.3158 6.44973 14.4331 6.56694C14.5503 6.68415 14.7092 6.75 14.875 6.75H17.375C17.5408 6.75 17.6997 6.68415 17.8169 6.56694C17.9342 6.44973 18 6.29076 18 6.125V4.875C18 4.70924 17.9342 4.55027 17.8169 4.43306C17.6997 4.31585 17.5408 4.25 17.375 4.25H14.875ZM0.5 11.75V13C0.5 13.663 0.763392 14.2989 1.23223 14.7678C1.70107 15.2366 2.33696 15.5 3 15.5H18C18.663 15.5 19.2989 15.2366 19.7678 14.7678C20.2366 14.2989 20.5 13.663 20.5 13V11.75H0.5Z" fill="white"/>
</svg>
