
<svg version="1.1" id="Layer_1" xmlns="http://www.w3.org/2000/svg" xmlns:xlink="http://www.w3.org/1999/xlink" x="0px" y="0px"
	 width="100%" viewBox="0 0 1862 385" enable-background="new 0 0 1862 385" xml:space="preserve">
<path fill="none" opacity="1.000000" stroke="none" 
	d="
M1863.000000,208.000000 
	C1863.000000,267.318176 1863.000000,326.636383 1863.000000,386.000000 
	C1370.640869,386.000000 878.281677,386.000000 385.461243,385.563354 
	C385.665894,380.470764 386.408630,375.824280 386.983307,371.157104 
	C388.695312,357.253906 390.188965,343.322144 392.051697,329.439636 
	C394.378357,312.099670 396.987640,294.797638 399.495331,277.337189 
	C399.812805,277.558624 400.242828,277.756653 400.530212,278.080994 
	C401.063507,278.682953 401.530975,279.346405 401.995758,280.005463 
	C415.052490,298.521637 433.352814,308.625275 455.431763,310.787292 
	C477.571228,312.955261 498.619751,308.086517 518.209167,297.040863 
	C540.311829,284.578064 556.788208,266.953247 568.169373,244.416077 
	C574.973511,230.942413 579.504822,216.852921 581.122009,201.709961 
	C582.706482,186.873520 582.244934,172.307297 579.067810,157.730591 
	C576.402100,145.500046 571.595215,134.237381 565.168701,123.565063 
	C556.292480,108.824585 544.888000,96.735695 529.399658,88.819473 
	C515.589111,81.760796 500.892517,79.942467 485.496979,79.802986 
	C462.705719,79.596504 443.964691,88.217201 427.395844,102.993149 
	C426.143951,104.109573 424.373505,104.644547 422.391846,105.687943 
	C423.350403,98.120224 424.165466,91.685616 424.995941,85.129189 
	C406.752350,85.129189 389.121063,85.129189 371.022522,85.129189 
	C369.676056,95.292580 368.349701,105.395386 366.995819,115.494507 
	C365.915802,123.550865 364.830322,131.606705 363.696625,139.655624 
	C362.156372,150.591110 360.486481,161.508957 359.026062,172.454895 
	C357.884003,181.015060 357.098175,189.623093 355.933929,198.179901 
	C354.402191,209.437851 352.608154,220.659821 351.015411,231.909805 
	C349.852631,240.122772 348.864960,248.360367 347.740479,256.578949 
	C346.529358,265.430817 345.234558,274.271240 344.004456,283.120544 
	C342.863159,291.331024 341.769470,299.548096 340.635712,307.759644 
	C339.435608,316.451813 338.165955,325.134583 337.013306,333.832977 
	C335.879883,342.386597 334.914703,350.962585 333.766296,359.514099 
	C332.579468,368.351959 331.260925,377.172089 330.000000,386.000000 
	C220.422684,386.000000 110.845375,386.000000 1.000000,386.000000 
	C1.000000,322.974426 1.000000,259.948456 1.384539,196.578552 
	C2.177015,196.913406 2.879973,197.563248 2.949790,198.275192 
	C4.749204,216.623978 10.142849,233.807358 19.338058,249.809769 
	C31.415125,270.827484 48.425125,286.868439 69.823547,297.828613 
	C86.871918,306.560730 105.273308,311.390503 125.117401,312.212158 
	C125.117401,320.505798 125.117401,328.714417 125.117401,336.660431 
	C139.090179,336.660431 152.492752,336.660431 166.000061,336.660431 
	C166.000061,329.332794 166.162643,322.338837 165.925064,315.358490 
	C165.820862,312.296722 167.220306,311.287567 169.814117,311.003815 
	C188.554626,308.953735 206.399536,303.618011 223.189331,295.226959 
	C242.865997,285.393127 260.654053,272.772278 274.169617,255.148621 
	C282.303345,244.542587 290.289062,233.642563 296.800934,222.012192 
	C308.918854,200.369370 315.034180,176.627167 316.871368,151.975372 
	C318.144165,134.897079 316.798096,117.799416 312.539398,101.158127 
	C305.555634,73.868332 291.099884,51.261185 269.577728,32.898418 
	C252.365768,18.213097 232.828110,8.785076 210.881119,4.020369 
	C205.616943,2.877517 200.295242,1.999707 195.000000,1.000001 
	C607.025818,1.000000 1019.051697,1.000000 1431.533447,1.419395 
	C1430.326172,13.060472 1428.569824,24.269373 1427.030273,35.507969 
	C1425.858398,44.063442 1425.100952,52.676025 1423.907593,61.228111 
	C1422.405640,71.992332 1420.504272,82.701263 1419.036621,93.469704 
	C1417.212280,106.857376 1415.792847,120.300491 1413.946655,133.684921 
	C1411.772705,149.444992 1409.202393,165.150482 1407.040771,180.912140 
	C1405.182495,194.461700 1403.800537,208.076569 1401.943848,221.626389 
	C1400.137573,234.808990 1397.869507,247.928070 1396.034790,261.107147 
	C1393.973755,275.912598 1392.170898,290.754028 1390.231567,305.765930 
	C1408.040649,305.765930 1425.967041,305.765930 1444.127563,305.765930 
	C1448.981567,270.454712 1453.808716,235.339111 1458.776855,199.197937 
	C1461.972656,203.225708 1464.338745,206.280563 1466.781372,209.272919 
	C1474.411499,218.620697 1482.130127,227.896957 1489.701904,237.291580 
	C1497.353638,246.785217 1504.882324,256.378326 1512.444702,265.943848 
	C1521.010742,276.778687 1529.632568,287.570801 1538.072510,298.503296 
	C1541.911377,303.475983 1545.760986,306.574890 1552.995850,306.254456 
	C1570.627075,305.473572 1588.316284,306.006409 1605.982056,305.987213 
	C1607.326904,305.985748 1608.671387,305.802643 1610.528687,305.666351 
	C1577.693970,264.506226 1545.371338,223.988037 1513.163818,183.614075 
	C1550.216309,150.929047 1587.078613,118.411827 1624.094849,85.758820 
	C1623.296387,85.300285 1623.048462,85.033363 1622.800293,85.033119 
	C1598.801514,85.009033 1574.802612,84.963669 1550.804565,85.097092 
	C1549.266357,85.105637 1547.482300,86.219070 1546.244019,87.308846 
	C1539.204590,93.504044 1532.350952,99.909927 1525.332153,106.128960 
	C1511.453369,118.426201 1497.519165,130.660828 1483.585327,142.895554 
	C1477.199341,148.502670 1470.760010,154.048737 1464.154419,159.788010 
	C1471.456543,106.711327 1478.728271,53.855663 1486.000000,1.000003 
	C1611.569458,1.000000 1737.139038,1.000000 1863.000000,1.000000 
	C1863.000000,57.358833 1863.000000,113.718163 1862.612549,170.400116 
	C1860.552246,163.354279 1859.478516,155.785080 1857.089722,148.656494 
	C1850.907227,130.206100 1841.020996,114.214996 1825.490234,101.828209 
	C1809.884644,89.381760 1792.171997,82.188187 1772.621094,80.244064 
	C1762.182373,79.206055 1751.480957,80.426430 1740.924072,81.059746 
	C1728.212158,81.822357 1716.301147,85.948174 1705.037964,91.566895 
	C1685.988525,101.069992 1669.951782,114.311127 1657.028198,131.385559 
	C1641.583374,151.791229 1634.386719,175.000458 1633.115479,200.192780 
	C1632.709839,208.233444 1633.546875,216.349915 1634.027222,224.419098 
	C1634.755249,236.645462 1638.351074,248.198395 1643.689575,259.073303 
	C1649.303833,270.510376 1657.066040,280.367645 1667.000000,288.635864 
	C1681.862549,301.006195 1698.821655,307.986481 1717.903198,309.890228 
	C1721.264893,310.225647 1722.123901,311.341919 1722.050049,314.436096 
	C1721.888550,321.200134 1722.000000,327.970673 1722.000000,334.743469 
	C1735.923706,334.743469 1749.323120,334.743469 1763.000000,334.743469 
	C1763.000000,327.357941 1763.157593,320.220459 1762.928711,313.095428 
	C1762.825562,309.883545 1763.866089,308.726685 1767.032227,307.873016 
	C1774.745483,305.793213 1782.509033,303.595581 1789.847046,300.488068 
	C1808.867310,292.433258 1824.028687,279.315887 1837.118164,263.486877 
	C1848.543091,249.670959 1855.883545,234.012604 1860.042480,216.695847 
	C1860.754395,213.731430 1862.000610,210.895355 1863.000000,208.000000 
M1263.622925,309.002930 
	C1294.191406,303.921143 1319.583008,289.966461 1339.257568,265.139618 
	C1323.643555,257.193634 1308.492554,249.401031 1293.218872,241.856354 
	C1291.905273,241.207504 1289.487671,241.703964 1288.085327,242.525803 
	C1283.646729,245.127090 1279.650024,248.519882 1275.117798,250.917694 
	C1258.442261,259.740051 1240.883301,263.102142 1222.132080,259.044220 
	C1207.880859,255.960159 1196.402954,248.993759 1190.111084,235.563522 
	C1186.708740,228.301147 1184.801392,220.338409 1181.986084,212.000000 
	C1185.334839,212.000000 1187.155029,212.000000 1188.975342,212.000000 
	C1243.466675,212.000000 1297.957886,212.000076 1352.449219,211.999512 
	C1353.782349,211.999496 1355.227783,212.310699 1356.414185,211.891632 
	C1357.426636,211.534027 1358.643188,210.459869 1358.889648,209.481155 
	C1359.520630,206.974442 1359.839355,204.353409 1359.971313,201.762222 
	C1361.284302,175.954163 1357.961060,151.277649 1344.289795,128.506363 
	C1333.909912,111.217491 1320.071167,97.955910 1301.954956,89.604614 
	C1278.554688,78.817497 1253.889282,77.732536 1228.735596,81.950500 
	C1198.134644,87.081871 1174.517334,103.774445 1155.544189,127.211006 
	C1139.426147,147.120819 1130.876343,170.606094 1129.161377,196.123138 
	C1127.953003,214.103439 1129.357422,231.930923 1135.876465,249.191040 
	C1144.292236,271.472961 1158.941162,288.262604 1179.950684,298.714630 
	C1191.411987,304.416534 1204.238281,307.374664 1217.201660,311.828827 
	C1217.201660,318.662170 1217.201660,326.746399 1217.201660,334.695435 
	C1231.345093,334.695435 1245.083496,334.695435 1259.028809,334.695435 
	C1259.028809,326.426453 1259.028809,318.458984 1259.028809,310.586426 
	C1260.407593,310.011597 1261.572632,309.525940 1263.622925,309.002930 
M846.000000,204.424591 
	C846.332642,202.342484 846.898438,200.267349 846.960754,198.177170 
	C847.431091,182.414169 846.765137,166.772507 842.013855,151.543884 
	C832.391541,120.702095 813.214417,98.335526 782.926636,86.571182 
	C761.033813,78.067558 738.108398,77.577995 715.401123,82.425789 
	C686.838989,88.523544 663.866028,104.071701 645.012085,126.325890 
	C628.326843,146.020264 619.461243,168.871262 617.253540,194.105850 
	C615.970276,208.773956 616.193298,223.698120 619.963989,238.278580 
	C627.015503,265.544891 642.263489,286.374084 667.307373,299.745239 
	C678.172546,305.546234 689.963806,308.361420 702.143860,310.420227 
	C702.143860,319.375061 702.143860,327.988800 702.143860,336.797729 
	C715.789368,336.797729 729.189941,336.797729 743.147034,336.797729 
	C743.147034,327.435150 743.147034,318.238617 743.147034,310.278381 
	C751.647705,307.690460 759.387878,305.580078 766.961365,302.983276 
	C791.897156,294.433289 810.707642,277.896301 825.980225,256.951019 
	C837.211182,241.548386 843.171204,224.032928 846.000000,204.424591 
M952.002014,178.625275 
	C955.046204,171.251968 957.003052,163.153564 961.343567,156.644699 
	C973.186096,138.886139 988.928955,127.424126 1011.834167,131.048355 
	C1021.134949,132.520020 1028.236572,137.619278 1030.729980,146.831238 
	C1032.238525,152.403900 1031.947144,158.546478 1031.914551,164.429947 
	C1031.882568,170.159424 1031.369873,175.911880 1030.673706,181.606003 
	C1029.630127,190.142792 1028.169678,198.627701 1027.020386,207.152740 
	C1025.889526,215.541275 1024.988770,223.960724 1023.871521,232.351227 
	C1022.650024,241.525284 1021.310730,250.683823 1019.995605,259.845245 
	C1018.773132,268.360992 1017.461670,276.864319 1016.289490,285.386841 
	C1015.365784,292.102783 1014.594299,298.839661 1013.701172,306.000000 
	C1031.356323,306.000000 1048.313843,306.000000 1065.271362,306.000000 
	C1066.395996,306.000000 1067.520630,306.000000 1068.679443,306.000000 
	C1069.826416,296.071564 1070.825439,286.525543 1072.058105,277.009827 
	C1073.246704,267.835236 1074.726074,258.698730 1075.984985,249.532730 
	C1077.069824,241.634445 1077.945679,233.707214 1079.054932,225.812592 
	C1080.635620,214.564316 1082.466919,203.350327 1083.961548,192.091217 
	C1085.163208,183.039505 1085.733154,173.898224 1087.108398,164.876709 
	C1088.873413,153.297913 1090.218506,141.642899 1087.867554,130.146378 
	C1082.205200,102.455788 1061.434814,83.367958 1034.157715,80.177589 
	C1010.823853,77.448418 989.374878,83.509521 970.518921,97.930107 
	C967.793335,100.014580 964.819885,101.775009 961.961182,103.685410 
	C961.529968,103.273285 961.098816,102.861168 960.667603,102.449043 
	C961.379517,96.730675 962.091370,91.012306 962.815063,85.198929 
	C944.458191,85.198929 926.350159,85.198929 908.039917,85.198929 
	C897.980896,158.811172 887.944885,232.254898 877.904419,305.731659 
	C896.683777,305.731659 914.774231,305.731659 932.631958,305.731659 
	C934.116150,295.466949 935.678955,285.511993 936.967651,275.521667 
	C938.447449,264.049652 939.544678,252.527725 941.067139,241.061859 
	C942.540161,229.967270 944.122925,218.877716 946.066650,207.858109 
	C947.745056,198.342712 949.998230,188.928696 952.002014,178.625275 
z"/>
<path fill="#000000" opacity="1.000000" stroke="none" 
	d="
M194.531342,1.000001 
	C200.295242,1.999707 205.616943,2.877517 210.881119,4.020369 
	C232.828110,8.785076 252.365768,18.213097 269.577728,32.898418 
	C291.099884,51.261185 305.555634,73.868332 312.539398,101.158127 
	C316.798096,117.799416 318.144165,134.897079 316.871368,151.975372 
	C315.034180,176.627167 308.918854,200.369370 296.800934,222.012192 
	C290.289062,233.642563 282.303345,244.542587 274.169617,255.148621 
	C260.654053,272.772278 242.865997,285.393127 223.189331,295.226959 
	C206.399536,303.618011 188.554626,308.953735 169.814117,311.003815 
	C167.220306,311.287567 165.820862,312.296722 165.925064,315.358490 
	C166.162643,322.338837 166.000061,329.332794 166.000061,336.660431 
	C152.492752,336.660431 139.090179,336.660431 125.117401,336.660431 
	C125.117401,328.714417 125.117401,320.505798 125.117401,312.212158 
	C105.273308,311.390503 86.871918,306.560730 69.823547,297.828613 
	C48.425125,286.868439 31.415125,270.827484 19.338058,249.809769 
	C10.142849,233.807358 4.749204,216.623978 2.949790,198.275192 
	C2.879973,197.563248 2.177015,196.913406 1.384539,196.117310 
	C1.000000,195.555557 1.000000,195.111099 1.398854,194.179657 
	C1.531806,190.461761 1.265903,187.230881 1.000000,184.000000 
	C1.000000,178.977905 1.000000,173.955811 1.398854,168.313171 
	C1.531806,164.461761 1.265903,161.230881 1.000000,158.000000 
	C1.000000,157.555557 1.000000,157.111099 1.387010,156.213669 
	C2.180449,155.081741 2.899271,154.424133 2.947304,153.720718 
	C3.966730,138.792130 7.593536,124.490723 12.981178,110.572105 
	C21.061314,89.697624 32.679199,71.022171 47.903828,54.655472 
	C63.907322,37.451496 82.209160,23.176291 104.211166,14.560711 
	C115.492325,10.143218 127.410187,7.305085 139.127884,4.070452 
	C144.306503,2.640912 149.702621,1.999307 155.000000,1.000000 
	C168.020889,1.000000 181.041794,1.000000 194.531342,1.000001 
M169.662140,53.999996 
	C164.666275,54.661461 159.667542,55.302097 154.675018,55.987926 
	C130.716339,59.279121 110.502716,70.341576 93.633980,87.124229 
	C81.773712,98.923965 72.911018,113.052864 66.634277,128.739410 
	C59.037937,147.723892 56.354630,167.164444 58.858891,187.548172 
	C60.509853,200.986374 64.950111,213.253937 72.201279,224.393829 
	C82.647766,240.442642 96.950890,251.673294 115.853920,256.412781 
	C129.291992,259.782074 142.763306,260.719421 156.666122,259.209717 
	C169.364700,257.830841 181.494675,254.923492 192.877777,249.478073 
	C210.977356,240.819672 225.727737,228.019363 237.734879,211.862534 
	C252.105667,192.525146 259.135498,170.745743 259.853973,146.936661 
	C260.104370,138.638992 259.301056,130.181000 257.885101,121.985214 
	C253.292648,95.403397 238.939270,75.493469 214.957214,63.101280 
	C201.172409,55.978287 186.087570,53.702217 169.662140,53.999996 
z"/>
<path fill="#000000" opacity="1.000000" stroke="none" 
	d="
M330.468658,386.000000 
	C331.260925,377.172089 332.579468,368.351959 333.766296,359.514099 
	C334.914703,350.962585 335.879883,342.386597 337.013306,333.832977 
	C338.165955,325.134583 339.435608,316.451813 340.635712,307.759644 
	C341.769470,299.548096 342.863159,291.331024 344.004456,283.120544 
	C345.234558,274.271240 346.529358,265.430817 347.740479,256.578949 
	C348.864960,248.360367 349.852631,240.122772 351.015411,231.909805 
	C352.608154,220.659821 354.402191,209.437851 355.933929,198.179901 
	C357.098175,189.623093 357.884003,181.015060 359.026062,172.454895 
	C360.486481,161.508957 362.156372,150.591110 363.696625,139.655624 
	C364.830322,131.606705 365.915802,123.550865 366.995819,115.494507 
	C368.349701,105.395386 369.676056,95.292580 371.022522,85.129189 
	C389.121063,85.129189 406.752350,85.129189 424.995941,85.129189 
	C424.165466,91.685616 423.350403,98.120224 422.391846,105.687943 
	C424.373505,104.644547 426.143951,104.109573 427.395844,102.993149 
	C443.964691,88.217201 462.705719,79.596504 485.496979,79.802986 
	C500.892517,79.942467 515.589111,81.760796 529.399658,88.819473 
	C544.888000,96.735695 556.292480,108.824585 565.168701,123.565063 
	C571.595215,134.237381 576.402100,145.500046 579.067810,157.730591 
	C582.244934,172.307297 582.706482,186.873520 581.122009,201.709961 
	C579.504822,216.852921 574.973511,230.942413 568.169373,244.416077 
	C556.788208,266.953247 540.311829,284.578064 518.209167,297.040863 
	C498.619751,308.086517 477.571228,312.955261 455.431763,310.787292 
	C433.352814,308.625275 415.052490,298.521637 401.995758,280.005463 
	C401.530975,279.346405 401.063507,278.682953 400.530212,278.080994 
	C400.242828,277.756653 399.812805,277.558624 399.495331,277.337189 
	C396.987640,294.797638 394.378357,312.099670 392.051697,329.439636 
	C390.188965,343.322144 388.695312,357.253906 386.983307,371.157104 
	C386.408630,375.824280 385.665894,380.470764 385.000000,385.563354 
	C366.979095,386.000000 348.958221,386.000000 330.468658,386.000000 
M448.796967,133.027039 
	C439.077087,137.191452 430.930176,143.772858 424.756775,152.004868 
	C410.164246,171.463409 403.468170,193.311447 408.004120,217.811218 
	C411.076935,234.408310 419.690460,247.227203 434.844818,254.891617 
	C447.058899,261.069000 459.998108,261.916046 473.512115,259.116791 
	C495.034760,254.658646 509.855988,241.614502 519.361755,222.830017 
	C527.475159,206.797119 529.541748,189.364441 526.061829,171.384201 
	C520.812561,144.261673 500.708832,128.777573 474.679688,128.285492 
	C466.352570,128.128067 457.961914,131.332321 448.796967,133.027039 
z"/>
<path fill="#000000" opacity="1.000000" stroke="none" 
	d="
M1485.531372,1.000003 
	C1478.728271,53.855663 1471.456543,106.711327 1464.154419,159.788010 
	C1470.760010,154.048737 1477.199341,148.502670 1483.585327,142.895554 
	C1497.519165,130.660828 1511.453369,118.426201 1525.332153,106.128960 
	C1532.350952,99.909927 1539.204590,93.504044 1546.244019,87.308846 
	C1547.482300,86.219070 1549.266357,85.105637 1550.804565,85.097092 
	C1574.802612,84.963669 1598.801514,85.009033 1622.800293,85.033119 
	C1623.048462,85.033363 1623.296387,85.300285 1624.094849,85.758820 
	C1587.078613,118.411827 1550.216309,150.929047 1513.163818,183.614075 
	C1545.371338,223.988037 1577.693970,264.506226 1610.528687,305.666351 
	C1608.671387,305.802643 1607.326904,305.985748 1605.982056,305.987213 
	C1588.316284,306.006409 1570.627075,305.473572 1552.995850,306.254456 
	C1545.760986,306.574890 1541.911377,303.475983 1538.072510,298.503296 
	C1529.632568,287.570801 1521.010742,276.778687 1512.444702,265.943848 
	C1504.882324,256.378326 1497.353638,246.785217 1489.701904,237.291580 
	C1482.130127,227.896957 1474.411499,218.620697 1466.781372,209.272919 
	C1464.338745,206.280563 1461.972656,203.225708 1458.776855,199.197937 
	C1453.808716,235.339111 1448.981567,270.454712 1444.127563,305.765930 
	C1425.967041,305.765930 1408.040649,305.765930 1390.231567,305.765930 
	C1392.170898,290.754028 1393.973755,275.912598 1396.034790,261.107147 
	C1397.869507,247.928070 1400.137573,234.808990 1401.943848,221.626389 
	C1403.800537,208.076569 1405.182495,194.461700 1407.040771,180.912140 
	C1409.202393,165.150482 1411.772705,149.444992 1413.946655,133.684921 
	C1415.792847,120.300491 1417.212280,106.857376 1419.036621,93.469704 
	C1420.504272,82.701263 1422.405640,71.992332 1423.907593,61.228111 
	C1425.100952,52.676025 1425.858398,44.063442 1427.030273,35.507969 
	C1428.569824,24.269373 1430.326172,13.060472 1431.994629,1.419395 
	C1449.687622,1.000000 1467.375122,1.000000 1485.531372,1.000003 
z"/>
<path fill="#000000" opacity="1.000000" stroke="none" 
	d="
M1863.000000,207.531342 
	C1862.000610,210.895355 1860.754395,213.731430 1860.042480,216.695847 
	C1855.883545,234.012604 1848.543091,249.670959 1837.118164,263.486877 
	C1824.028687,279.315887 1808.867310,292.433258 1789.847046,300.488068 
	C1782.509033,303.595581 1774.745483,305.793213 1767.032227,307.873016 
	C1763.866089,308.726685 1762.825562,309.883545 1762.928711,313.095428 
	C1763.157593,320.220459 1763.000000,327.357941 1763.000000,334.743469 
	C1749.323120,334.743469 1735.923706,334.743469 1722.000000,334.743469 
	C1722.000000,327.970673 1721.888550,321.200134 1722.050049,314.436096 
	C1722.123901,311.341919 1721.264893,310.225647 1717.903198,309.890228 
	C1698.821655,307.986481 1681.862549,301.006195 1667.000000,288.635864 
	C1657.066040,280.367645 1649.303833,270.510376 1643.689575,259.073303 
	C1638.351074,248.198395 1634.755249,236.645462 1634.027222,224.419098 
	C1633.546875,216.349915 1632.709839,208.233444 1633.115479,200.192780 
	C1634.386719,175.000458 1641.583374,151.791229 1657.028198,131.385559 
	C1669.951782,114.311127 1685.988525,101.069992 1705.037964,91.566895 
	C1716.301147,85.948174 1728.212158,81.822357 1740.924072,81.059746 
	C1751.480957,80.426430 1762.182373,79.206055 1772.621094,80.244064 
	C1792.171997,82.188187 1809.884644,89.381760 1825.490234,101.828209 
	C1841.020996,114.214996 1850.907227,130.206100 1857.089722,148.656494 
	C1859.478516,155.785080 1860.552246,163.354279 1862.612549,170.861359 
	C1863.000000,183.020889 1863.000000,195.041794 1863.000000,207.531342 
M1724.426025,138.960663 
	C1716.904297,142.497711 1711.042603,147.855316 1705.940186,154.437775 
	C1689.723022,175.358475 1683.658691,198.748688 1690.226562,224.369415 
	C1694.624756,241.525574 1705.976929,253.242706 1723.648193,258.033997 
	C1733.322998,260.657166 1742.990112,260.511475 1752.820801,259.052734 
	C1769.849854,256.525879 1783.392700,248.570419 1793.241699,234.350296 
	C1805.530151,216.608032 1811.197876,197.270844 1808.022827,175.626190 
	C1805.558960,158.829315 1797.288818,145.773376 1782.155762,138.154114 
	C1763.297729,128.659393 1744.018555,129.474716 1724.426025,138.960663 
z"/>
<path fill="none" opacity="1.000000" stroke="none" 
	d="
M154.531342,1.000000 
	C149.702621,1.999307 144.306503,2.640912 139.127884,4.070452 
	C127.410187,7.305085 115.492325,10.143218 104.211166,14.560711 
	C82.209160,23.176291 63.907322,37.451496 47.903828,54.655472 
	C32.679199,71.022171 21.061314,89.697624 12.981178,110.572105 
	C7.593536,124.490723 3.966730,138.792130 2.947304,153.720718 
	C2.899271,154.424133 2.180449,155.081741 1.387010,155.880341 
	C1.000000,104.406563 1.000000,52.813126 1.000000,1.000000 
	C52.020683,1.000000 103.041687,1.000000 154.531342,1.000000 
z"/>
<path fill="none" opacity="1.000000" stroke="none" 
	d="
M1.000000,158.454102 
	C1.265903,161.230881 1.531806,164.461761 1.398854,167.846313 
	C1.000000,164.969406 1.000000,161.938812 1.000000,158.454102 
z"/>
<path fill="none" opacity="1.000000" stroke="none" 
	d="
M1.000000,184.454102 
	C1.265903,187.230881 1.531806,190.461761 1.398854,193.846313 
	C1.000000,190.969406 1.000000,187.938812 1.000000,184.454102 
z"/>
<path fill="#000000" opacity="1.000000" stroke="none" 
	d="
M1263.180176,309.021606 
	C1261.572632,309.525940 1260.407593,310.011597 1259.028809,310.586426 
	C1259.028809,318.458984 1259.028809,326.426453 1259.028809,334.695435 
	C1245.083496,334.695435 1231.345093,334.695435 1217.201660,334.695435 
	C1217.201660,326.746399 1217.201660,318.662170 1217.201660,311.828827 
	C1204.238281,307.374664 1191.411987,304.416534 1179.950684,298.714630 
	C1158.941162,288.262604 1144.292236,271.472961 1135.876465,249.191040 
	C1129.357422,231.930923 1127.953003,214.103439 1129.161377,196.123138 
	C1130.876343,170.606094 1139.426147,147.120819 1155.544189,127.211006 
	C1174.517334,103.774445 1198.134644,87.081871 1228.735596,81.950500 
	C1253.889282,77.732536 1278.554688,78.817497 1301.954956,89.604614 
	C1320.071167,97.955910 1333.909912,111.217491 1344.289795,128.506363 
	C1357.961060,151.277649 1361.284302,175.954163 1359.971313,201.762222 
	C1359.839355,204.353409 1359.520630,206.974442 1358.889648,209.481155 
	C1358.643188,210.459869 1357.426636,211.534027 1356.414185,211.891632 
	C1355.227783,212.310699 1353.782349,211.999496 1352.449219,211.999512 
	C1297.957886,212.000076 1243.466675,212.000000 1188.975342,212.000000 
	C1187.155029,212.000000 1185.334839,212.000000 1181.986084,212.000000 
	C1184.801392,220.338409 1186.708740,228.301147 1190.111084,235.563522 
	C1196.402954,248.993759 1207.880859,255.960159 1222.132080,259.044220 
	C1240.883301,263.102142 1258.442261,259.740051 1275.117798,250.917694 
	C1279.650024,248.519882 1283.646729,245.127090 1288.085327,242.525803 
	C1289.487671,241.703964 1291.905273,241.207504 1293.218872,241.856354 
	C1308.492554,249.401031 1323.643555,257.193634 1339.257568,265.139618 
	C1319.583008,289.966461 1294.191406,303.921143 1263.180176,309.021606 
M1290.960205,148.433914 
	C1289.399536,146.880188 1287.953003,145.187790 1286.260254,143.794510 
	C1271.706665,131.815552 1255.000854,128.824921 1236.934448,132.579987 
	C1222.807251,135.516281 1211.014648,142.813217 1201.832642,153.851379 
	C1197.721558,158.793335 1194.692993,164.635605 1190.763916,170.700989 
	C1229.129639,170.700989 1265.998169,170.700989 1303.467285,170.700989 
	C1300.454224,162.516159 1297.557007,154.889496 1290.960205,148.433914 
z"/>
<path fill="#000000" opacity="1.000000" stroke="none" 
	d="
M846.000000,204.880554 
	C843.171204,224.032928 837.211182,241.548386 825.980225,256.951019 
	C810.707642,277.896301 791.897156,294.433289 766.961365,302.983276 
	C759.387878,305.580078 751.647705,307.690460 743.147034,310.278381 
	C743.147034,318.238617 743.147034,327.435150 743.147034,336.797729 
	C729.189941,336.797729 715.789368,336.797729 702.143860,336.797729 
	C702.143860,327.988800 702.143860,319.375061 702.143860,310.420227 
	C689.963806,308.361420 678.172546,305.546234 667.307373,299.745239 
	C642.263489,286.374084 627.015503,265.544891 619.963989,238.278580 
	C616.193298,223.698120 615.970276,208.773956 617.253540,194.105850 
	C619.461243,168.871262 628.326843,146.020264 645.012085,126.325890 
	C663.866028,104.071701 686.838989,88.523544 715.401123,82.425789 
	C738.108398,77.577995 761.033813,78.067558 782.926636,86.571182 
	C813.214417,98.335526 832.391541,120.702095 842.013855,151.543884 
	C846.765137,166.772507 847.431091,182.414169 846.960754,198.177170 
	C846.898438,200.267349 846.332642,202.342484 846.000000,204.880554 
M679.477051,171.017624 
	C672.211853,187.033951 669.012024,203.553543 672.980957,221.054031 
	C676.621094,237.104431 685.771973,248.916245 700.619202,255.757355 
	C713.230835,261.568390 726.863708,261.371613 740.078735,258.799469 
	C759.833435,254.954407 773.779175,242.679062 782.908386,225.110916 
	C790.661133,210.191666 794.346008,194.383636 792.089783,177.320480 
	C789.794189,159.959732 781.137329,147.052002 766.381226,138.121475 
	C755.691772,131.652115 743.661438,130.914337 731.765991,132.223633 
	C723.904724,133.088882 715.670410,134.882736 708.677612,138.398224 
	C695.206604,145.170471 686.056580,156.610947 679.477051,171.017624 
z"/>
<path fill="#000000" opacity="1.000000" stroke="none" 
	d="
M951.999634,179.047577 
	C949.998230,188.928696 947.745056,198.342712 946.066650,207.858109 
	C944.122925,218.877716 942.540161,229.967270 941.067139,241.061859 
	C939.544678,252.527725 938.447449,264.049652 936.967651,275.521667 
	C935.678955,285.511993 934.116150,295.466949 932.631958,305.731659 
	C914.774231,305.731659 896.683777,305.731659 877.904419,305.731659 
	C887.944885,232.254898 897.980896,158.811172 908.039917,85.198929 
	C926.350159,85.198929 944.458191,85.198929 962.815063,85.198929 
	C962.091370,91.012306 961.379517,96.730675 960.667603,102.449043 
	C961.098816,102.861168 961.529968,103.273285 961.961182,103.685410 
	C964.819885,101.775009 967.793335,100.014580 970.518921,97.930107 
	C989.374878,83.509521 1010.823853,77.448418 1034.157715,80.177589 
	C1061.434814,83.367958 1082.205200,102.455788 1087.867554,130.146378 
	C1090.218506,141.642899 1088.873413,153.297913 1087.108398,164.876709 
	C1085.733154,173.898224 1085.163208,183.039505 1083.961548,192.091217 
	C1082.466919,203.350327 1080.635620,214.564316 1079.054932,225.812592 
	C1077.945679,233.707214 1077.069824,241.634445 1075.984985,249.532730 
	C1074.726074,258.698730 1073.246704,267.835236 1072.058105,277.009827 
	C1070.825439,286.525543 1069.826416,296.071564 1068.679443,306.000000 
	C1067.520630,306.000000 1066.395996,306.000000 1065.271362,306.000000 
	C1048.313843,306.000000 1031.356323,306.000000 1013.701172,306.000000 
	C1014.594299,298.839661 1015.365784,292.102783 1016.289490,285.386841 
	C1017.461670,276.864319 1018.773132,268.360992 1019.995605,259.845245 
	C1021.310730,250.683823 1022.650024,241.525284 1023.871521,232.351227 
	C1024.988770,223.960724 1025.889526,215.541275 1027.020386,207.152740 
	C1028.169678,198.627701 1029.630127,190.142792 1030.673706,181.606003 
	C1031.369873,175.911880 1031.882568,170.159424 1031.914551,164.429947 
	C1031.947144,158.546478 1032.238525,152.403900 1030.729980,146.831238 
	C1028.236572,137.619278 1021.134949,132.520020 1011.834167,131.048355 
	C988.928955,127.424126 973.186096,138.886139 961.343567,156.644699 
	C957.003052,163.153564 955.046204,171.251968 951.999634,179.047577 
z"/>
<path fill="none" opacity="1.000000" stroke="none" 
	d="
M170.142853,54.000000 
	C186.087570,53.702217 201.172409,55.978287 214.957214,63.101280 
	C238.939270,75.493469 253.292648,95.403397 257.885101,121.985214 
	C259.301056,130.181000 260.104370,138.638992 259.853973,146.936661 
	C259.135498,170.745743 252.105667,192.525146 237.734879,211.862534 
	C225.727737,228.019363 210.977356,240.819672 192.877777,249.478073 
	C181.494675,254.923492 169.364700,257.830841 156.666122,259.209717 
	C142.763306,260.719421 129.291992,259.782074 115.853920,256.412781 
	C96.950890,251.673294 82.647766,240.442642 72.201279,224.393829 
	C64.950111,213.253937 60.509853,200.986374 58.858891,187.548172 
	C56.354630,167.164444 59.037937,147.723892 66.634277,128.739410 
	C72.911018,113.052864 81.773712,98.923965 93.633980,87.124229 
	C110.502716,70.341576 130.716339,59.279121 154.675018,55.987926 
	C159.667542,55.302097 164.666275,54.661461 170.142853,54.000000 
M127.648575,226.967178 
	C141.681503,232.748459 156.304718,234.818619 171.136307,231.819031 
	C189.631226,228.078537 205.214905,219.044479 216.811584,203.714661 
	C230.929718,185.051666 235.112274,163.975021 230.589798,141.497559 
	C226.995300,123.632179 217.322372,108.948608 202.486786,97.998489 
	C182.666565,83.369202 160.541534,79.189240 137.032120,85.647423 
	C113.599983,92.084373 97.021500,107.115631 87.692192,129.764648 
	C82.165123,143.182892 80.601334,157.173401 83.266197,171.349136 
	C85.541245,183.451309 90.231743,194.861526 98.202675,204.371216 
	C106.097710,213.790359 115.108566,222.114594 127.648575,226.967178 
z"/>
<path fill="none" opacity="1.000000" stroke="none" 
	d="
M449.198639,133.012756 
	C457.961914,131.332321 466.352570,128.128067 474.679688,128.285492 
	C500.708832,128.777573 520.812561,144.261673 526.061829,171.384201 
	C529.541748,189.364441 527.475159,206.797119 519.361755,222.830017 
	C509.855988,241.614502 495.034760,254.658646 473.512115,259.116791 
	C459.998108,261.916046 447.058899,261.069000 434.844818,254.891617 
	C419.690460,247.227203 411.076935,234.408310 408.004120,217.811218 
	C403.468170,193.311447 410.164246,171.463409 424.756775,152.004868 
	C430.930176,143.772858 439.077087,137.191452 449.198639,133.012756 
z"/>
<path fill="none" opacity="1.000000" stroke="none" 
	d="
M1724.723633,138.716522 
	C1744.018555,129.474716 1763.297729,128.659393 1782.155762,138.154114 
	C1797.288818,145.773376 1805.558960,158.829315 1808.022827,175.626190 
	C1811.197876,197.270844 1805.530151,216.608032 1793.241699,234.350296 
	C1783.392700,248.570419 1769.849854,256.525879 1752.820801,259.052734 
	C1742.990112,260.511475 1733.322998,260.657166 1723.648193,258.033997 
	C1705.976929,253.242706 1694.624756,241.525574 1690.226562,224.369415 
	C1683.658691,198.748688 1689.723022,175.358475 1705.940186,154.437775 
	C1711.042603,147.855316 1716.904297,142.497711 1724.723633,138.716522 
z"/>
<path fill="none" opacity="1.000000" stroke="none" 
	d="
M1291.206543,148.702179 
	C1297.557007,154.889496 1300.454224,162.516159 1303.467285,170.700989 
	C1265.998169,170.700989 1229.129639,170.700989 1190.763916,170.700989 
	C1194.692993,164.635605 1197.721558,158.793335 1201.832642,153.851379 
	C1211.014648,142.813217 1222.807251,135.516281 1236.934448,132.579987 
	C1255.000854,128.824921 1271.706665,131.815552 1286.260254,143.794510 
	C1287.953003,145.187790 1289.399536,146.880188 1291.206543,148.702179 
z"/>
<path fill="none" opacity="1.000000" stroke="none" 
	d="
M679.719177,170.713318 
	C686.056580,156.610947 695.206604,145.170471 708.677612,138.398224 
	C715.670410,134.882736 723.904724,133.088882 731.765991,132.223633 
	C743.661438,130.914337 755.691772,131.652115 766.381226,138.121475 
	C781.137329,147.052002 789.794189,159.959732 792.089783,177.320480 
	C794.346008,194.383636 790.661133,210.191666 782.908386,225.110916 
	C773.779175,242.679062 759.833435,254.954407 740.078735,258.799469 
	C726.863708,261.371613 713.230835,261.568390 700.619202,255.757355 
	C685.771973,248.916245 676.621094,237.104431 672.980957,221.054031 
	C669.012024,203.553543 672.211853,187.033951 679.719177,170.713318 
z"/>
<path fill="#000000" opacity="1.000000" stroke="none" 
	d="
M127.325241,226.733734 
	C115.108566,222.114594 106.097710,213.790359 98.202675,204.371216 
	C90.231743,194.861526 85.541245,183.451309 83.266197,171.349136 
	C80.601334,157.173401 82.165123,143.182892 87.692192,129.764648 
	C97.021500,107.115631 113.599983,92.084373 137.032120,85.647423 
	C160.541534,79.189240 182.666565,83.369202 202.486786,97.998489 
	C217.322372,108.948608 226.995300,123.632179 230.589798,141.497559 
	C235.112274,163.975021 230.929718,185.051666 216.811584,203.714661 
	C205.214905,219.044479 189.631226,228.078537 171.136307,231.819031 
	C156.304718,234.818619 141.681503,232.748459 127.325241,226.733734 
z"/>
</svg>