<svg width="21" height="20" viewBox="0 0 21 20" fill="none" xmlns="http://www.w3.org/2000/svg">
<g clip-path="url(#clip0_1496_18)">
<path d="M3.36702 10.8333H8.36702C8.82536 10.8333 9.20036 10.4583 9.20036 10V3.33333C9.20036 2.875 8.82536 2.5 8.36702 2.5H3.36702C2.90869 2.5 2.53369 2.875 2.53369 3.33333V10C2.53369 10.4583 2.90869 10.8333 3.36702 10.8333ZM3.36702 17.5H8.36702C8.82536 17.5 9.20036 17.125 9.20036 16.6667V13.3333C9.20036 12.875 8.82536 12.5 8.36702 12.5H3.36702C2.90869 12.5 2.53369 12.875 2.53369 13.3333V16.6667C2.53369 17.125 2.90869 17.5 3.36702 17.5ZM11.7004 17.5H16.7004C17.1587 17.5 17.5337 17.125 17.5337 16.6667V10C17.5337 9.54167 17.1587 9.16667 16.7004 9.16667H11.7004C11.242 9.16667 10.867 9.54167 10.867 10V16.6667C10.867 17.125 11.242 17.5 11.7004 17.5ZM10.867 3.33333V6.66667C10.867 7.125 11.242 7.5 11.7004 7.5H16.7004C17.1587 7.5 17.5337 7.125 17.5337 6.66667V3.33333C17.5337 2.875 17.1587 2.5 16.7004 2.5H11.7004C11.242 2.5 10.867 2.875 10.867 3.33333Z" fill="white"/>
</g>
<defs>
<clipPath id="clip0_1496_18">
<rect width="20" height="20" fill="white" transform="translate(0.0336914)"/>
</clipPath>
</defs>
</svg>
