<svg width="37" height="49" viewBox="0 0 37 49" fill="none" xmlns="http://www.w3.org/2000/svg">
<path d="M8.36899 10.056C8.74941 7.61074 10.5921 5.64988 13.009 5.11837L28.995 1.60287C32.7386 0.779601 36.2836 3.62977 36.2836 7.46284V43C36.2836 46.3137 33.5973 49 30.2836 49H9.31592C5.63452 49 2.82132 45.7153 3.38724 42.0776L8.36899 10.056Z" fill="#D3D3D3"/>
<path d="M12.8893 6.98008C13.5715 4.84254 15.3894 3.26424 17.6015 2.88888L27.6229 1.18842C31.2853 0.566969 34.6267 3.3891 34.6267 7.10386V41.3667C34.6267 44.6804 31.9404 47.3667 28.6267 47.3667H8.21306C4.15002 47.3667 1.26177 43.4131 2.4971 39.5424L12.8893 6.98008Z" fill="white"/>
<path d="M6.0472 45.6521C2.73349 45.6521 0.0472069 42.9658 0.0472069 39.6521V9.35758C0.0472069 7.75251 0.690308 6.21436 1.83275 5.08694L5.10448 1.85826C6.22733 0.750189 7.7414 0.128906 9.31893 0.128906H26.9973C30.311 0.128906 32.9973 2.8152 32.9973 6.12891V39.6521C32.9973 42.9658 30.311 45.6521 26.9973 45.6521H6.0472Z" fill="#CDE4FE"/>
<path d="M7 7H1L7 1V7Z" fill="#69BDFB"/>
<path d="M6.85693 12.7012H26.1877V13.7851H6.85693V12.7012ZM6.85693 17.1451H26.1877V18.229H6.85693V17.1451ZM6.85693 21.6974H26.1877V22.7813H6.85693V21.6974Z" fill="#0B2353"/>
<path d="M6.85693 25.8164H26.1877V26.9003H6.85693V25.8164ZM6.85693 30.2603H26.1877V31.3442H6.85693V30.2603ZM6.85693 34.8127H26.1877V35.8965H6.85693V34.8127Z" fill="#0B2353"/>
</svg>
