<svg width="38" height="46" viewBox="0 0 38 46" fill="none" xmlns="http://www.w3.org/2000/svg">
<path d="M7.64838 45.9991C5.28589 45.9991 3.35544 44.1238 3.35544 41.8256V38.3141L1.49854 36.9076V24.7366H3.35544V6.58122C3.35544 4.28307 5.27669 2.40778 7.64838 2.40778H12.879V1.46094H24.3421L25.3258 2.40778H32.9188C35.2813 2.40778 37.2118 4.28307 37.2118 6.58122V13.9721L37.938 14.6707V25.8305H37.2118V41.8165C37.2118 44.1146 35.2905 45.9899 32.9188 45.9899H7.64838V45.9991Z" fill="#BFBFBF"/>
<path d="M6.14985 44.5381C3.78735 44.5381 1.85691 42.6629 1.85691 40.3647V36.8531L0 35.4559V23.2757H1.85691V5.12028C1.85691 2.82213 3.77816 0.946838 6.14985 0.946838H11.3804V0H22.8436L23.818 0.946838H31.4111C33.7736 0.946838 35.7041 2.82213 35.7041 5.12028V12.5203L36.4303 13.219V24.3788H35.7041V40.3647C35.7041 42.6629 33.7828 44.5381 31.4111 44.5381H6.14985Z" fill="white"/>
<path d="M31.2086 43.1213H6.35183C4.66959 43.1213 3.30908 41.7608 3.30908 40.0786V5.40408C3.30908 3.72183 4.66959 2.36133 6.35183 2.36133H31.2086C32.8909 2.36133 34.2514 3.72183 34.2514 5.40408V40.0786C34.2514 41.7608 32.8909 43.1213 31.2086 43.1213Z" fill="#16896B"/>
<path d="M4.51318 39.6476V5.84641C4.51318 4.56863 5.54275 3.53906 6.82053 3.53906H30.7305C32.0083 3.53906 33.0378 4.56863 33.0378 5.84641V39.6476C33.0378 40.9254 32.0083 41.9549 30.7305 41.9549H6.82053C5.55195 41.9549 4.51318 40.9162 4.51318 39.6476Z" fill="#49EBC8"/>
<path d="M34.9683 22.9615V13.8057L22.2366 1.41406H12.8325L34.9683 22.9615Z" fill="#2EBC9A"/>
<path d="M12.8325 1.41406V2.3609H13.8069L12.8325 1.41406Z" fill="#096047"/>
<path d="M34.2515 22.2637V22.9623H34.9685L34.2515 22.2637Z" fill="#A50C3B"/>
<path d="M20.9314 34.7559H1.46143V24.6992H20.9405C23.6799 24.6992 25.9046 26.9238 25.9046 29.6632V29.7919C25.8954 32.5313 23.6799 34.7559 20.9314 34.7559Z" fill="#2EBC9A"/>
<path d="M1.46143 34.7559L3.30914 36.1531V34.7559H1.46143Z" fill="#096047"/>
<path d="M9.44098 29.0967L10.4981 27.2949H11.4909L9.95576 29.7034L11.5553 32.1578H10.5533L9.46856 30.3285L8.38383 32.1578H7.38184L8.95377 29.7034L7.41861 27.2949H8.40222L9.44098 29.0967Z" fill="white"/>
<path d="M13.2468 31.5149H15.5909V32.1676H12.4194V27.3047H13.256V31.5149H13.2468Z" fill="white"/>
<path d="M19.1394 30.9075C19.1394 30.7053 19.0658 30.5398 18.9187 30.4111C18.7716 30.2824 18.5143 30.1629 18.1374 30.0618C17.6042 29.9147 17.1813 29.7309 16.8964 29.4918C16.6022 29.2528 16.4551 28.9495 16.4551 28.5726C16.4551 28.1773 16.6114 27.8556 16.9331 27.6074C17.2549 27.35 17.6685 27.2305 18.1649 27.2305C18.7073 27.2305 19.1394 27.3684 19.4611 27.6533C19.7828 27.9383 19.9391 28.2876 19.9299 28.7013L19.9207 28.7197H19.121C19.121 28.4623 19.029 28.26 18.8544 28.1038C18.6797 27.9567 18.4499 27.874 18.1557 27.874C17.8708 27.874 17.6593 27.9383 17.5031 28.067C17.3468 28.1957 17.2733 28.3612 17.2733 28.5726C17.2733 28.7564 17.356 28.9127 17.5215 29.0322C17.6869 29.1517 17.9627 29.2712 18.3488 29.3815C18.8728 29.5286 19.268 29.7217 19.5438 29.9607C19.8196 30.2089 19.9575 30.5214 19.9575 30.9075C19.9575 31.312 19.792 31.6337 19.4703 31.8727C19.1485 32.1117 18.7165 32.2312 18.1925 32.2312C17.6869 32.2312 17.2457 32.1025 16.8688 31.836C16.4919 31.5694 16.308 31.2017 16.3172 30.7237L16.3264 30.7053H17.1262C17.1262 30.9994 17.2273 31.2201 17.4387 31.3671C17.6501 31.5142 17.8984 31.5878 18.1925 31.5878C18.4867 31.5878 18.7165 31.5234 18.882 31.4039C19.0566 31.2844 19.1394 31.1189 19.1394 30.9075Z" fill="white"/>
</svg>
