<svg width="38" height="46" viewBox="0 0 38 46" fill="none" xmlns="http://www.w3.org/2000/svg">
<path d="M4.53594 45.9994L1.26074 42.5954V31.2058C1.26074 29.5958 2.33714 28.2342 3.80914 27.8018V4.59937C3.80914 2.75937 5.30874 1.25977 7.14874 1.25977H28.2351L37.3339 10.3586V42.6598C37.3339 44.4998 35.8343 45.9994 33.9943 45.9994H4.53594Z" fill="#848484"/>
<path d="M3.2752 44.7396L0 41.3356V29.9552C0 28.3452 1.0764 26.9836 2.5484 26.5512V3.3396C2.5484 1.4996 4.048 0 5.888 0H26.9744L36.0732 9.0988V41.4C36.0732 43.24 34.5736 44.7396 32.7336 44.7396H3.2752Z" fill="white"/>
<path d="M26.4504 1.26953H5.88836C4.74756 1.26953 3.81836 2.19873 3.81836 3.33953V43.4791H32.7432C33.884 43.4791 34.8132 42.5499 34.8132 41.4091V9.62313L26.4504 1.26953Z" fill="#F45671"/>
<path d="M26.4502 1.26953V9.62313H34.813L26.4502 1.26953Z" fill="#E03258"/>
<path d="M23.3495 40.8201H1.26953V30.1481C1.26953 28.7773 2.38273 27.6641 3.75353 27.6641H23.3587C24.7295 27.6641 25.8427 28.7773 25.8427 30.1481V38.3361C25.8335 39.7161 24.7203 40.8201 23.3495 40.8201Z" fill="#E03258"/>
<path d="M1.26953 40.8203L3.81793 43.4791V40.8203H1.26953Z" fill="#BC2049"/>
<path d="M31.6475 13.8536H7.07425C6.72465 13.8536 6.43945 13.5684 6.43945 13.2188C6.43945 12.8692 6.72465 12.584 7.07425 12.584H31.6475C31.9971 12.584 32.2823 12.8692 32.2823 13.2188C32.2823 13.5684 31.9971 13.8536 31.6475 13.8536Z" fill="#E03258"/>
<path d="M31.6475 16.4493H7.07425C6.72465 16.4493 6.43945 16.1641 6.43945 15.8145C6.43945 15.4649 6.72465 15.1797 7.07425 15.1797H31.6475C31.9971 15.1797 32.2823 15.4649 32.2823 15.8145C32.2823 16.1641 31.9971 16.4493 31.6475 16.4493Z" fill="#E03258"/>
<path d="M31.6475 19.0528H7.07425C6.72465 19.0528 6.43945 18.7676 6.43945 18.418C6.43945 18.0684 6.72465 17.7832 7.07425 17.7832H31.6475C31.9971 17.7832 32.2823 18.0684 32.2823 18.418C32.2823 18.7676 31.9971 19.0528 31.6475 19.0528Z" fill="#E03258"/>
<path d="M31.6475 21.6466H7.07425C6.72465 21.6466 6.43945 21.3614 6.43945 21.0118C6.43945 20.6622 6.72465 20.377 7.07425 20.377H31.6475C31.9971 20.377 32.2823 20.6622 32.2823 21.0118C32.2823 21.3614 31.9971 21.6466 31.6475 21.6466Z" fill="#E03258"/>
<path d="M26.7991 24.2501H7.07425C6.72465 24.2501 6.43945 23.9649 6.43945 23.6153C6.43945 23.2657 6.72465 22.9805 7.07425 22.9805H26.7991C27.1487 22.9805 27.4339 23.2657 27.4339 23.6153C27.4339 23.9649 27.1487 24.2501 26.7991 24.2501Z" fill="#E03258"/>
<path d="M6.07218 35.0607V37.6091H4.95898V30.9023H7.53498C8.27098 30.9023 8.85978 31.0955 9.27378 31.4727C9.69698 31.8591 9.89938 32.3559 9.89938 32.9815C9.89938 33.6071 9.68778 34.1131 9.27378 34.4995C8.85058 34.8767 8.27098 35.0699 7.53498 35.0699H6.07218V35.0607ZM6.07218 34.1591H7.52578C7.93978 34.1591 8.25258 34.0487 8.46418 33.8279C8.67578 33.6071 8.77698 33.3219 8.77698 32.9815C8.77698 32.6411 8.67578 32.3559 8.46418 32.1259C8.25258 31.8959 7.93978 31.7855 7.52578 31.7855H6.07218V34.1591Z" fill="white"/>
<path d="M11.252 37.5994V30.8926H13.4692C14.3156 30.8926 15.0148 31.1594 15.5484 31.693C16.082 32.2266 16.3488 32.9074 16.3488 33.7446V34.7658C16.3488 35.603 16.082 36.2838 15.5484 36.8174C15.0148 37.3418 14.3248 37.6086 13.4692 37.6086H11.252V37.5994ZM12.3652 31.7942V36.707H13.46C13.9936 36.707 14.426 36.523 14.7388 36.1642C15.0516 35.7962 15.2172 35.3362 15.2172 34.7566V33.7262C15.2172 33.165 15.0608 32.6958 14.7388 32.3278C14.426 31.9598 13.9936 31.785 13.46 31.785H12.3652V31.7942Z" fill="white"/>
<path d="M21.6758 34.7382H18.971V37.5994H17.8486V30.8926H22.145V31.7942H18.971V33.8458H21.6758V34.7382Z" fill="white"/>
</svg>
