<svg width="38" height="46" viewBox="0 0 38 46" fill="none" xmlns="http://www.w3.org/2000/svg">
<path d="M7.64834 45.9988C5.28586 45.9988 3.35543 44.1235 3.35543 41.8253V38.3138L1.49854 36.9073V24.7364H3.35543V6.58118C3.35543 4.28305 5.27667 2.40777 7.64834 2.40777H12.8789V1.46094H24.342L25.3256 2.40777H32.9186C35.2811 2.40777 37.2115 4.28305 37.2115 6.58118V13.972L37.9377 14.6706V25.8303H37.2115V41.8162C37.2115 44.1143 35.2903 45.9896 32.9186 45.9896H7.64834V45.9988Z" fill="#BFBFBF"/>
<path d="M6.1498 44.5378C3.78732 44.5378 1.85689 42.6625 1.85689 40.3644V36.8529L0 35.4556V23.2755H1.85689V5.12024C1.85689 2.82211 3.77813 0.946831 6.1498 0.946831H11.3804V0H22.8434L23.8178 0.946831H31.4109C33.7734 0.946831 35.7038 2.82211 35.7038 5.12024V12.5202L36.43 13.2189V24.3786H35.7038V40.3644C35.7038 42.6625 33.7826 44.5378 31.4109 44.5378H6.1498Z" fill="white"/>
<path d="M31.2089 43.123H6.3523C4.67007 43.123 3.30957 41.7625 3.30957 40.0802V5.40601C3.30957 3.72378 4.67007 2.36328 6.3523 2.36328H31.2089C32.8911 2.36328 34.2516 3.72378 34.2516 5.40601V40.0802C34.2516 41.7625 32.8911 43.123 31.2089 43.123Z" fill="#1857A2"/>
<path d="M4.51367 39.6493V5.84834C4.51367 4.57058 5.54324 3.54102 6.821 3.54102H30.7308C32.0085 3.54102 33.0381 4.57058 33.0381 5.84834V39.6493C33.0381 40.927 32.0085 41.9566 30.7308 41.9566H6.821C5.55243 41.9566 4.51367 40.9179 4.51367 39.6493Z" fill="#53A2FF"/>
<path d="M34.9686 22.9633V13.8075L22.237 1.41602H12.833L34.9686 22.9633Z" fill="#1E6ECD"/>
<path d="M12.833 1.41602V2.36285H13.8074L12.833 1.41602Z" fill="#096047"/>
<path d="M34.2515 22.2637V22.9623H34.9685L34.2515 22.2637Z" fill="#096047"/>
<path d="M20.9317 34.7578H1.46191V24.7012H20.9409C23.6803 24.7012 25.9049 26.9258 25.9049 29.6651V29.7938C25.8957 32.5332 23.6803 34.7578 20.9317 34.7578Z" fill="#1E6ECD"/>
<path d="M1.46191 34.7578L3.30961 36.1551V34.7578H1.46191Z" fill="#0D478C"/>
<path d="M6.87646 32.1519V27.2891H8.53112C9.16541 27.2891 9.68019 27.4821 10.0755 27.8682C10.4707 28.2543 10.673 28.7507 10.673 29.3574V30.0928C10.673 30.6995 10.4707 31.1959 10.0755 31.582C9.68019 31.9681 9.16541 32.1611 8.53112 32.1611H6.87646V32.1519ZM7.71299 27.9417V31.5084H8.53112C8.93559 31.5084 9.24814 31.3797 9.48714 31.1132C9.72615 30.8466 9.83646 30.5064 9.83646 30.0928V29.3482C9.83646 28.9345 9.71696 28.6036 9.48714 28.337C9.24814 28.0704 8.93559 27.9417 8.53112 27.9417H7.71299Z" fill="white"/>
<path d="M15.72 30.1584C15.72 30.7559 15.5269 31.2431 15.1409 31.6384C14.7548 32.0337 14.2584 32.2267 13.6425 32.2267C13.045 32.2267 12.5578 32.0337 12.1809 31.6384C11.804 31.2431 11.6201 30.7559 11.6201 30.1584V29.2851C11.6201 28.6968 11.804 28.2004 12.1809 27.8051C12.5578 27.4098 13.045 27.2168 13.6425 27.2168C14.2492 27.2168 14.7548 27.4098 15.1317 27.8051C15.5178 28.2004 15.7108 28.6876 15.7108 29.2851V30.1584H15.72ZM14.8927 29.2759C14.8927 28.8715 14.7823 28.5405 14.5617 28.2739C14.3411 28.0165 14.0378 27.8787 13.6609 27.8787C13.2932 27.8787 12.999 28.0074 12.7876 28.2739C12.5761 28.5313 12.4658 28.8715 12.4658 29.2759V30.1584C12.4658 30.5721 12.5761 30.903 12.7876 31.1696C12.999 31.427 13.2932 31.5649 13.6517 31.5649C14.0378 31.5649 14.3319 31.4362 14.5525 31.1696C14.7732 30.9122 14.8835 30.5721 14.8835 30.1584V29.2759H14.8927Z" fill="white"/>
<path d="M20.4723 30.5629L20.4815 30.5813C20.4907 31.0685 20.3252 31.4637 19.9943 31.7671C19.6542 32.0705 19.2037 32.2175 18.6338 32.2175C18.0547 32.2175 17.5766 32.0245 17.2181 31.6476C16.8596 31.2615 16.6758 30.7743 16.6758 30.186V29.2575C16.6758 28.6692 16.8504 28.1728 17.2089 27.7959C17.5675 27.419 18.0271 27.2168 18.6062 27.2168C19.1945 27.2168 19.6542 27.3639 19.9943 27.658C20.3344 27.9522 20.4999 28.3475 20.4907 28.8531L20.4815 28.8715H19.6725C19.6725 28.5497 19.5806 28.3015 19.406 28.1269C19.2221 27.9522 18.9555 27.8695 18.6062 27.8695C18.2661 27.8695 17.9995 27.9982 17.7973 28.2647C17.595 28.5221 17.5031 28.8531 17.5031 29.2575V30.186C17.5031 30.5905 17.6042 30.9214 17.8065 31.1788C18.0087 31.4362 18.2845 31.5741 18.6338 31.5741C18.9739 31.5741 19.2313 31.4913 19.4152 31.3167C19.5898 31.142 19.6817 30.8938 19.6817 30.5629H20.4723Z" fill="white"/>
</svg>
