<svg width="24" height="27" viewBox="0 0 24 27" fill="none" xmlns="http://www.w3.org/2000/svg">
<path d="M11.9035 5.62315C12.5319 5.03387 13.5606 5.47943 13.5606 6.34091V20.8014C13.5606 21.6627 12.5323 22.1084 11.9038 21.5195L8.01752 17.8779C7.76222 17.6386 7.42546 17.5055 7.0756 17.5055H4.70482C3.29189 17.5055 2.14648 16.3601 2.14648 14.9472V12.1983C2.14648 10.7854 3.29189 9.64001 4.70482 9.64001H7.07516C7.42521 9.64001 7.76213 9.50675 8.01747 9.26731L11.9035 5.62315ZM17.6095 6.63226C17.8543 6.41691 18.2274 6.44079 18.4427 6.68561C20.0583 8.52228 21.0388 10.9332 21.0388 13.5717C21.0388 16.2101 20.0583 18.6211 18.4427 20.4577C18.2274 20.7026 17.8543 20.7264 17.6095 20.5111C17.3647 20.2957 17.3408 19.9227 17.5561 19.6779C18.9894 18.0485 19.858 15.9122 19.858 13.5717C19.858 11.2311 18.9894 9.09488 17.5561 7.46549C17.3408 7.22066 17.3647 6.84762 17.6095 6.63226ZM16.5934 9.08702C16.3977 8.82623 16.0277 8.77347 15.7669 8.96919C15.5061 9.1649 15.4533 9.53497 15.649 9.79576C16.4385 10.8478 16.9061 12.1543 16.9061 13.5717C16.9061 14.9891 16.4385 16.2955 15.649 17.3476C15.4533 17.6084 15.5061 17.9785 15.7669 18.1742C16.0277 18.3699 16.3977 18.3171 16.5934 18.0563C17.5311 16.8069 18.0869 15.2533 18.0869 13.5717C18.0869 11.89 17.5311 10.3365 16.5934 9.08702Z" fill="currentColor"/>
</svg>
