<svg width="29" height="15" viewBox="0 0 29 15" fill="none" xmlns="http://www.w3.org/2000/svg">
<path d="M14.5 8.40625C16.4696 8.40625 18.2096 8.8775 19.6233 9.49375C20.9283 10.0737 21.75 11.3787 21.75 12.7925V13.5417C21.75 14.2063 21.2063 14.75 20.5417 14.75H8.45833C7.79375 14.75 7.25 14.2063 7.25 13.5417V12.8046C7.25 11.3787 8.07167 10.0738 9.37667 9.50583C10.7904 8.8775 12.5304 8.40625 14.5 8.40625ZM4.83333 8.70833C6.1625 8.70833 7.25 7.62083 7.25 6.29167C7.25 4.9625 6.1625 3.875 4.83333 3.875C3.50417 3.875 2.41667 4.9625 2.41667 6.29167C2.41667 7.62083 3.50417 8.70833 4.83333 8.70833ZM6.19875 10.0375C5.75167 9.965 5.30458 9.91667 4.83333 9.91667C3.63708 9.91667 2.50125 10.1704 1.47417 10.6175C0.58 11.0042 0 11.8742 0 12.8529V13.5417C0 14.2063 0.54375 14.75 1.20833 14.75H5.4375V12.8046C5.4375 11.8017 5.71542 10.8592 6.19875 10.0375ZM24.1667 8.70833C25.4958 8.70833 26.5833 7.62083 26.5833 6.29167C26.5833 4.9625 25.4958 3.875 24.1667 3.875C22.8375 3.875 21.75 4.9625 21.75 6.29167C21.75 7.62083 22.8375 8.70833 24.1667 8.70833ZM29 12.8529C29 11.8742 28.42 11.0042 27.5258 10.6175C26.4988 10.1704 25.3629 9.91667 24.1667 9.91667C23.6954 9.91667 23.2483 9.965 22.8013 10.0375C23.2846 10.8592 23.5625 11.8017 23.5625 12.8046V14.75H27.7917C28.4563 14.75 29 14.2063 29 13.5417V12.8529ZM14.5 0.25C16.5058 0.25 18.125 1.86917 18.125 3.875C18.125 5.88083 16.5058 7.5 14.5 7.5C12.4942 7.5 10.875 5.88083 10.875 3.875C10.875 1.86917 12.4942 0.25 14.5 0.25Z" fill="#323232"/>
</svg>
