<svg width="130" height="130" viewBox="0 0 130 130" fill="none" xmlns="http://www.w3.org/2000/svg">
<path fill-rule="evenodd" clip-rule="evenodd" d="M64.9999 0.833252C29.5624 0.833252 0.833252 29.5624 0.833252 64.9999C0.833252 100.437 29.5624 129.167 64.9999 129.167C100.437 129.167 129.167 100.437 129.167 64.9999C129.167 29.5624 100.437 0.833252 64.9999 0.833252ZM92.8133 54.1499C93.3254 53.5645 93.7153 52.8826 93.96 52.1442C94.2047 51.4059 94.2993 50.6261 94.2382 49.8507C94.1771 49.0752 93.9615 48.3199 93.6041 47.629C93.2468 46.9381 92.7548 46.3257 92.1573 45.8278C91.5597 45.3298 90.8687 44.9564 90.1247 44.7295C89.3807 44.5025 88.5988 44.4267 87.8251 44.5064C87.0514 44.5861 86.3014 44.8198 85.6193 45.1936C84.9372 45.5675 84.3367 46.0739 83.8533 46.6833L58.7699 76.7774L45.7908 63.7924C44.6906 62.7298 43.2171 62.1419 41.6876 62.1552C40.1581 62.1685 38.695 62.7819 37.6135 63.8635C36.5319 64.945 35.9184 66.4081 35.9052 67.9376C35.8919 69.4671 36.4798 70.9406 37.5424 72.0408L55.0424 89.5408C55.6156 90.1136 56.3018 90.5607 57.0573 90.8536C57.8129 91.1465 58.6212 91.2788 59.4307 91.2421C60.2402 91.2053 61.0331 91.0003 61.759 90.64C62.4849 90.2798 63.1277 89.7723 63.6466 89.1499L92.8133 54.1499Z" fill="#0DB153"/>
</svg>
