<svg width="500" height="373" viewBox="0 0 500 373" fill="none" xmlns="http://www.w3.org/2000/svg">
<g clip-path="url(#clip0_133_3717)">
<path d="M500 327.4H0V327.7H500V327.4Z" fill="#EBEBEB"/>
<path d="M449.9 343.5H416.8V343.8H449.9V343.5Z" fill="#EBEBEB"/>
<path d="M331.2 346.3H322.5V346.6H331.2V346.3Z" fill="#EBEBEB"/>
<path d="M415.8 334.3H396.6V334.6H415.8V334.3Z" fill="#EBEBEB"/>
<path d="M95.7 335.9H52.5V336.2H95.7V335.9Z" fill="#EBEBEB"/>
<path d="M110.9 335.9H104.6V336.2H110.9V335.9Z" fill="#EBEBEB"/>
<path d="M225.2 340.2H131.5V340.5H225.2V340.2Z" fill="#EBEBEB"/>
<path d="M237 282.8H43.9C40.8 282.8 38.2 280.2 38.2 277.1V5.7C38.2 2.6 40.8 0 43.9 0H237C240.1 0 242.7 2.6 242.7 5.7V277.1C242.7 280.3 240.2 282.8 237 282.8ZM43.9 0.3C40.9 0.3 38.4 2.7 38.4 5.8V277.2C38.4 280.2 40.8 282.7 43.9 282.7H237C240 282.7 242.5 280.3 242.5 277.2V5.7C242.5 2.7 240.1 0.2 237 0.2H43.9V0.3Z" fill="#EBEBEB"/>
<path d="M453.3 282.8H260.2C257.1 282.8 254.5 280.2 254.5 277.1V5.7C254.5 2.6 257.1 0 260.2 0H453.3C456.4 0 459 2.6 459 5.7V277.1C459 280.3 456.5 282.8 453.3 282.8ZM260.2 0.3C257.2 0.3 254.7 2.7 254.7 5.8V277.2C254.7 280.2 257.1 282.7 260.2 282.7H453.3C456.3 282.7 458.8 280.3 458.8 277.2V5.7C458.8 2.7 456.4 0.2 453.3 0.2H260.2V0.3Z" fill="#EBEBEB"/>
<path d="M314 51.2H222.1V258.3H314V51.2Z" fill="#EBEBEB"/>
<path d="M310.562 254.524L310.562 55.1241L225.562 55.1241L225.562 254.524L310.562 254.524Z" fill="#B9E0E9"/>
<path d="M269.1 54.1H267.1V256.4H269.1V54.1Z" fill="#F5F5F5"/>
<path d="M316.2 48.5H220V58.2H316.2V48.5Z" fill="#407BFF"/>
<path d="M316.2 59.4H220V60.6H316.2V59.4Z" fill="#F5F5F5"/>
<path d="M316.2 62H220V63.2H316.2V62Z" fill="#F5F5F5"/>
<path d="M316.2 64.6H220V65.8H316.2V64.6Z" fill="#F5F5F5"/>
<path d="M316.2 67.2H220V68.4H316.2V67.2Z" fill="#F5F5F5"/>
<path d="M316.2 69.8H220V71H316.2V69.8Z" fill="#F5F5F5"/>
<path d="M316.2 72.5H220V73.7H316.2V72.5Z" fill="#F5F5F5"/>
<path d="M316.2 75.1H220V76.3H316.2V75.1Z" fill="#F5F5F5"/>
<path d="M316.2 77.7H220V78.9H316.2V77.7Z" fill="#F5F5F5"/>
<path d="M316.2 80.3H220V81.5H316.2V80.3Z" fill="#F5F5F5"/>
<path d="M316.2 83H220V84.2H316.2V83Z" fill="#F5F5F5"/>
<path d="M316.2 85.6H220V86.8H316.2V85.6Z" fill="#F5F5F5"/>
<path d="M316.2 88.2H220V89.4H316.2V88.2Z" fill="#F5F5F5"/>
<path d="M316.2 90.8H220V92H316.2V90.8Z" fill="#F5F5F5"/>
<path d="M316.2 93.4H220V94.6H316.2V93.4Z" fill="#F5F5F5"/>
<path d="M316.2 96.1H220V97.3H316.2V96.1Z" fill="#F5F5F5"/>
<path d="M316.2 98.7H220V99.9H316.2V98.7Z" fill="#F5F5F5"/>
<path d="M316.2 101.3H220V102.5H316.2V101.3Z" fill="#F5F5F5"/>
<path d="M316.2 103.9H220V105.1H316.2V103.9Z" fill="#F5F5F5"/>
<path d="M422.9 51.2H331V258.3H422.9V51.2Z" fill="#EBEBEB"/>
<path d="M419.422 254.464L419.422 55.0641L334.422 55.0641L334.422 254.464L419.422 254.464Z" fill="#B9E0E9"/>
<path d="M378 54.1H376V256.4H378V54.1Z" fill="#F5F5F5"/>
<path d="M425 48.5H328.8V58.2H425V48.5Z" fill="#407BFF"/>
<path d="M425 59.4H328.8V60.6H425V59.4Z" fill="#F5F5F5"/>
<path d="M425 62H328.8V63.2H425V62Z" fill="#F5F5F5"/>
<path d="M425 64.6H328.8V65.8H425V64.6Z" fill="#F5F5F5"/>
<path d="M425 67.2H328.8V68.4H425V67.2Z" fill="#F5F5F5"/>
<path d="M425 69.8H328.8V71H425V69.8Z" fill="#F5F5F5"/>
<path d="M425 72.5H328.8V73.7H425V72.5Z" fill="#F5F5F5"/>
<path d="M425 75.1H328.8V76.3H425V75.1Z" fill="#F5F5F5"/>
<path d="M425 77.7H328.8V78.9H425V77.7Z" fill="#F5F5F5"/>
<path d="M425 80.3H328.8V81.5H425V80.3Z" fill="#F5F5F5"/>
<path d="M425 83H328.8V84.2H425V83Z" fill="#F5F5F5"/>
<path d="M425 85.6H328.8V86.8H425V85.6Z" fill="#F5F5F5"/>
<path d="M425 88.2H328.8V89.4H425V88.2Z" fill="#F5F5F5"/>
<path d="M425 90.8H328.8V92H425V90.8Z" fill="#F5F5F5"/>
<path d="M425 93.4H328.8V94.6H425V93.4Z" fill="#F5F5F5"/>
<path d="M425 96.1H328.8V97.3H425V96.1Z" fill="#F5F5F5"/>
<path d="M425 98.7H328.8V99.9H425V98.7Z" fill="#F5F5F5"/>
<path d="M425 101.3H328.8V102.5H425V101.3Z" fill="#F5F5F5"/>
<path d="M425 103.9H328.8V105.1H425V103.9Z" fill="#F5F5F5"/>
<path d="M187.473 170.159L187.473 80.2585L71.7734 80.2585L71.7734 170.159H187.473Z" fill="#E0E0E0"/>
<path d="M73.4149 168.532H185.915V81.8322L73.4149 81.8322L73.4149 168.532Z" fill="#59E1FF" fill-opacity="0.29"/>
<path d="M127.8 97.5V109.6" stroke="#E0E0E0" stroke-miterlimit="10"/>
<path d="M100.3 148.5V109.6H151.3V131.9" stroke="#E0E0E0" stroke-miterlimit="10"/>
<path d="M138.1 143.8V131.9H166.2V144.2" stroke="#E0E0E0" stroke-miterlimit="10"/>
<path d="M140.7 93.1H114.9V102H140.7V93.1Z" fill="#F5F5F5"/>
<path d="M164 114.4H139.4V124.1H164V114.4Z" fill="#F5F5F5"/>
<path d="M146.6 138.8H129.7V148.8H146.6V138.8Z" fill="#F5F5F5"/>
<path d="M175.2 140.5H157.1V148.1H175.2V140.5Z" fill="#F5F5F5"/>
<path d="M116.3 116.4H88.4V129.3H116.3V116.4Z" fill="#F5F5F5"/>
<path d="M109.2 143.8H91.4V153.2H109.2V143.8Z" fill="#F5F5F5"/>
<path d="M131.559 109.858L127.74 106.04L123.922 109.858L127.74 113.676L131.559 109.858Z" fill="#F5F5F5"/>
<path d="M155.152 131.905L151.334 128.087L147.516 131.905L151.334 135.723L155.152 131.905Z" fill="#F5F5F5"/>
<path d="M129.7 67.6C138.702 67.6 146 60.3022 146 51.3C146 42.2978 138.702 35 129.7 35C120.698 35 113.4 42.2978 113.4 51.3C113.4 60.3022 120.698 67.6 129.7 67.6Z" fill="#E0E0E0"/>
<path d="M129.7 65.2C137.377 65.2 143.6 58.9767 143.6 51.3C143.6 43.6232 137.377 37.4 129.7 37.4C122.023 37.4 115.8 43.6232 115.8 51.3C115.8 58.9767 122.023 65.2 129.7 65.2Z" fill="#F0F0F0"/>
<path d="M130.3 41.8V51.5L136.7 47.9" fill="#F0F0F0"/>
<path d="M130.3 41.8V51.5L136.7 47.9" stroke="#E0E0E0" stroke-width="2" stroke-miterlimit="10" stroke-linecap="round" stroke-linejoin="round"/>
<path d="M250 372.6C357.088 372.6 443.9 367.541 443.9 361.3C443.9 355.059 357.088 350 250 350C142.912 350 56.1 355.059 56.1 361.3C56.1 367.541 142.912 372.6 250 372.6Z" fill="#F5F5F5"/>
<path d="M117.1 292.6C117.1 292.6 110.5 287.1 104.8 292.6C99.1 298.1 98 332.3 98 332.3" stroke="#0DB153" stroke-width="0.9446" stroke-miterlimit="10"/>
<path d="M97.5 338.9C97.5 338.9 101.4 298.8 86.7 281.9" stroke="#0DB153" stroke-width="0.9446" stroke-miterlimit="10"/>
<path d="M98.8999 334.7C98.8999 334.7 95.8999 289 106.9 278.9" stroke="#0DB153" stroke-width="0.9446" stroke-miterlimit="10"/>
<path d="M97.5 334.7C97.5 334.7 97.2 304.5 89.1 299.8C80.9 295.1 76.7 310.4 76.7 310.4" stroke="#0DB153" stroke-width="0.9446" stroke-miterlimit="10"/>
<path d="M100.8 334.7C100.8 334.7 99.4999 311.5 105.8 303.2C112.1 294.9 118.8 306.7 118.8 306.7" stroke="#0DB153" stroke-width="0.9446" stroke-miterlimit="10"/>
<path d="M98.5999 337.8C98.5999 337.8 102.7 283.6 95.8999 274.4" stroke="#0DB153" stroke-width="0.9446" stroke-miterlimit="10"/>
<path d="M82.1 304.2C82.1 304.2 86.2 305.7 85 309.3C83.8 312.9 70.9 318.7 70.9 318.7C70.9 318.7 65.5 313.7 70.5 305.7C75.3 297.6 82 301.7 82.1 304.2Z" fill="#0DB153"/>
<path d="M99.8 297.5C99.8 297.5 95.5 297.3 95.2 301.1C95 304.8 104.6 315.2 104.6 315.2C104.6 315.2 111.5 312.7 110 303.4C108.6 294 100.9 295.2 99.8 297.5Z" fill="#0DB153"/>
<path d="M103.5 279.5C103.5 279.5 100.6 279.2 100.8 277.4C101 275.6 112.1 271.1 118.6 278.4C118.6 278.4 114.4 285.6 108.4 285.7C102.4 285.8 103.5 279.5 103.5 279.5Z" fill="#0DB153"/>
<path d="M98.1 275.2C98.1 275.2 100.7 276.5 101.5 274.8C102.2 273.2 95.3 263.5 85.9 266.3C85.9 266.3 85.7 274.6 90.7 277.8C95.7 281.2 98.1 275.2 98.1 275.2Z" fill="#0DB153"/>
<path opacity="0.4" d="M98.1 275.2C98.1 275.2 100.7 276.5 101.5 274.8C102.2 273.2 95.3 263.5 85.9 266.3C85.9 266.3 85.7 274.6 90.7 277.8C95.7 281.2 98.1 275.2 98.1 275.2Z" fill="white"/>
<path d="M111.8 302.8C111.8 302.8 109.8 301.2 112 300.4C114.2 299.6 124.8 299.8 124.9 310.3C124.9 310.3 112.6 312.4 111 308.4C109.5 304.4 111.8 302.8 111.8 302.8Z" fill="#0DB153"/>
<path opacity="0.4" d="M111.8 302.8C111.8 302.8 109.8 301.2 112 300.4C114.2 299.6 124.8 299.8 124.9 310.3C124.9 310.3 112.6 312.4 111 308.4C109.5 304.4 111.8 302.8 111.8 302.8Z" fill="white"/>
<path d="M86.7 279.3C86.7 279.3 88.7 277.7 86.5 276.9C84.3 276.1 73.7 276.3 73.6 286.8C73.6 286.8 85.9 288.9 87.5 284.9C89 280.9 86.7 279.3 86.7 279.3Z" fill="#0DB153"/>
<path opacity="0.4" d="M86.7 279.3C86.7 279.3 88.7 277.7 86.5 276.9C84.3 276.1 73.7 276.3 73.6 286.8C73.6 286.8 85.9 288.9 87.5 284.9C89 280.9 86.7 279.3 86.7 279.3Z" fill="white"/>
<path d="M93.2 287.7C93.2 287.7 93.4001 285.7 91.8001 286.5C90.2001 287.3 84.7 293.2 90.4 298.9C90.4 298.9 98.1 293.2 96.7 290.2C95.3 287.3 93.2 287.7 93.2 287.7Z" fill="#0DB153"/>
<path opacity="0.4" d="M93.2 287.7C93.2 287.7 93.4001 285.7 91.8001 286.5C90.2001 287.3 84.7 293.2 90.4 298.9C90.4 298.9 98.1 293.2 96.7 290.2C95.3 287.3 93.2 287.7 93.2 287.7Z" fill="white"/>
<path d="M113.6 290.5C113.6 290.5 112.4 288.9 114.2 288.7C116 288.5 123.8 290.6 122 298.4C122 298.4 112.4 297.7 112 294.4C111.6 291.3 113.6 290.5 113.6 290.5Z" fill="#0DB153"/>
<path opacity="0.4" d="M113.6 290.5C113.6 290.5 112.4 288.9 114.2 288.7C116 288.5 123.8 290.6 122 298.4C122 298.4 112.4 297.7 112 294.4C111.6 291.3 113.6 290.5 113.6 290.5Z" fill="white"/>
<path d="M82.8 363.8H113.7L117.8 333.7H78.7L82.8 363.8Z" fill="#263238"/>
<path opacity="0.2" d="M82.8 363.8H113.7L117.8 333.7H78.7L82.8 363.8Z" fill="white"/>
<path d="M121.7 331.3V334.2C121.7 336.1 120.2 337.7 118.2 337.7H77.9C76 337.7 74.4 336.2 74.4 334.2V331.3H121.7Z" fill="#263238"/>
<path d="M372.4 337.3C371.3 335.5 372.8 332.8 374.9 332.7C374 330.1 374.9 327 377.1 325.3C377.4 325.1 377.7 324.9 378 324.9C378.4 324.9 378.7 325.1 379 325.3C381 326.7 383 328.2 385 329.6C385.5 329.9 385.9 330.3 386.2 330.8C387.4 333.2 383 336.2 384.8 338.1C385.3 338.7 386.2 338.8 386.8 339.2C388.2 340.1 388.4 342 389 343.6C389.7 345.1 392 346.3 392.8 344.9C392.1 343.4 394.1 342.2 395.7 342C397.3 341.8 399 341.7 399.9 340.2C402.2 342.2 407.2 336.7 407.1 334.4C409 334.5 410.2 336.3 410.6 338C411 339.8 410.8 341.7 410.8 343.6C410.9 347.2 412 350.7 412 354.4C412 357.2 410.9 360.3 408.3 361.5C407.1 362 405.7 362 404.3 362C394.5 361.9 384.8 361.9 375 361.8C374.3 361.8 373.6 361.8 372.9 361.5C371.6 360.8 371.3 359.1 371.2 357.6C370.7 351.2 370.2 344.9 369.6 338.5C370.6 338 371.5 337.7 372.4 337.3Z" fill="#407BFF"/>
<path opacity="0.3" d="M372.4 337.3C371.3 335.5 372.8 332.8 374.9 332.7C374 330.1 374.9 327 377.1 325.3C377.4 325.1 377.7 324.9 378 324.9C378.4 324.9 378.7 325.1 379 325.3C381 326.7 383 328.2 385 329.6C385.5 329.9 385.9 330.3 386.2 330.8C387.4 333.2 383 336.2 384.8 338.1C385.3 338.7 386.2 338.8 386.8 339.2C388.2 340.1 388.4 342 389 343.6C389.7 345.1 392 346.3 392.8 344.9C392.1 343.4 394.1 342.2 395.7 342C397.3 341.8 399 341.7 399.9 340.2C402.2 342.2 407.2 336.7 407.1 334.4C409 334.5 410.2 336.3 410.6 338C411 339.8 410.8 341.7 410.8 343.6C410.9 347.2 412 350.7 412 354.4C412 357.2 410.9 360.3 408.3 361.5C407.1 362 405.7 362 404.3 362C394.5 361.9 384.8 361.9 375 361.8C374.3 361.8 373.6 361.8 372.9 361.5C371.6 360.8 371.3 359.1 371.2 357.6C370.7 351.2 370.2 344.9 369.6 338.5C370.6 338 371.5 337.7 372.4 337.3Z" fill="white"/>
<path d="M365.5 306.4L365.9 311L366.2 314.3L366.9 322.8L367.3 327.7L367.8 334.2L368 337L368.1 337.8L368.4 341.1L368.8 345.6L369 348.4L369.2 351.2L369.5 354.5L369.7 357L369.9 359.8L370 361H376H381.1H388.4H393.5H400.8H405.9H411.9L412 359.8L412.2 357L412.4 354.5L412.7 351.2L412.9 348.4L413.1 345.6L413.5 341.1L413.8 337.8L413.9 337L414.1 334.2L414.6 327.7L415 322.8L415.7 314.3L416 311L416.4 306.4H411H407.7H398.7H395.4H386.4H383H373.9H370.6H365.5ZM367.8 308.5H368.8L367.9 309.4L367.8 308.5ZM371.8 308.5H372.8L377 312.7L372.3 317.4L368.2 313.3L368.1 312.2L371.8 308.5ZM369.1 323.6L372.3 320.4L377 325.1L372.3 329.8L369.3 326.8L369.1 323.6ZM412.3 326.7L409.3 329.7L404.6 325L409.3 320.3L412.5 323.5L412.3 326.7ZM378.5 314.2L383.2 318.9L378.5 323.6L373.8 318.9L378.5 314.2ZM378.5 311.2L375.8 308.5H381.1L378.5 311.2ZM384.6 320.4L389.3 325.1L384.6 329.8L380 325L384.6 320.4ZM390.8 335.9L386.1 331.2L390.8 326.5L395.5 331.2L390.8 335.9ZM397 332.7L401.7 337.4L397 342L392.3 337.3L397 332.7ZM389.3 337.4L384.6 342.1L379.9 337.4L384.6 332.7L389.3 337.4ZM386.2 318.8L390.9 314.1L395.6 318.8L390.9 323.5L386.2 318.8ZM397 320.4L401.7 325.1L397 329.8L392.3 325.1L397 320.4ZM398.5 318.8L403.2 314.1L407.9 318.8L403.2 323.5L398.5 318.8ZM407.8 331.2L403.1 335.9L398.4 331.2L403.1 326.5L407.8 331.2ZM403.2 338.9L407.9 343.6L403.2 348.3L398.5 343.6L403.2 338.9ZM401.7 349.7L397 354.4L392.3 349.7L397 345L401.7 349.7ZM390.8 348.2L386.1 343.5L390.8 338.8L395.5 343.5L390.8 348.2ZM389.3 349.7L384.6 354.4L379.9 349.7L384.6 345L389.3 349.7ZM383.1 355.9L380.1 358.9H376.8L373.8 355.9L378.5 351.2L383.1 355.9ZM378.5 348.2L373.8 343.5L378.5 338.8L383.2 343.5L378.5 348.2ZM378.5 335.9L373.8 331.2L378.5 326.5L383.2 331.2L378.5 335.9ZM384.2 308.5H385.2L389.4 312.7L384.7 317.4L380 312.7L384.2 308.5ZM388.2 308.5H393.5L390.8 311.2L388.2 308.5ZM396.5 308.5H397.5L401.7 312.7L397 317.4L392.3 312.7L396.5 308.5ZM405.8 308.5L403.1 311.2L400.4 308.5H405.8ZM409.8 308.5L413.5 312.2L413.4 313.3L409.3 317.4L404.6 312.7L408.8 308.5H409.8ZM413.8 308.5L413.7 309.4L412.8 308.5H413.8ZM412.8 320.8L410.9 318.9L413.2 316.6L412.8 320.8ZM411.9 332.2L410.9 331.2L412.1 330L411.9 332.2ZM411.2 340.2L409.3 342.1L404.6 337.4L409.3 332.7L411.6 335L411.2 340.2ZM410.1 353.6L409.3 354.4L404.6 349.7L409.3 345L410.7 346.4L410.1 353.6ZM407.8 358.9L409.3 357.4L409.7 357.8L409.6 358.9H407.8ZM404.8 358.9H401.5L398.5 355.9L403.2 351.2L407.9 355.9L404.8 358.9ZM395.5 358.9L397 357.4L398.5 358.9H395.5ZM389.2 358.9L386.2 355.9L390.9 351.2L395.6 355.9L392.6 358.9H389.2ZM383.1 358.9L384.6 357.4L386.1 358.9H383.1ZM371.9 357.9L372.3 357.5L373.8 359H371.9V357.9ZM370.9 346.4L372.3 345L377 349.7L372.3 354.4L371.5 353.6L370.9 346.4ZM370.7 343.4L370.8 343.5L370.7 343.6V343.4ZM370 335L372.3 332.7L377 337.4L372.3 342.1L370.4 340.2L370 335ZM369.6 330L370.8 331.2L369.8 332.2L369.6 330ZM368.5 316.6L370.8 318.9L368.8 320.9L368.5 316.6Z" fill="#407BFF"/>
<g opacity="0.6">
<path d="M365.5 306.4L365.9 311L366.2 314.3L366.9 322.8L367.3 327.7L367.8 334.2L368 337L368.1 337.8L368.4 341.1L368.8 345.6L369 348.4L369.2 351.2L369.5 354.5L369.7 357L369.9 359.8L370 361H376H381.1H388.4H393.5H400.8H405.9H411.9L412 359.8L412.2 357L412.4 354.5L412.7 351.2L412.9 348.4L413.1 345.6L413.5 341.1L413.8 337.8L413.9 337L414.1 334.2L414.6 327.7L415 322.8L415.7 314.3L416 311L416.4 306.4H411H407.7H398.7H395.4H386.4H383H373.9H370.6H365.5ZM367.8 308.5H368.8L367.9 309.4L367.8 308.5ZM371.8 308.5H372.8L377 312.7L372.3 317.4L368.2 313.3L368.1 312.2L371.8 308.5ZM369.1 323.6L372.3 320.4L377 325.1L372.3 329.8L369.3 326.8L369.1 323.6ZM412.3 326.7L409.3 329.7L404.6 325L409.3 320.3L412.5 323.5L412.3 326.7ZM378.5 314.2L383.2 318.9L378.5 323.6L373.8 318.9L378.5 314.2ZM378.5 311.2L375.8 308.5H381.1L378.5 311.2ZM384.6 320.4L389.3 325.1L384.6 329.8L380 325L384.6 320.4ZM390.8 335.9L386.1 331.2L390.8 326.5L395.5 331.2L390.8 335.9ZM397 332.7L401.7 337.4L397 342L392.3 337.3L397 332.7ZM389.3 337.4L384.6 342.1L379.9 337.4L384.6 332.7L389.3 337.4ZM386.2 318.8L390.9 314.1L395.6 318.8L390.9 323.5L386.2 318.8ZM397 320.4L401.7 325.1L397 329.8L392.3 325.1L397 320.4ZM398.5 318.8L403.2 314.1L407.9 318.8L403.2 323.5L398.5 318.8ZM407.8 331.2L403.1 335.9L398.4 331.2L403.1 326.5L407.8 331.2ZM403.2 338.9L407.9 343.6L403.2 348.3L398.5 343.6L403.2 338.9ZM401.7 349.7L397 354.4L392.3 349.7L397 345L401.7 349.7ZM390.8 348.2L386.1 343.5L390.8 338.8L395.5 343.5L390.8 348.2ZM389.3 349.7L384.6 354.4L379.9 349.7L384.6 345L389.3 349.7ZM383.1 355.9L380.1 358.9H376.8L373.8 355.9L378.5 351.2L383.1 355.9ZM378.5 348.2L373.8 343.5L378.5 338.8L383.2 343.5L378.5 348.2ZM378.5 335.9L373.8 331.2L378.5 326.5L383.2 331.2L378.5 335.9ZM384.2 308.5H385.2L389.4 312.7L384.7 317.4L380 312.7L384.2 308.5ZM388.2 308.5H393.5L390.8 311.2L388.2 308.5ZM396.5 308.5H397.5L401.7 312.7L397 317.4L392.3 312.7L396.5 308.5ZM405.8 308.5L403.1 311.2L400.4 308.5H405.8ZM409.8 308.5L413.5 312.2L413.4 313.3L409.3 317.4L404.6 312.7L408.8 308.5H409.8ZM413.8 308.5L413.7 309.4L412.8 308.5H413.8ZM412.8 320.8L410.9 318.9L413.2 316.6L412.8 320.8ZM411.9 332.2L410.9 331.2L412.1 330L411.9 332.2ZM411.2 340.2L409.3 342.1L404.6 337.4L409.3 332.7L411.6 335L411.2 340.2ZM410.1 353.6L409.3 354.4L404.6 349.7L409.3 345L410.7 346.4L410.1 353.6ZM407.8 358.9L409.3 357.4L409.7 357.8L409.6 358.9H407.8ZM404.8 358.9H401.5L398.5 355.9L403.2 351.2L407.9 355.9L404.8 358.9ZM395.5 358.9L397 357.4L398.5 358.9H395.5ZM389.2 358.9L386.2 355.9L390.9 351.2L395.6 355.9L392.6 358.9H389.2ZM383.1 358.9L384.6 357.4L386.1 358.9H383.1ZM371.9 357.9L372.3 357.5L373.8 359H371.9V357.9ZM370.9 346.4L372.3 345L377 349.7L372.3 354.4L371.5 353.6L370.9 346.4ZM370.7 343.4L370.8 343.5L370.7 343.6V343.4ZM370 335L372.3 332.7L377 337.4L372.3 342.1L370.4 340.2L370 335ZM369.6 330L370.8 331.2L369.8 332.2L369.6 330ZM368.5 316.6L370.8 318.9L368.8 320.9L368.5 316.6Z" fill="white"/>
</g>
<path d="M417.4 310.4H364.3C363.4 310.4 362.7 309.7 362.7 308.8V306.1C362.7 305.2 363.4 304.5 364.3 304.5H417.4C418.3 304.5 419 305.2 419 306.1V308.8C419 309.7 418.3 310.4 417.4 310.4Z" fill="#407BFF"/>
<path d="M368.3 363.8H413.3C414.2 363.8 414.9 363.1 414.9 362.2V359.5C414.9 358.6 414.2 357.9 413.3 357.9H368.3C367.4 357.9 366.7 358.6 366.7 359.5V362.2C366.7 363.1 367.4 363.8 368.3 363.8Z" fill="#407BFF"/>
<path d="M213.9 68.4H180.4C174 68.4 168.9 73.6 168.9 79.9V112.4C168.9 118.8 174.1 123.9 180.4 123.9H184.9V136.1L192.6 123.9H213.8C220.2 123.9 225.3 118.7 225.3 112.4V79.9C225.4 73.5 220.3 68.4 213.9 68.4Z" fill="#3B79DE"/>
<path d="M202.7 90.8C202.7 88.4 200.6 86.7 197.2 86.7C194 86.7 191.6 87.9 190.1 90.1L185.9 87.4C188.3 84.1 192.3 82.1 197.7 82.1C204.1 82.1 208.4 85 208.4 90C208.4 97.1 200.9 97.8 200.9 102.9H195.4C195.4 96.4 202.7 95.2 202.7 90.8ZM194.7 109.9C194.7 108 196.1 106.5 198.2 106.5C200.2 106.5 201.6 108 201.6 109.9C201.6 111.8 200.2 113.3 198.2 113.3C196.2 113.3 194.7 111.7 194.7 109.9Z" fill="white"/>
<path d="M142.9 215.2C142.9 215.2 145.7 271.7 157.9 281.4H144.9C144.9 281.4 133.3 262.2 132.4 215.2H142.9Z" fill="#263238"/>
<path opacity="0.2" d="M142.9 215.2C142.9 215.2 145.7 271.7 157.9 281.4H144.9C144.9 281.4 133.3 262.2 132.4 215.2H142.9Z" fill="white"/>
<path d="M133.1 223.1H145.4C149 223.1 151.6 219.9 151.2 215.9L150.7 210.6C150.3 206.6 147.1 203.4 143.5 203.4H131.2C127.6 203.4 125 206.6 125.4 210.6L125.9 215.9C126.2 219.9 129.5 223.1 133.1 223.1Z" fill="#263238"/>
<path d="M131.2 227.5H152C158.1 227.5 162.5 222 161.8 215.2L160.9 206.2C160.2 199.4 154.7 193.9 148.6 193.9H127.8C121.7 193.9 117.3 199.4 118 206.2L118.9 215.2C119.6 222 125.1 227.5 131.2 227.5Z" fill="#263238"/>
<path opacity="0.5" d="M131.2 227.5H152C158.1 227.5 162.5 222 161.8 215.2L160.9 206.2C160.2 199.4 154.7 193.9 148.6 193.9H127.8C121.7 193.9 117.3 199.4 118 206.2L118.9 215.2C119.6 222 125.1 227.5 131.2 227.5Z" fill="white"/>
<path d="M199.9 275.6H141.4C138.9 275.6 136.9 277.6 136.9 280.1V285H204.4V280.1C204.4 277.6 202.3 275.6 199.9 275.6Z" fill="#263238"/>
<path opacity="0.5" d="M199.9 275.6H141.4C138.9 275.6 136.9 277.6 136.9 280.1V285H204.4V280.1C204.4 277.6 202.3 275.6 199.9 275.6Z" fill="white"/>
<path d="M139.2 345.6L165.2 343.3V309.1H174.3V343.2L200.4 345.5C202.7 345.7 204.5 347.7 204.5 350V353.5H170.7H169H135.2V350C135.2 347.8 136.9 345.8 139.2 345.6Z" fill="#263238"/>
<path d="M196.1 357.8C196.1 361.1 198.8 363.8 202.1 363.8C205.4 363.8 208.1 361.1 208.1 357.8C208.1 354.5 205.4 351.8 202.1 351.8C198.8 351.9 196.1 354.5 196.1 357.8Z" fill="#263238"/>
<path d="M143.6 357.8C143.6 361.1 140.9 363.8 137.6 363.8C134.3 363.8 131.6 361.1 131.6 357.8C131.6 354.5 134.3 351.8 137.6 351.8C140.9 351.8 143.6 354.5 143.6 357.8Z" fill="#263238"/>
<path d="M167.4 316.1H172.3C174.4 316.1 176 314.4 176 312.4V282.7H163.7V312.4C163.7 314.5 165.3 316.1 167.4 316.1Z" fill="#263238"/>
<path opacity="0.2" d="M167.4 316.1H172.3C174.4 316.1 176 314.4 176 312.4V282.7H163.7V312.4C163.7 314.5 165.3 316.1 167.4 316.1Z" fill="white"/>
<path d="M205.1 281.3H136.1C135.1 281.3 134.3 282.1 134.3 283.1V284.2C134.3 285.2 135.1 286 136.1 286H205.1C206.1 286 206.9 285.2 206.9 284.2V283.1C206.9 282.2 206.1 281.3 205.1 281.3Z" fill="#263238"/>
<path opacity="0.2" d="M196.1 357.8C196.1 361.1 198.8 363.8 202.1 363.8C205.4 363.8 208.1 361.1 208.1 357.8C208.1 354.5 205.4 351.8 202.1 351.8C198.8 351.9 196.1 354.5 196.1 357.8Z" fill="white"/>
<path opacity="0.2" d="M143.6 357.8C143.6 361.1 140.9 363.8 137.6 363.8C134.3 363.8 131.6 361.1 131.6 357.8C131.6 354.5 134.3 351.8 137.6 351.8C140.9 351.8 143.6 354.5 143.6 357.8Z" fill="white"/>
<path d="M146 140.6C146 140.6 147.8 135 155.1 134C162.4 133 171.4 135.4 173.2 138.5C175 141.6 173.6 144.6 176.1 145.6C178.6 146.6 182 149.1 181.4 151.6C180.7 154.1 178.3 159.2 181 160.2C183.7 161.2 185.4 165.2 184.2 167.2C183 169.2 182.6 171.7 183.9 172.4C185.3 173.1 186.9 174.5 185.8 176.6C184.7 178.7 183.6 179 185.3 180.7C187 182.5 184.1 186.4 184.1 186.4C184.1 186.4 144.8 191.1 140.1 187C135.3 182.9 138.3 179.3 139.3 178.2C140.3 177.1 137.8 177.5 137.4 173.5C137 169.5 139.5 168.8 140 166.4C140.5 164 138 161.7 139.7 159.4C141.3 157.1 141.9 155.8 140.7 153.3C139.3 150.8 139.3 140.7 146 140.6Z" fill="#263238"/>
<path d="M213.4 180.6L222.1 179.4L216.8 171.2C216.8 171.2 209 174.4 210 178.4L213.4 180.6Z" fill="#CE681D"/>
<path d="M228.8 173.9L221.9 168.5L216.7 171.3L222.1 179.4L228.8 173.9Z" fill="#CE681D"/>
<path d="M215.5 180.7C215.5 180.7 205.5 215.9 197.7 213.8C193.4 212.6 189.2 208.4 185.9 204.1C181.5 198.4 178.6 192.3 178.6 192.3V192.2L177.6 175.5C185.4 177.4 196.8 198.3 196.8 198.3L209.4 177.6L215.5 180.7Z" fill="#407BFF"/>
<path opacity="0.7" d="M176 199.3C165.4 189.4 152.1 182.6 152.1 182.6C152.9 182.5 153.7 182.4 154.5 182.4C160.6 181.9 165.6 181.5 171 181.8C172.4 181.9 173.8 182 175.1 182.1C178.6 190 176 199.3 176 199.3Z" fill="white"/>
<path d="M152.1 234.4C151.3 225.9 148.3 210.4 143.1 194.2C141.4 188.9 144.3 182.9 144.3 182.9C144.3 182.9 151.4 182.7 152.1 182.6C152.9 182.5 153.7 182.4 154.5 182.4C160.6 181.9 165.6 181.5 171 181.8C172.4 181.9 173.8 182 175.1 182.1C175.5 182.1 180.5 182.2 181 182.2C181 182.2 187.9 190.1 188.3 196.5C188.5 200.1 189.1 202.8 188.9 211.3C188.9 217.1 188.4 224.8 188.1 232.9L152.1 234.4Z" fill="#407BFF"/>
<path opacity="0.8" d="M152.1 234.4C151.3 225.9 148.3 210.4 143.1 194.2C141.4 188.9 144.3 182.9 144.3 182.9C144.3 182.9 151.4 182.7 152.1 182.6C152.9 182.5 153.7 182.4 154.5 182.4C160.6 181.9 165.6 181.5 171 181.8C172.4 181.9 173.8 182 175.1 182.1C175.5 182.1 180.5 182.2 181 182.2C181 182.2 187.9 190.1 188.3 196.5C188.5 200.1 189.1 202.8 188.9 211.3C188.9 217.1 188.4 224.8 188.1 232.9L152.1 234.4Z" fill="white"/>
<path d="M152.1 234.4L188.1 232C188.1 232 189.2 242.8 188.9 242.7C188.6 242.5 150.3 244.1 150.3 244.1L152.1 234.4Z" fill="#263238"/>
<path d="M152.5 235L188.1 233V236.4L152.1 238.3L152.5 235Z" fill="black"/>
<path d="M171.8 236.9L171.6 234.9C171.6 234.5 171.9 234.2 172.2 234.2L176.1 233.9C176.5 233.9 176.8 234.2 176.8 234.6V236.7C176.8 237.1 176.5 237.4 176.2 237.4L172.5 237.6C172.2 237.5 171.9 237.2 171.8 236.9Z" stroke="white" stroke-width="0.5804" stroke-miterlimit="10"/>
<path d="M190.3 240.4C180.7 239.4 168.3 238.7 152.1 238.3C152.1 238.3 140 266.7 154.3 275.2C158.6 277.8 165.8 278.8 173.6 278.9C182.7 279.1 190.2 271.8 190.2 262.7V240.4H190.3Z" fill="#263238"/>
<path d="M155.1 259.1L142.7 256.8L149.9 230C149.9 230 148 223.3 146 215.7C145.5 213.8 145 211.8 144.5 209.9C144 208.1 143.6 206.3 143.1 204.6C141.8 199.6 140.9 195.4 140.8 194C140.6 189.7 139.9 178.2 144 176.4C146.4 175.3 151.4 177.9 154.6 178.5C154.6 178.5 161.6 190.5 162.2 207.8C162.6 225.1 155.1 259.1 155.1 259.1Z" fill="#407BFF"/>
<path d="M166.9 178.9C166.9 178.9 178.5 180.4 183.5 205.1C185.5 215.1 190.3 257.9 190.3 257.9L193 256.5L189.2 231C189.2 231 190.6 201.4 189.5 195.4C188.4 189.3 183.1 176.2 177.6 175.4C175.3 175.1 166.9 178.9 166.9 178.9Z" fill="#407BFF"/>
<path d="M167.4 178.5L167.9 178C167.9 178 178.1 178.9 185 187.6L182.3 190.2L186.9 193.9L184.7 214.2C184.7 214.2 177.7 190.3 174.6 184.6C174.7 184.6 169.7 179.7 167.4 178.5Z" fill="#407BFF"/>
<path opacity="0.2" d="M167.4 178.5L167.9 178.1C167.9 178.1 178.1 178.9 185 187.6L182.3 190.2L186.9 193.9L184.7 214.2C184.7 214.2 177.7 190.3 174.6 184.6C174.7 184.6 169.7 179.7 167.4 178.5Z" fill="black"/>
<path d="M154.8 179.6C154.8 179.6 163.8 191.1 161.8 216.3L152.1 198.2L155.2 193.2L148 186.4C148 186.4 152.6 177.4 155.3 178.1L154.8 179.6Z" fill="#407BFF"/>
<path opacity="0.2" d="M154.8 179.6C154.8 179.6 163.8 191.1 161.8 216.3L152.1 198.2L155.2 193.2L148 186.4C148 186.4 152.6 177.4 155.3 178.1L154.8 179.6Z" fill="black"/>
<path d="M155.5 177.6C155.5 177.6 158.2 178.6 167 177.9C167 177.9 170.3 181 171.3 184.2C172.3 187.4 169 190.5 163.7 187.7C158.5 184.9 155.5 177.6 155.5 177.6Z" fill="#407BFF"/>
<path opacity="0.5" d="M155.5 177.6C155.5 177.6 158.2 178.6 167 177.9C167 177.9 170.3 181 171.3 184.2C172.3 187.4 169 190.5 163.7 187.7C158.5 184.9 155.5 177.6 155.5 177.6Z" fill="white"/>
<path d="M173.2 184.2L171.2 196.2L155.5 182.5C158.8 178.8 156.7 169.2 155.1 163.9L159.6 167.2L166.2 172.2C166 173.3 166.2 174.8 166.5 176.3C167 178.4 167.9 180.4 168.9 180.8L173.2 184.2Z" fill="#CB6922"/>
<path opacity="0.2" d="M166.5 176.1C163.9 175.5 160.4 172.8 159.8 170.1C159.6 169 159.5 167.8 159.5 167.1L166.1 172.1C166 173.2 166.1 174.7 166.5 176.1Z" fill="black"/>
<path d="M155.5 177.6C155.5 177.6 162.9 184.6 170.8 195.5C170.8 195.5 172.4 183.5 166.9 177.9L168.1 177.8C168.1 177.8 175 182.2 179.7 188.3L174.5 186.6L170.9 196.2L160.2 187.3L153 188.6C153.1 188.6 152.8 179.7 155.5 177.6Z" fill="#407BFF"/>
<path opacity="0.7" d="M155.5 177.6C155.5 177.6 162.9 184.6 170.8 195.5C170.8 195.5 172.4 183.5 166.9 177.9L168.1 177.8C168.1 177.8 175 182.2 179.7 188.3L174.5 186.6L170.9 196.2L160.2 187.3L153 188.6C153.1 188.6 152.8 179.7 155.5 177.6Z" fill="white"/>
<path d="M150.2 153.3C152.1 161.8 152.7 165.5 157.8 169.4C165.4 175.3 175.4 171.7 176 162.9C176.6 155 173.4 142.4 164.5 139.9C155.6 137.4 148.3 144.8 150.2 153.3Z" fill="#CB6922"/>
<path d="M161.2 154.3C161.3 155 161.8 155.6 162.3 155.5C162.8 155.4 163 154.8 162.9 154.1C162.8 153.4 162.3 152.8 161.8 152.9C161.3 153 161 153.6 161.2 154.3Z" fill="#263238"/>
<path d="M170.2 153.1C170.3 153.8 170.8 154.4 171.3 154.3C171.8 154.2 172 153.6 171.9 152.9C171.8 152.2 171.3 151.6 170.8 151.7C170.3 151.7 170 152.4 170.2 153.1Z" fill="#263238"/>
<path d="M170.6 151.7L172.2 151C172.2 151.1 171.5 152.5 170.6 151.7Z" fill="#263238"/>
<path d="M167.7 155C167.7 155 169.5 158 171 159.3C170.2 160.3 168.6 160.1 168.6 160.1L167.7 155Z" fill="#9F4D11"/>
<path d="M161.8 147.5C161.7 147.5 161.6 147.6 161.5 147.7C160.7 149.3 159.1 149.4 159.1 149.4C158.9 149.4 158.7 149.6 158.7 149.8C158.7 150 158.9 150.2 159.2 150.2C159.3 150.2 161.2 150.1 162.3 148.1C162.4 147.9 162.3 147.6 162.1 147.5C162 147.5 161.9 147.4 161.8 147.5Z" fill="#263238"/>
<path d="M169.8 145.5C169.7 145.5 169.6 145.5 169.5 145.6C169.3 145.7 169.3 146 169.5 146.2C171.1 148 173 147.9 173.1 147.9C173.3 147.9 173.5 147.7 173.4 147.4C173.4 147.2 173.1 147 172.9 147C172.8 147 171.3 147.1 170.1 145.7C170 145.6 169.9 145.5 169.8 145.5Z" fill="#263238"/>
<path d="M161.6 153L163.2 152.3C163.2 152.3 162.6 153.8 161.6 153Z" fill="#263238"/>
<path d="M154.5 158.2C154.5 158.2 158.7 152.1 155.5 143.1C155.5 143.1 165 138.5 172.1 145.5C172.1 145.5 165.4 133.8 151.5 139.4C137.6 145 148.1 158.4 149.8 159.5C151.6 160.6 154.5 158.2 154.5 158.2Z" fill="#263238"/>
<path d="M148.5 160.6C149.7 162.2 151.5 163.1 153.1 163.3C155.5 163.6 156.1 161.2 155.1 159C154.1 157 151.7 154.5 149.6 155.3C147.4 156 147 158.8 148.5 160.6Z" fill="#CB6922"/>
<path d="M163.2 162.1C163.2 162.1 166.5 161.5 168.6 163.8" stroke="#FF9D56" stroke-width="0.5804" stroke-miterlimit="10" stroke-linecap="round" stroke-linejoin="round"/>
<path opacity="0.2" d="M144.4 210C143.9 208.2 143.5 206.4 143 204.7C145.3 201.9 146.5 190.1 146.5 190.1C146.5 190.1 148.2 204.5 144.4 210Z" fill="black"/>
<path d="M115.1 181.6L106.4 180.4L111.7 172.2C111.7 172.2 119.5 175.6 118.5 179.6L115.1 181.6Z" fill="#CE681D"/>
<path d="M99.6 174.9L106.6 169.5L111.7 172.3L106.4 180.4L99.6 174.9Z" fill="#CE681D"/>
<path d="M113 181.7C113 181.7 123 216.9 130.8 214.8C135.1 213.6 139.3 209.4 142.6 205.1C147 199.4 147.6 193.3 147.6 193.3L143.9 176.4C139.2 177.4 131.7 199.2 131.7 199.2L119.1 178.5L113 181.7Z" fill="#407BFF"/>
<path d="M159.1 263.8V277.2C171 280.6 195.7 279.3 210.4 278.1C217 277.6 222.1 272 222.1 265.4V254.4C222.1 250.8 219.9 247.5 216.5 246.2C209.4 243.5 196.4 239.5 182.9 239.7C169.6 240 159.1 250.7 159.1 263.8Z" fill="#263238"/>
<path d="M220.8 302.4C216.5 314.1 211.5 328.8 206.1 347.2C206 347.5 205.9 347.9 205.8 348.2C205.7 348.6 205.6 348.9 205.5 349.3L200 348L197.9 347.5C197.9 347.5 198 346.7 198.2 345.2C198.2 344.9 198.3 344.6 198.3 344.2C199.8 331.3 205.5 284 211.2 274.1C211.2 274.1 204.8 275.3 199.9 274.5C196.4 273.9 192.1 249.6 192.1 249.6C192.1 249.6 201.1 247 210.3 247H210.4C210.4 247 231 250.2 234.4 255.3C238.7 261.6 232.1 272.1 220.8 302.4Z" fill="#9F4D11"/>
<path d="M213.7 363.8L200.8 358.1L196.7 353.5L195.4 355.2L193.9 354.5C193.2 348.8 196 346.1 197.4 344.9C197.5 344.8 197.7 344.7 197.8 344.6C197.9 344.6 197.9 344.5 198 344.5C198 344.5 198 344.5 198.1 344.5C198.2 344.5 198.2 344.4 198.3 344.3C198.3 344.3 198.4 344.3 198.4 344.2L205.5 347.3C205.5 347.3 205.6 347.7 205.8 348.3C206.5 350.3 208.3 354.8 210.2 357.3C210.3 357.4 210.4 357.5 210.4 357.6C210.6 357.9 210.9 358.1 211.1 358.3C216.7 362.7 213.7 363.8 213.7 363.8Z" fill="#3062B4"/>
<path d="M210.5 357.6C208.5 358.4 205.6 356.4 203.5 353.8C202.3 352.3 201.1 350 200.1 348.1C199.4 346.9 198.8 345.8 198.3 345.3C198 345 197.7 344.9 197.5 345C197.6 344.9 197.8 344.8 197.9 344.7C197.9 344.7 198 344.6 198.1 344.6C198.1 344.6 198.1 344.6 198.2 344.6C198.3 344.6 198.3 344.5 198.4 344.4C198.4 344.4 198.5 344.4 198.5 344.3C199.2 343.7 200.1 343.2 200.1 343.2L205.8 345.7C205.8 345.7 206 346.4 206.3 347.4C207 350 208.6 355 210.4 357.4C210.3 357.4 210.4 357.5 210.5 357.6Z" fill="#B45510"/>
<path d="M192.1 249.6C192.1 249.6 212.7 252.8 216.1 257.9C222 266.6 211.3 283.7 191.9 351.9L184.3 350C184.3 350 186.3 288.1 192.9 276.7C192.9 276.7 186.5 277.9 181.6 277.1C175.3 276.1 171.4 255.2 192.1 249.6Z" fill="#CE681D"/>
<path d="M183.1 363.4H184.8L185.3 361.3L190.9 363.8H205C205 363.8 207.2 361.5 200.5 359.7C200.2 359.6 199.9 359.5 199.5 359.3C195.9 357.6 190.8 351.9 190.8 351.9H183C183 351.9 182.7 352.3 182.4 353C181.6 354.8 180.1 358.4 183.1 363.4Z" fill="#3062B4"/>
<path d="M182.4 353.1C183.4 352 188.1 357 191.5 358.7C194.5 360.2 198 360.9 199.5 359.3C195.9 357.6 190.3 350.3 190.3 350.3H184C184 350.4 182.8 352.4 182.4 353.1Z" fill="#B45510"/>
<path d="M316.9 226.5V360.6C316.9 362.4 318.3 363.8 320.1 363.8H382.6C383.3 363.8 383.8 363.3 383.8 362.6V358.6C383.8 357.9 383.3 357.4 382.6 357.4H323.3V229.7H381.6C382.8 229.7 383.8 228.7 383.8 227.5V223.3H320.1C318.4 223.3 316.9 224.7 316.9 226.5Z" fill="#263238"/>
<g opacity="0.3">
<path d="M316.9 226.5V360.6C316.9 362.4 318.3 363.8 320.1 363.8H382.6C383.3 363.8 383.8 363.3 383.8 362.6V358.6C383.8 357.9 383.3 357.4 382.6 357.4H323.3V229.7H381.6C382.8 229.7 383.8 228.7 383.8 227.5V223.3H320.1C318.4 223.3 316.9 224.7 316.9 226.5Z" fill="white"/>
</g>
<path opacity="0.2" d="M316.9 226.5V260.7C319 261.2 321.2 261.8 323.3 262.3V229.8H381.6C382.8 229.8 383.8 228.8 383.8 227.6V223.4H320.1C318.4 223.3 316.9 224.7 316.9 226.5Z" fill="black"/>
<path d="M309.6 214.1L308.8 211.1H276.2L261.2 212.6L260.7 214.1H309.6Z" fill="#263238"/>
<path opacity="0.5" d="M309.6 214.1L308.8 211.1H276.2L261.2 212.6L260.7 214.1H309.6Z" fill="white"/>
<path opacity="0.2" d="M276.2 211.1V214.1H309.6L308.8 211.1H276.2Z" fill="black"/>
<path d="M287.3 191.8C287.1 193.8 288.6 195.5 290.6 195.5H354.7C356.7 195.5 358.5 193.8 358.7 191.8L362.5 150.7C362.5 150.3 362.5 149.9 362.4 149.5C362 148.1 360.8 147 359.2 147H295.1C293.1 147 291.3 148.7 291.1 150.7L287.3 191.8Z" fill="#263238"/>
<path opacity="0.5" d="M287.3 191.8C287.1 193.8 288.6 195.5 290.6 195.5H354.7C356.7 195.5 358.5 193.8 358.7 191.8L362.5 150.7C362.5 150.3 362.5 149.9 362.4 149.5C362 148.1 360.8 147 359.2 147H295.1C293.1 147 291.3 148.7 291.1 150.7L287.3 191.8Z" fill="white"/>
<path opacity="0.1" d="M290.8 195.5H354.7C356.7 195.5 358.5 193.8 358.7 191.8L362.5 150.7C362.5 150.3 362.5 149.9 362.4 149.5H298.5C296.5 149.5 294.7 151.2 294.5 153.2L290.7 194.3C290.7 194.7 290.7 195.1 290.8 195.5Z" fill="#3062B4"/>
<path d="M334.9 170.3H321.6L325.2 208.3L304.2 211.5V214.1H348.4V211.5L339.3 208.3L334.9 170.3Z" fill="#263238"/>
<path opacity="0.5" d="M334.9 170.3H321.6L325.2 208.3L304.2 211.5V214.1H348.4V211.5L339.3 208.3L334.9 170.3Z" fill="white"/>
<path opacity="0.2" d="M321.6 170.3L331.4 213.5L339.3 213.3L334.9 170.3H321.6Z" fill="white"/>
<path d="M228.8 363.8H291.3C292 363.8 292.5 363.2 292.5 362.6V358.6C292.5 357.9 291.9 357.4 291.3 357.4H232V229.7H290.3C291.5 229.7 292.5 228.7 292.5 227.5V223.3H228.8C227 223.3 225.6 224.7 225.6 226.5V360.6C225.6 362.4 227 363.8 228.8 363.8Z" fill="#263238"/>
<g opacity="0.4">
<path d="M228.8 363.8H291.3C292 363.8 292.5 363.2 292.5 362.6V358.6C292.5 357.9 291.9 357.4 291.3 357.4H232V229.7H290.3C291.5 229.7 292.5 228.7 292.5 227.5V223.3H228.8C227 223.3 225.6 224.7 225.6 226.5V360.6C225.6 362.4 227 363.8 228.8 363.8Z" fill="white"/>
</g>
<path d="M387.6 217.2V222.4C387.6 223.5 386.7 224.3 385.7 224.3H220.6C219.5 224.3 218.7 223.4 218.7 222.4V217.2H387.6Z" fill="#407BFF"/>
<path opacity="0.2" d="M218.638 220.78L387.638 220.78V217.18L218.638 217.18V220.78Z" fill="black"/>
<path d="M393.2 216.1C393.2 217.2 392.3 218.1 391.2 218.1H215.2C214.6 218.1 214.1 217.9 213.8 217.5C213.7 217.4 213.6 217.3 213.5 217.2C213.3 216.9 213.2 216.5 213.2 216.1C213.2 215 214.1 214.1 215.2 214.1H391.2C391.8 214.1 392.3 214.3 392.6 214.7C393 215.1 393.2 215.6 393.2 216.1Z" fill="#407BFF"/>
<path opacity="0.2" d="M300.6 214.7C300.2 214.3 299.7 214.1 299.2 214.1H215.2C214.1 214.1 213.2 215 213.2 216.1C213.2 216.5 213.3 216.9 213.5 217.2C213.6 217.3 213.7 217.4 213.8 217.5C214.2 217.9 214.7 218.1 215.2 218.1H218.7V222.4C218.7 223.5 219.6 224.3 220.6 224.3H293.7C294.8 224.3 295.6 223.4 295.6 222.4V218.1H299.1C299.8 218.1 300.4 217.7 300.8 217.2C301 216.9 301.1 216.5 301.1 216.1C301.2 215.6 301 215.1 300.6 214.7Z" fill="white"/>
</g>
<defs>
<clipPath id="clip0_133_3717">
<rect width="500" height="372.6" fill="white"/>
</clipPath>
</defs>
</svg>
