<svg width="536" height="350" viewBox="0 0 536 350" fill="none" xmlns="http://www.w3.org/2000/svg">
<path d="M40.6681 110.368C-45.8897 165.303 25.6077 268.813 72.1761 313.7L393.796 328.564C430.555 323.609 504.074 292.297 504.074 206.683C504.074 99.6658 394.985 154.364 328.699 76.4787C262.413 -1.40605 148.865 41.6981 40.6681 110.368Z" fill="white" fill-opacity="0.09"/>
<path d="M165.416 66.7951C85.7977 85.1278 113.428 180.803 137.195 226.35L376.941 321.225C406.047 327.117 469.741 322.969 491.67 259.246C519.081 179.591 422.461 191.875 392.214 116.631C361.967 41.3861 264.94 43.8791 165.416 66.7951Z" fill="white" fill-opacity="0.17"/>
<g clip-path="url(#clip0_133_3468)">
<g filter="url(#filter0_d_133_3468)">
<path d="M351.36 148.95V298.018H99.8992V148.95C99.8992 142.825 104.834 137.89 110.959 137.89H340.3C341.906 137.89 343.451 138.247 344.819 138.841C348.684 140.566 351.36 144.431 351.36 148.95Z" fill="#D8DCE2"/>
</g>
<path d="M355.522 148.95V298.018H104.062V148.95C104.062 142.825 108.997 137.89 115.121 137.89H344.462C346.068 137.89 347.614 138.247 348.981 138.841C352.846 140.566 355.522 144.431 355.522 148.95Z" fill="white"/>
<path d="M347.554 154.836V281.132C347.554 286.305 343.333 290.526 338.16 290.526H121.424C116.251 290.526 112.029 286.305 112.029 281.132V154.836C112.029 149.663 116.251 145.442 121.424 145.442H338.219C343.392 145.442 347.554 149.663 347.554 154.836Z" fill="#F7F7F7"/>
<path d="M347.554 146.631H269.839V291.062H347.554V146.631Z" fill="#F7F7F7"/>
<path d="M338.219 290.467H335.067C340.24 290.467 344.462 286.245 344.462 281.072V155.015C344.462 149.842 340.24 145.62 335.067 145.62H338.219C343.392 145.62 347.614 149.842 347.614 155.015V281.132C347.554 286.305 343.392 290.467 338.219 290.467Z" fill="#D8DCE2"/>
<path d="M340.538 150.317H290.709V177.075H340.538V150.317Z" fill="#EEEEEE"/>
<path d="M333.27 278.991H342.308V247.774H333.27V278.991Z" fill="#EEEEEE"/>
<path d="M327.424 278.985H333.429V252.941H327.424V278.985Z" fill="#EEEEEE"/>
<path d="M321.336 278.958H328.115V242.805H321.336V278.958Z" fill="#EEEEEE"/>
<path d="M314.532 278.948H321.31V250.525H314.532V278.948Z" fill="#EEEEEE"/>
<path d="M309.556 278.998H316.334V257.176H309.556V278.998Z" fill="#EEEEEE"/>
<path d="M302.752 278.958H309.531V242.805H302.752V278.958Z" fill="#EEEEEE"/>
<path d="M296.149 278.955H302.927V245.479H296.149V278.955Z" fill="#EEEEEE"/>
<path d="M290.671 278.952H297.449V245.298H290.671V278.952Z" fill="#EEEEEE"/>
<path d="M297.904 191.702H290.709V229.817H297.904V191.702Z" fill="#EEEEEE"/>
<path d="M303.613 197.708H297.667V229.876H303.613V197.708Z" fill="#EEEEEE"/>
<path d="M309.618 193.664H302.899V229.817H309.618V193.664Z" fill="#EEEEEE"/>
<path d="M316.337 201.394H309.618V229.817H316.337V201.394Z" fill="#EEEEEE"/>
<path d="M321.272 197.708H314.553V229.876H321.272V197.708Z" fill="#EEEEEE"/>
<path d="M327.991 193.664H321.272V229.817H327.991V193.664Z" fill="#EEEEEE"/>
<path d="M334.473 203.238H327.754V229.817H334.473V203.238Z" fill="#EEEEEE"/>
<path d="M339.824 196.162H333.105V229.817H339.824V196.162Z" fill="#EEEEEE"/>
<path d="M290.71 146.631H265.26V291.062H290.71V146.631Z" fill="white"/>
<path d="M347.673 177.61H269.779V183.734H347.673V177.61Z" fill="white"/>
<path d="M347.673 229.817H269.779V235.941H347.673V229.817Z" fill="white"/>
<path d="M347.554 154.836V157.988C347.554 152.815 343.333 148.593 338.16 148.593H121.424C116.251 148.593 112.029 152.815 112.029 157.988V154.836C112.029 149.663 116.251 145.442 121.424 145.442H338.219C343.392 145.442 347.554 149.663 347.554 154.836Z" fill="#D8DCE2"/>
<path d="M112.029 157.988V154.836C112.029 149.663 116.251 145.442 121.424 145.442H338.219C343.392 145.442 347.614 149.663 347.614 154.836V199.373" stroke="#391F31" stroke-width="0.147736" stroke-miterlimit="10"/>
<path d="M347.554 213.762V281.072C347.554 286.245 343.333 290.467 338.16 290.467H121.424C116.251 290.467 112.029 286.245 112.029 281.072V168.334" stroke="#391F31" stroke-width="0.147736" stroke-miterlimit="10"/>
<path d="M163.047 272.807H112.089V184.329C112.089 177.61 117.5 172.199 124.219 172.199H150.858C157.577 172.199 162.988 177.61 162.988 184.329L163.047 272.807Z" stroke="#391F31" stroke-width="0.147736" stroke-miterlimit="10"/>
<path d="M236.184 290.467H196.167L192.005 286.959H150.501C135.992 286.959 125.943 273.58 128.619 260.32C129.035 258.358 129.689 256.396 130.7 254.493L139.798 236.893L146.517 223.811H180.053L183.977 236.893L188.021 250.45L214.124 255.742C217.989 256.515 221.497 258.12 224.53 260.38C230.357 264.72 234.281 271.38 234.995 278.932L236.184 290.467Z" fill="#B3B3B4"/>
<path d="M224.589 260.32H128.678C129.094 258.358 129.749 256.396 130.759 254.493L139.857 236.892H183.977L188.02 250.45L214.124 255.742C218.048 256.455 221.556 258.061 224.589 260.32Z" fill="#B69B79"/>
<path d="M230.357 279.764C230.357 271.083 224.232 263.591 215.729 261.866L207.94 260.261" stroke="#39202F" stroke-opacity="0.22" stroke-width="0.590942" stroke-miterlimit="10"/>
<path d="M150.56 286.959H192.064L192.124 290.527H208.119L202.232 276.018H160.728C144.02 276.018 133.257 258.358 140.928 243.493L151.095 223.811H146.576L130.76 254.493C123.089 269.299 133.852 286.959 150.56 286.959Z" fill="#7F8187"/>
<path d="M208.059 290.467L202.172 275.959H159.895C143.246 275.959 132.722 258.001 140.927 243.433" stroke="#7D7474" stroke-width="0.590942" stroke-miterlimit="10"/>
<path d="M192.004 286.959L206.691 271.261" stroke="#AD8F69" stroke-width="0.590942" stroke-miterlimit="10"/>
<path d="M246.768 196.4V196.519C246.709 203.951 239.692 209.303 232.498 207.459L227.741 206.211L225.838 205.735L202.767 201.454L186.059 198.362L180.35 197.292L186.356 168.394L230.714 183.14L232.319 183.616L238.682 185.518C243.438 186.886 246.768 191.345 246.768 196.4Z" fill="#F0C64B"/>
<path d="M202.707 201.394L185.999 198.302L192.718 177.075C199.972 187.897 201.28 193.665 202.707 201.394Z" fill="#E2B754"/>
<path d="M168.399 196.221L194.383 184.388L194.918 241.055C195.037 245.395 192.243 249.201 188.08 250.45L166.972 251.52L168.399 196.221Z" fill="#F0C64B"/>
<path d="M184.037 207.221L185.404 249.439L175.474 215.546L184.037 207.221Z" fill="#39202F"/>
<path d="M135.22 204.07C141.76 215.665 148.479 230.53 156.863 237.309C158.945 239.033 160.907 240.46 162.631 241.531L165.247 235.882L176.783 210.611L180.172 203.238L184.81 193.07L188.437 185.102C191.886 177.551 187.962 168.869 180.291 166.372C179.815 166.193 179.28 166.075 178.805 165.956L168.399 163.815L148.242 167.561C147.885 167.621 147.469 167.68 147.112 167.799C134.922 170.475 129.095 174.518 126.895 179.275C123.149 187.54 129.571 194.14 135.22 204.07Z" fill="#BA865B"/>
<path d="M170.837 169.047L177.556 185.161L182.015 184.21L170.837 169.047Z" fill="#A76E47"/>
<path d="M166.436 161.556L187.842 197.708L193.075 189.74C196.523 182.189 192.658 171.723 186.296 168.334C184.453 167.323 166.436 161.556 166.436 161.556Z" fill="#F0C64B"/>
<path d="M136.527 252.947L188.08 250.39L177.08 211.384L139.381 204.07L136.527 252.947Z" fill="#39202F"/>
<path d="M180.172 203.238L178.567 206.686L176.783 210.611L173.929 216.914L165.248 235.882L159.956 237.606C159.956 237.606 158.766 237.547 156.864 237.368C154.961 235.822 152.761 233.325 150.501 230.352C142.771 220.184 133.793 203.773 128.739 194.854C152.701 184.448 162.572 181.178 179.518 183.734L180.172 203.238Z" fill="#39202F"/>
<path d="M187.307 207.103C185.821 211.919 181.48 215.605 173.928 216.973C172.858 217.151 171.728 217.33 170.539 217.449L173.453 206.567L179.577 183.734C186.415 191.999 189.388 200.621 187.307 207.103Z" fill="#39202F"/>
<path d="M187.307 207.103C185.821 211.919 181.48 215.606 173.929 216.973L165.247 235.941L159.955 237.666C159.955 237.666 158.766 237.606 156.863 237.428C154.961 235.882 152.76 233.384 150.501 230.411L162.928 191.821L164.534 199.135C165.485 203.357 169.112 206.449 173.453 206.568L178.567 206.805L187.307 207.103Z" fill="#2D1323"/>
<path d="M163.701 201.989L160.431 251.758L139.203 253.007L133.792 253.363C127.608 253.72 123.089 247.655 125.289 241.828L136.111 212.87L139.382 204.07L149.55 203.238L163.701 201.989Z" fill="#F0C64B"/>
<path d="M171.371 151.209L170.717 172.199L152.701 168.037L154.603 139.436L171.371 151.209Z" fill="#BA865B"/>
<path d="M163.701 201.989C163.285 208.589 161.025 214.297 156.804 219.292C156.506 219.649 156.209 220.006 155.852 220.362C153.89 222.444 151.631 224.465 148.955 226.309C148.122 226.903 147.29 227.438 146.398 228.033C146.398 228.033 141.344 221.433 136.052 212.811C132.841 207.578 129.571 201.573 127.37 195.865C125.527 191.227 124.397 186.767 124.516 183.021C124.933 172.913 139.322 169.88 139.322 169.88L140.095 169.464L140.868 169.048L153.058 162.566L152.82 165.777C160.609 180.167 164.296 192.059 163.701 201.989Z" fill="#F0C64B"/>
<path d="M139.203 253.066L133.792 253.423C127.608 253.779 123.089 247.714 125.289 241.887L136.111 212.87C132.9 207.638 129.63 201.632 127.43 195.924L128.084 193.248C128.322 190.989 129.333 188.967 130.76 187.48C132.246 185.934 134.208 184.864 136.408 184.507C141.522 183.734 143.603 185.399 145.744 190.037C158.349 217.389 150.501 235.228 139.203 253.066Z" fill="#E2B754"/>
<path d="M171.134 159.534L170.955 165.183C163.285 161.496 161.085 156.145 161.085 156.145L171.134 159.534Z" fill="#A76E47"/>
<path d="M157.041 154.777C157.041 154.777 169.885 159.534 174.344 160.664C179.101 161.853 183.68 158.761 185.285 154.004C187.485 147.582 187.723 140.566 185.701 132.955C184.512 128.436 181.836 124.69 178.269 122.014C176.663 120.825 174.939 119.873 173.036 119.16L171.966 118.803L171.847 118.744C171.312 118.565 170.777 118.446 170.182 118.327C168.874 118.03 167.506 117.911 166.139 117.911C164.83 117.911 163.522 118.089 162.393 118.506C157.457 120.171 154.068 125.165 154.722 130.755L155.317 135.512L157.041 154.777Z" fill="#BA865B"/>
<path d="M138.252 134.382C138.192 136.641 140.035 141.814 141.165 143.479L141.998 139.436C141.998 139.436 141.998 143.182 143.365 145.739C143.365 145.739 151.809 150.02 153.474 156.145C154.247 152.993 156.625 149.842 159.241 141.398L164.95 119.16C147.171 113.689 138.668 122.906 138.252 134.382Z" fill="#2D2D23"/>
<path d="M154.96 145.739C161.62 145.085 165.128 133.609 159.895 125.046C159.895 125.046 154.663 115.176 147.408 121.954C131.532 136.641 154.96 145.739 154.96 145.739Z" fill="#2D2D23"/>
<path d="M161.084 145.561C152.403 124.155 135.397 147.107 156.922 151.328L161.084 145.561Z" fill="#BA865B"/>
<path d="M155.377 148.474C157.993 149.009 159.658 151.507 159.123 154.123C158.588 156.739 156.09 158.404 153.474 157.869C150.858 157.334 149.193 154.836 149.728 152.22C149.966 151.15 150.501 150.198 151.333 149.544" stroke="#F0C64B" stroke-width="0.295471" stroke-miterlimit="10"/>
<path d="M170.658 141.22C170.837 143.004 170.361 144.49 169.528 144.55C168.755 144.609 167.923 143.301 167.745 141.517C167.566 139.733 168.042 138.247 168.874 138.187C169.647 138.128 170.48 139.496 170.658 141.22Z" fill="#2D2D23"/>
<path d="M165.782 133.133C169.172 131.468 170.242 133.192 167.804 134.857C165.247 136.641 161.561 135.214 165.782 133.133Z" fill="#2D2D23"/>
<path d="M183.442 139.733C183.561 141.517 183.026 142.944 182.253 143.063C181.42 143.123 180.707 141.755 180.528 139.971C180.409 138.187 180.944 136.76 181.717 136.641C182.55 136.582 183.263 137.949 183.442 139.733Z" fill="#2D2D23"/>
<path d="M182.847 128.911C186.593 128.555 186.95 130.576 184.156 131.23C181.064 132.003 178.15 129.328 182.847 128.911Z" fill="#2D2D23"/>
<path d="M177.496 136.403C178.745 139.555 180.41 141.517 181.956 143.241C184.334 145.977 181.896 150.139 178.329 149.366L177.377 149.188" fill="#BA865B"/>
<path d="M177.496 136.403C178.745 139.555 180.41 141.517 181.956 143.241C184.334 145.977 181.896 150.139 178.329 149.366L177.377 149.188" stroke="#A76E47" stroke-width="0.590942" stroke-miterlimit="10"/>
<path d="M179.221 152.042C174.166 151.328 173.691 151.328 172.561 151.209C170.896 151.09 173.929 156.204 176.783 155.372C179.518 154.539 180.945 152.28 179.221 152.042Z" fill="white"/>
<path d="M158.469 117.792C183.502 102.927 196.048 127.127 174.345 130.517L177.14 123.679C177.14 123.679 171.372 132.955 160.49 132.42L158.469 117.792Z" fill="#2D2D23"/>
<path d="M143.9 225.179L187.604 247.061C187.604 247.061 158.29 255.801 133.257 245.871L143.9 225.179Z" fill="#BA865B"/>
<path d="M144.376 224.049C144.138 224.881 143.9 225.654 143.663 226.487C141.462 233.325 138.073 239.925 133.316 245.871C133.316 245.871 130.046 245.217 127.132 242.541C126.895 242.363 126.716 242.125 126.478 241.887C124.159 239.449 122.316 235.525 122.97 229.4C124.278 217.865 124.516 183.08 124.516 183.08C124.754 180.821 125.765 178.858 127.251 177.312C128.738 175.766 130.7 174.696 132.9 174.339C137.954 173.566 142.89 176.718 144.079 181.713C147.468 195.626 148.122 210.373 144.376 224.049Z" fill="#F0C64B"/>
<path d="M181.955 205.735H228.216C230.832 205.735 232.794 208.232 232.14 210.789L224.232 242.422C223.756 244.206 222.151 245.514 220.307 245.514H174.047C171.431 245.514 169.468 243.017 170.122 240.46L178.031 208.827C178.506 207.043 180.112 205.735 181.955 205.735Z" fill="#274F92"/>
<path d="M185.047 205.735H231.307C233.924 205.735 235.886 208.232 235.232 210.789L227.383 242.423C226.907 244.206 225.302 245.515 223.459 245.515H177.198C174.582 245.515 172.619 243.017 173.273 240.46L181.182 208.827C181.598 207.043 183.203 205.735 185.047 205.735Z" stroke="#E0E0E0" stroke-width="0.738678" stroke-miterlimit="10"/>
<path d="M183.977 224.108H227.026L232.913 245.514H189.923L183.977 224.108Z" fill="white"/>
<path d="M189.923 245.514L183.977 224.108H227.026L230.653 237.368" stroke="#391F31" stroke-width="0.147736" stroke-miterlimit="10"/>
<path d="M225.719 190.691L241.833 150.02L248.314 149.842C248.314 149.842 250.811 171.902 244.984 196.756C243.616 202.584 237.551 205.973 231.903 204.07C226.432 202.227 223.578 196.102 225.719 190.691Z" fill="#BA865B"/>
<path d="M241.238 152.28L244.152 143.301L255.271 148.474C255.806 157.512 247.719 160.069 247.719 160.069L241.238 152.28Z" fill="#BA865B"/>
<path d="M245.46 140.209L251.109 143.598L254.736 136.285L259.612 131.587C260.087 131.112 260.266 130.398 260.028 129.803C259.612 128.793 258.363 128.436 257.531 129.09L251.406 133.787L245.46 140.209Z" fill="#BA865B"/>
<path d="M249.8 135.69L254.616 135.987C255.33 135.452 256.281 135.452 256.995 135.987L258.006 136.82C258.719 137.414 258.898 138.366 258.481 139.139L258.303 139.555L259.373 141.815C259.671 142.469 259.492 143.242 258.957 143.717L259.195 144.669C259.433 145.679 259.076 146.75 258.363 147.463L256.698 149.128C255.865 149.961 254.557 150.08 253.546 149.426L244.151 143.301L249.8 135.69Z" fill="#BA865B"/>
<path d="M258.957 143.777C259.374 143.479 259.552 143.004 259.552 142.528L252.476 148.831L253.546 149.545C253.665 149.604 253.725 149.663 253.844 149.723L259.076 144.49L258.957 143.777Z" fill="#A76E47"/>
<path d="M258.719 140.447L258.303 139.615L258.481 139.198C258.719 138.782 258.719 138.306 258.6 137.831L250.573 147.582L251.405 148.117L258.719 140.447Z" fill="#A76E47"/>
<path d="M247.897 137.95L249.443 145.144L253.844 137.058L248.016 137.771L247.897 137.95Z" fill="#A76E47"/>
<path d="M242.249 152.755L244.686 139.495L251.287 137.236C252.357 136.939 253.368 137.652 253.546 138.722C253.665 139.436 253.308 140.15 252.654 140.506L249.265 142.409C249.265 142.409 255.449 150.198 246.649 156.085L242.249 152.755Z" fill="#A76E47"/>
<path d="M241.238 152.28L243.973 138.722L250.454 136.522C251.525 136.166 252.655 136.82 252.773 137.95C252.892 138.663 252.536 139.377 251.882 139.733L247.66 142.171C247.66 142.171 254.022 150.971 246.233 156.382L241.238 152.28Z" fill="#BA865B"/>
<path d="M253.903 252.055H245.995L235.708 290.467H237.908L253.903 252.055Z" fill="#BDBDBD" stroke="#391F31" stroke-width="0.147736" stroke-miterlimit="10"/>
<path d="M111.316 253.899H259.79V245.515H111.316" fill="#E0E0E0"/>
<path d="M111.316 253.899H259.79V245.515H111.316" stroke="#391F31" stroke-width="0.147736" stroke-miterlimit="10"/>
<path opacity="0.7" d="M338.1 290.467H121.484C116.251 290.467 112.029 286.245 112.029 281.013V272.807H347.554V281.013C347.554 286.245 343.333 290.467 338.1 290.467Z" fill="#276196"/>
<path d="M128.381 282.202L122.316 286.067C121.9 286.364 121.305 286.007 121.305 285.532V277.742C121.305 277.207 121.9 276.91 122.316 277.207L128.381 281.072C128.797 281.31 128.797 281.964 128.381 282.202Z" fill="#FFFFFD"/>
<path d="M185.939 281.607H337.802" stroke="#FFFFFD" stroke-width="1.18188" stroke-miterlimit="10" stroke-linecap="round" stroke-linejoin="round"/>
<path d="M133.851 281.607H199.556" stroke="#FFB73E" stroke-width="1.18188" stroke-miterlimit="10" stroke-linecap="round" stroke-linejoin="round"/>
<path d="M205.028 281.607C205.028 284.655 202.544 287.139 199.496 287.139C196.449 287.139 193.965 284.655 193.965 281.607C193.965 278.56 196.447 276.077 199.494 276.076C202.605 276.133 205.028 278.621 205.028 281.607Z" fill="#FFB73E" stroke="#FFB73E" stroke-width="0.590942"/>
<path d="M202.41 281.607C202.41 283.213 201.102 284.462 199.556 284.462C197.951 284.462 196.702 283.153 196.702 281.607C196.702 280.002 198.01 278.753 199.556 278.753C201.102 278.753 202.41 280.061 202.41 281.607Z" fill="#FFFFFD"/>
<path d="M367.058 294.808H84.0828V302.419H367.058V294.808Z" fill="white"/>
<path d="M358.555 296.532V301.527C358.555 306.878 354.214 311.219 348.863 311.219H93.7752C88.4237 311.219 84.083 306.878 84.083 301.527V296.532H187.01V298.019C187.01 300.397 188.972 302.359 191.351 302.359H251.287C253.666 302.359 255.628 300.397 255.628 298.019V296.532H358.555Z" fill="#CBD0D8"/>
<path d="M367.058 296.532V301.527C367.058 306.878 362.717 311.219 357.366 311.219H102.278C96.9263 311.219 92.5857 306.878 92.5857 301.527V296.532H195.513V298.019C195.513 300.397 197.475 302.359 199.853 302.359H259.79C262.169 302.359 264.131 300.397 264.131 298.019V296.532H367.058Z" fill="#D8DCE2"/>
</g>
<g clip-path="url(#clip1_133_3468)">
<path opacity="0.3" d="M72.7152 151.589H22.2923C19.3787 151.589 17.0002 153.968 17.0002 156.881V172.579C17.0002 175.493 19.3787 177.871 22.2923 177.871H54.0445L68.6124 184.768L65.8772 177.871H72.7152C75.6288 177.871 78.0072 175.493 78.0072 172.579V156.881C78.0072 153.968 75.6288 151.589 72.7152 151.589Z" fill="#D8DCE2"/>
<path opacity="0.8" d="M78.3038 146H27.8809C24.9673 146 22.5889 148.378 22.5889 151.292V166.99C22.5889 169.903 24.9673 172.282 27.8809 172.282H59.6331L74.201 179.179L71.4658 172.282H78.3038C81.2174 172.282 83.5959 169.903 83.5959 166.99V151.292C83.5959 148.378 81.2174 146 78.3038 146Z" fill="white"/>
<path d="M41.0225 153.671H28.6546C27.941 153.671 27.3464 154.265 27.3464 154.979C27.3464 155.692 27.941 156.287 28.6546 156.287H41.0819C41.7955 156.287 42.3901 155.692 42.3901 154.979C42.3901 154.265 41.7955 153.671 41.0225 153.671Z" fill="white"/>
<path d="M75.6285 153.671H47.0872C46.3737 153.671 45.7791 154.265 45.7791 154.979C45.7791 155.692 46.3737 156.287 47.0872 156.287H75.6285C76.342 156.287 76.9366 155.692 76.9366 154.979C76.9961 154.265 76.4015 153.671 75.6285 153.671Z" fill="white"/>
<path d="M69.0879 164.017H75.6286C76.3422 164.017 76.9368 163.422 76.9368 162.709C76.9368 161.995 76.3422 161.401 75.6286 161.401H69.0879C68.3744 161.401 67.7798 161.995 67.7798 162.709C67.7798 163.422 68.3744 164.017 69.0879 164.017Z" fill="white"/>
<path d="M28.6545 164.017H63.023C63.7365 164.017 64.3311 163.422 64.3311 162.709C64.3311 161.995 63.7365 161.4 63.023 161.4H28.6545C27.941 161.4 27.3464 161.995 27.3464 162.709C27.2869 163.422 27.8815 164.017 28.6545 164.017Z" fill="white"/>
</g>
<g clip-path="url(#clip2_133_3468)">
<path d="M129.808 312.23C-24.6119 310.981 45.0169 339.047 137.479 343.269C187.604 346.599 484.137 342.258 458.925 317.641C456.428 315.203 452.147 313.836 447.568 313.776C405.47 313.181 151.452 312.944 129.808 312.23Z" fill="#F9F9F9" fill-opacity="0.37"/>
</g>
<g clip-path="url(#clip3_133_3468)">
<path d="M85.6567 281.845H48.0218C42.9914 281.845 38.8926 277.721 38.8926 272.659V252.976C38.8926 247.914 42.9914 243.79 48.0218 243.79H85.7498C90.6871 243.79 94.7859 247.914 94.7859 252.976V272.753C94.7859 277.721 90.6871 281.845 85.6567 281.845Z" fill="#3062B4"/>
<path d="M60.877 262.818V255.882L66.8389 259.35L72.8009 262.818L66.8389 266.286L60.877 269.754V262.818Z" fill="white"/>
</g>
<g clip-path="url(#clip4_133_3468)">
<path d="M132.828 81.791C135.374 81.791 137.425 83.771 137.425 86.246V86.9531C138.344 89.5696 138.91 92.8932 138.91 96.641C138.91 100.389 138.344 103.712 137.425 106.329V107.036C137.425 109.511 135.374 111.491 132.828 111.491C129.505 111.491 126.747 104.844 126.747 96.7117C126.818 88.3674 129.505 81.791 132.828 81.791Z" fill="#FFCC36"/>
<path d="M128.869 96.7826C128.869 101.803 129.222 105.834 129.717 105.834C130.212 105.834 130.566 101.803 130.566 96.7826C130.566 91.7619 130.212 87.7311 129.717 87.7311C129.222 87.7311 128.869 91.7619 128.869 96.7826Z" fill="#D8A32B"/>
<path d="M143.859 89.8525V90.4182V103.005V103.642C143.577 107.036 140.395 110.218 136.223 111.35V103.076V90.4182V82.1446C140.395 83.276 143.577 86.4582 143.859 89.8525Z" fill="#DADADA"/>
<path d="M136.222 112.976C136.929 112.976 137.495 112.41 137.495 111.774V81.7909C137.495 81.1545 136.929 80.5888 136.222 80.5888C135.515 80.5888 134.949 81.1545 134.949 81.7909V111.774C134.949 112.41 135.515 112.976 136.222 112.976Z" fill="#2525AD"/>
<path d="M108.999 81.7909C106.454 81.7909 104.403 83.7709 104.403 86.2459V86.9531C103.484 89.5695 102.918 92.8931 102.918 96.641C102.918 100.389 103.484 103.712 104.403 106.329V107.036C104.403 109.511 106.454 111.491 108.999 111.491C112.323 111.491 115.08 104.844 115.08 96.7117C115.08 88.3674 112.393 81.7909 108.999 81.7909Z" fill="#FFCC36"/>
<path d="M113.029 96.7825C113.029 101.803 112.676 105.834 112.181 105.834C111.686 105.834 111.332 101.803 111.332 96.7825C111.332 91.7618 111.686 87.7311 112.181 87.7311C112.676 87.7311 113.029 91.7618 113.029 96.7825Z" fill="#D8A32B"/>
<path d="M98.0386 89.8524V90.4181V103.005V103.642C98.3214 107.036 101.503 110.218 105.675 111.35V103.076V90.4181V82.1445C101.503 83.276 98.3214 86.4581 98.0386 89.8524Z" fill="#DADADA"/>
<path d="M105.675 112.976C104.968 112.976 104.403 112.41 104.403 111.774V81.7908C104.403 81.1544 104.968 80.5887 105.675 80.5887C106.382 80.5887 106.948 81.1544 106.948 81.7908V111.774C106.948 112.41 106.382 112.976 105.675 112.976Z" fill="#2525AD"/>
<path d="M136.293 63.5465C133.818 61.4958 130.566 60.223 127.455 59.4451C124.273 58.5965 120.949 58.4551 117.767 58.8087C116.777 58.9501 115.787 59.0915 114.868 59.3037C114.232 59.4451 113.454 59.5865 112.888 59.8694C112.252 60.1523 111.615 60.5058 110.979 60.8594C109.282 61.708 107.514 62.5565 105.817 63.4758C105.11 63.8294 105.181 64.8194 105.817 65.173C107.373 66.163 109.211 66.2337 111.05 65.9508C112.323 65.7387 113.454 65.3144 114.656 64.8901C116.777 64.1123 119.111 63.7587 121.444 63.7587C123.495 63.7587 125.545 64.0415 127.384 64.8194C130.142 66.0216 133.465 66.7994 136.223 65.1023C136.647 64.7487 136.859 63.9001 136.293 63.5465Z" fill="#7B70EE"/>
<path d="M121.373 57.6772C121.232 57.6772 121.09 57.6772 120.949 57.6772C120.808 57.6772 120.666 57.6772 120.525 57.6772C106.241 58.1722 94.7861 69.8401 94.7861 84.2659V100.389C94.7861 102.227 96.2711 103.642 98.0388 103.642V87.7309L97.9681 87.3066C96.9074 80.8716 98.2509 74.1537 102.211 68.9208C104.049 66.4458 106.524 64.1829 109.918 62.4858C109.989 62.4858 109.989 62.4151 110.06 62.4151C116.918 59.0915 125.05 59.0915 131.909 62.4151C131.98 62.4151 131.98 62.4858 132.051 62.4858C135.445 64.1829 137.919 66.4458 139.758 68.9208C143.647 74.1537 145.061 80.8716 144.001 87.3066L143.93 87.7309V103.642C145.698 103.642 147.183 102.157 147.183 100.389V84.2659C147.112 69.8401 135.657 58.1722 121.373 57.6772Z" fill="white"/>
</g>
<g clip-path="url(#clip5_133_3468)">
<path d="M408.978 231.006C408.502 245.812 403.21 238.736 405.351 228.568C397.68 224.287 387.453 223.276 377.404 228.568C369.317 232.909 366.523 239.806 367.236 246.823C380.853 243.374 386.026 251.52 367.831 250.093C371.755 265.315 391.437 279.05 409.513 264.423C422.773 253.78 419.383 239.093 408.978 231.006ZM392.864 253.898C385.966 257.347 384.48 251.996 390.723 249.974C395.183 248.487 399.761 250.45 392.864 253.898Z" fill="#C9FCBC" fill-opacity="0.4"/>
<path d="M419.026 300.397C411.95 248.428 377.404 228.568 377.404 228.568" stroke="#C3DED7" stroke-width="0.590942" stroke-miterlimit="10"/>
<path d="M437.875 260.439L422.713 290.764H418.848C419.442 289.971 421.048 287.018 422.713 281.548C424.378 276.077 433.515 265.196 437.875 260.439Z" fill="#CBC0C0"/>
<path d="M418.253 290.764H418.848M418.848 290.764H422.713L437.875 260.439C433.515 265.196 424.378 276.077 422.713 281.548C421.048 287.018 419.442 289.971 418.848 290.764Z" stroke="#C8C8C8" stroke-width="0.590942"/>
<path d="M424.555 247.358L419.302 291.792L414.313 293.732C414.706 292.471 415.384 288.079 414.95 280.601C414.516 273.122 421.173 255.323 424.555 247.358Z" fill="#F2F2F2"/>
<path d="M413.545 294.03L414.313 293.732M414.313 293.732L419.302 291.792L424.555 247.358C421.173 255.323 414.516 273.122 414.95 280.601C415.384 288.079 414.706 292.471 414.313 293.732Z" stroke="#E9E1E1" stroke-width="0.590942"/>
<path d="M434.486 328.344H403.566C398.571 328.344 394.528 324.3 394.528 319.305V290.824H443.524V319.305C443.524 324.3 439.481 328.344 434.486 328.344Z" fill="#EBCE8B"/>
<path d="M394.528 297.84C398.631 297.84 398.631 303.013 402.674 303.013C406.777 303.013 406.777 297.84 410.82 297.84C414.923 297.84 414.923 303.013 418.967 303.013C423.069 303.013 423.069 297.84 427.113 297.84C431.216 297.84 431.216 303.013 435.259 303.013C439.362 303.013 439.362 297.84 443.405 297.84" stroke="#FFFFFD" stroke-width="1.18188" stroke-miterlimit="10"/>
</g>
<g clip-path="url(#clip6_133_3468)">
<path d="M388.419 313.457H313.603V328.225H388.419V313.457Z" fill="#F0C64B"/>
<path d="M320.776 313.457H317.781V328.225H320.776V313.457Z" fill="#D8A32B"/>
<path d="M325.349 313.457H322.353V328.225H325.349V313.457Z" fill="#D8A32B"/>
<path d="M379.668 313.457H376.672V328.225H379.668V313.457Z" fill="#D8A32B"/>
<path d="M384.161 313.457H381.166V328.225H384.161V313.457Z" fill="#D8A32B"/>
<path d="M395.593 305.244V302.954C395.593 299.716 392.992 297.11 389.759 297.11H323.063V311.088H389.681C392.913 311.088 395.593 308.403 395.593 305.244Z" fill="white"/>
<path d="M389.759 294.583H322.669V295.846V297.11H389.759C392.991 297.11 395.593 299.716 395.593 302.954V305.244C395.593 308.482 392.991 311.088 389.759 311.088H322.669V312.351V313.615H389.759C394.332 313.615 398.037 309.903 398.037 305.323V302.954C398.037 298.373 394.332 294.583 389.759 294.583Z" fill="#274F92"/>
<path d="M391.021 300.19H323.063V301.295H391.021V300.19Z" fill="#F5F5FF"/>
<path d="M391.021 303.585H323.063V304.691H391.021V303.585Z" fill="#F5F5FF"/>
<path d="M391.021 306.981H323.063V308.087H391.021V306.981Z" fill="#F5F5FF"/>
<path d="M317.387 287.238V285.185C317.387 282.263 319.752 279.894 322.669 279.894H382.664V292.45H322.669C319.752 292.529 317.387 290.16 317.387 287.238Z" fill="white"/>
<path d="M322.669 277.683H383.058V278.788V279.894H322.669C319.752 279.894 317.387 282.263 317.387 285.185V287.238C317.387 290.16 319.752 292.529 322.669 292.529H383.058V293.635V294.741H322.669C318.569 294.741 315.179 291.345 315.179 287.238V285.185C315.179 281.079 318.491 277.683 322.669 277.683Z" fill="#F0C64B"/>
<path d="M321.439 283.704H382.616V282.678H321.439V283.704Z" fill="#F5F5FF"/>
<path d="M321.439 286.774H382.616V285.747H321.439V286.774Z" fill="#F5F5FF"/>
<path d="M321.439 289.764H382.616V288.737H321.439V289.764Z" fill="#F5F5FF"/>
</g>
<rect x="270" y="41.7942" width="174" height="84.1439" rx="6.36876" fill="white"/>
<circle cx="300.326" cy="77.3855" r="20.4318" fill="#D1E4FF"/>
<path d="M320.758 77.3855C320.758 81.6964 319.395 85.8969 316.863 89.3859C314.331 92.8749 310.76 95.4737 306.662 96.8104C302.563 98.147 298.147 98.1531 294.045 96.8277C289.943 95.5024 286.365 92.9135 283.823 89.4314C281.282 85.9494 279.906 81.7527 279.895 77.4418C279.883 73.1309 281.235 68.9267 283.757 65.4307C286.279 61.9347 289.843 59.3261 293.938 57.9782C298.032 56.6302 302.449 56.612 306.554 57.9261L300.326 77.3855H320.758Z" fill="#00FF57"/>
<path d="M320.758 77.3855C320.758 81.6964 319.395 85.8969 316.863 89.3859C314.331 92.8749 310.76 95.4737 306.662 96.8104C302.563 98.147 298.147 98.1531 294.045 96.8277C289.943 95.5024 286.365 92.9135 283.823 89.4314C281.282 85.9494 279.906 81.7527 279.895 77.4418C279.883 73.1309 281.235 68.9267 283.757 65.4307C286.279 61.9347 289.843 59.3261 293.938 57.9782C298.032 56.6302 302.449 56.612 306.554 57.9261L300.326 77.3855H320.758Z" fill="#81C2FF"/>
<path d="M320.758 77.3855C320.758 81.156 319.715 84.853 317.744 88.0672L300.326 77.3855H320.758Z" fill="#BAAFFB"/>
<path d="M320.758 77.3855C320.758 79.3238 320.482 81.2522 319.939 83.1128L300.326 77.3855H320.758Z" fill="#7F91F0"/>
<rect x="279.895" y="103.09" width="50.9697" height="1.31818" fill="#DEEAFF"/>
<rect x="279.895" y="107.309" width="44.3788" height="1.31818" fill="#DEEAFF"/>
<rect x="279.895" y="111.038" width="37.7879" height="1.31818" fill="#DEEAFF"/>
<g filter="url(#filter1_f_133_3468)">
<path d="M343.603 113.925C343.603 113.925 346.036 90.1617 357.444 86.7927C367.988 83.6787 364.309 106.588 374.47 102.391C385.338 97.9024 380.643 68.0813 391.607 63.8343C400.818 60.2664 414.173 86.9721 423.573 83.9366C432.552 81.0368 432.141 58.7813 432.141 58.7813" stroke="#1E6AD6" stroke-opacity="0.12" stroke-width="0.636876"/>
<path d="M353.38 113.706C353.38 113.706 355.813 89.942 367.221 86.573C377.765 83.4591 382.434 102.963 392.596 98.7662C403.463 94.2775 389.321 73.9033 400.285 69.6563C409.496 66.0884 414.393 82.0289 423.793 78.9934C432.772 76.0937 437.524 59.1109 437.524 59.1109" stroke="#FF7C0D" stroke-opacity="0.12" stroke-width="0.636876"/>
</g>
<path d="M341.739 111.439C341.739 111.439 344.172 87.6759 355.58 84.3069C366.124 81.1929 362.445 104.102 372.606 99.9054C383.474 95.4167 378.778 65.5955 389.743 61.3485C398.954 57.7806 412.309 84.4863 421.708 81.4508C430.688 78.551 430.277 56.2955 430.277 56.2955" stroke="#1E6AD6" stroke-width="0.636876"/>
<path d="M351.515 111.22C351.515 111.22 353.948 87.4562 365.356 84.0871C375.9 80.9732 380.57 100.477 390.731 96.2803C401.599 91.7916 387.456 71.4175 398.421 67.1705C407.632 63.6026 412.528 79.5431 421.928 76.5076C430.908 73.6078 435.659 56.625 435.659 56.625" stroke="#FF7C0D" stroke-width="0.636876"/>
<defs>
<filter id="filter0_d_133_3468" x="93.3988" y="127.844" width="276.28" height="184.948" filterUnits="userSpaceOnUse" color-interpolation-filters="sRGB">
<feFlood flood-opacity="0" result="BackgroundImageFix"/>
<feColorMatrix in="SourceAlpha" type="matrix" values="0 0 0 0 0 0 0 0 0 0 0 0 0 0 0 0 0 0 127 0" result="hardAlpha"/>
<feOffset dx="5.90942" dy="2.36377"/>
<feGaussianBlur stdDeviation="6.20489"/>
<feComposite in2="hardAlpha" operator="out"/>
<feColorMatrix type="matrix" values="0 0 0 0 0 0 0 0 0 0 0 0 0 0 0 0 0 0 0.3 0"/>
<feBlend mode="normal" in2="BackgroundImageFix" result="effect1_dropShadow_133_3468"/>
<feBlend mode="normal" in="SourceGraphic" in2="effect1_dropShadow_133_3468" result="shape"/>
</filter>
<filter id="filter1_f_133_3468" x="340.102" y="55.5913" width="100.912" height="61.5506" filterUnits="userSpaceOnUse" color-interpolation-filters="sRGB">
<feFlood flood-opacity="0" result="BackgroundImageFix"/>
<feBlend mode="normal" in="SourceGraphic" in2="BackgroundImageFix" result="shape"/>
<feGaussianBlur stdDeviation="1.59219" result="effect1_foregroundBlur_133_3468"/>
</filter>
<clipPath id="clip0_133_3468">
<rect width="282.975" height="198.243" fill="white" transform="translate(84.0823 112.976)"/>
</clipPath>
<clipPath id="clip1_133_3468">
<rect width="66.5963" height="38.828" fill="white" transform="translate(17 146)"/>
</clipPath>
<clipPath id="clip2_133_3468">
<rect width="421.579" height="32.0495" fill="white" transform="translate(38.8926 312.17)"/>
</clipPath>
<clipPath id="clip3_133_3468">
<rect width="55.8934" height="38.0551" fill="white" transform="translate(38.8926 243.79)"/>
</clipPath>
<clipPath id="clip4_133_3468">
<rect width="52.3257" height="55.2987" fill="white" transform="translate(94.7859 57.6772)"/>
</clipPath>
<clipPath id="clip5_133_3468">
<rect width="103.343" height="131.528" fill="white" transform="translate(367.117 196.816)"/>
</clipPath>
<clipPath id="clip6_133_3468">
<rect width="84.4346" height="50.5419" fill="white" transform="translate(313.603 277.683)"/>
</clipPath>
</defs>
</svg>
