<svg width="100" height="100" viewBox="0 0 100 100" fill="none" xmlns="http://www.w3.org/2000/svg">
<path d="M50.335 18C31.9563 18 17 32.9563 17 51.335C17 69.7137 31.9563 84.67 50.335 84.67C68.7137 84.67 83.67 69.7137 83.67 51.335C83.67 32.9563 68.7137 18 50.335 18ZM50.335 81.7069C33.586 81.7069 19.9631 68.084 19.9631 51.335C19.9631 34.586 33.586 20.9631 50.335 20.9631C67.084 20.9631 80.7069 34.586 80.7069 51.335C80.7069 68.084 67.084 81.7069 50.335 81.7069ZM63.2319 40.5271L52.4314 51.335L63.2393 62.1429C63.8172 62.7207 63.8172 63.6615 63.2393 64.2393C62.943 64.5208 62.5652 64.669 62.1874 64.669C61.8096 64.669 61.4318 64.5208 61.1429 64.2319L50.335 53.4314L39.5271 64.2319C39.2381 64.5208 38.8604 64.669 38.4826 64.669C38.1048 64.669 37.727 64.5208 37.4381 64.2319C36.8603 63.6541 36.8603 62.7133 37.4381 62.1355L48.2386 51.335L37.4381 40.5271C36.8603 39.9492 36.8603 39.0085 37.4381 38.4307C38.0159 37.8528 38.9566 37.8528 39.5345 38.4307L50.335 49.2386L61.1429 38.4307C61.7207 37.8528 62.6615 37.8528 63.2393 38.4307C63.8172 39.0159 63.8172 39.9492 63.2319 40.5271Z" fill="#DD4F4F"/>
<path d="M89.7149 87.4487H63.2506C71.6286 84.3404 78.6473 78.3859 83.0793 70.6264C87.5113 62.8669 89.0745 53.7964 87.4955 45.0009C85.9165 36.2055 81.2959 28.2451 74.4416 22.5118C67.5874 16.7784 58.9357 13.6371 49.9997 13.6371C41.0637 13.6371 32.4121 16.7784 25.5578 22.5118C18.7035 28.2451 14.0829 36.2055 12.5039 45.0009C10.9249 53.7964 12.4881 62.8669 16.9201 70.6264C21.3521 78.3859 28.3708 84.3404 36.7488 87.4487H10.2845C10.1152 87.4266 9.94306 87.4408 9.77965 87.4905C9.61624 87.5402 9.46531 87.6242 9.33695 87.7369C9.20859 87.8496 9.10575 87.9884 9.0353 88.144C8.96485 88.2995 8.92841 88.4684 8.92841 88.6392C8.92841 88.81 8.96485 88.9788 9.0353 89.1344C9.10575 89.29 9.20859 89.4288 9.33695 89.5415C9.46531 89.6541 9.61624 89.7381 9.77965 89.7878C9.94306 89.8375 10.1152 89.8518 10.2845 89.8297H89.7149C89.8842 89.8518 90.0564 89.8375 90.2198 89.7878C90.3832 89.7381 90.5341 89.6541 90.6625 89.5415C90.7908 89.4288 90.8937 89.29 90.9641 89.1344C91.0346 88.9788 91.071 88.81 91.071 88.6392C91.071 88.4684 91.0346 88.2995 90.9641 88.144C90.8937 87.9884 90.7908 87.8496 90.6625 87.7369C90.5341 87.6242 90.3832 87.5402 90.2198 87.4905C90.0564 87.4408 89.8842 87.4266 89.7149 87.4487ZM14.2857 51.7344C14.2857 44.6708 16.3803 37.7658 20.3047 31.8926C24.229 26.0195 29.8068 21.4419 36.3328 18.7387C42.8587 16.0356 50.0396 15.3283 56.9675 16.7064C63.8954 18.0844 70.2591 21.4859 75.2538 26.4806C80.2486 31.4753 83.65 37.839 85.0281 44.7669C86.4061 51.6948 85.6988 58.8758 82.9957 65.4017C80.2926 71.9276 75.715 77.5054 69.8418 81.4298C63.9686 85.3541 57.0636 87.4487 50 87.4487C40.5313 87.438 31.4534 83.6718 24.758 76.9764C18.0626 70.281 14.2965 61.2032 14.2857 51.7344ZM52.6786 10.5142C53.0318 10.5142 53.377 10.4095 53.6707 10.2132C53.9643 10.017 54.1932 9.73814 54.3284 9.41184C54.4635 9.08554 54.4989 8.7265 54.43 8.3801C54.3611 8.03371 54.191 7.71552 53.9413 7.46579C53.6915 7.21605 53.3734 7.04598 53.027 6.97708C52.6806 6.90817 52.3215 6.94354 51.9952 7.07869C51.6689 7.21385 51.39 7.44273 51.1938 7.73639C50.9976 8.03005 50.8929 8.3753 50.8929 8.72848C50.8934 9.20193 51.0816 9.65586 51.4164 9.99065C51.7512 10.3254 52.2051 10.5137 52.6786 10.5142ZM52.6786 7.83562C52.8552 7.83562 53.0278 7.88799 53.1746 7.98609C53.3215 8.0842 53.4359 8.22365 53.5035 8.3868C53.5711 8.54994 53.5887 8.72947 53.5543 8.90267C53.5198 9.07586 53.4348 9.23495 53.3099 9.35982C53.1851 9.48469 53.026 9.56973 52.8528 9.60418C52.6796 9.63863 52.5001 9.62095 52.3369 9.55337C52.1738 9.48579 52.0343 9.37135 51.9362 9.22452C51.8381 9.07769 51.7857 8.90507 51.7857 8.72848C51.7859 8.49173 51.88 8.26472 52.0474 8.09731C52.2148 7.9299 52.4418 7.83578 52.6786 7.83562ZM94.2292 40.4249C93.9937 40.4249 93.7636 40.4947 93.5678 40.6255C93.372 40.7563 93.2194 40.9423 93.1293 41.1598C93.0392 41.3773 93.0156 41.6167 93.0616 41.8476C93.1075 42.0786 93.2209 42.2907 93.3874 42.4572C93.5539 42.6237 93.766 42.737 93.9969 42.783C94.2279 42.8289 94.4672 42.8053 94.6848 42.7152C94.9023 42.6251 95.0882 42.4725 95.219 42.2768C95.3498 42.081 95.4197 41.8508 95.4197 41.6154C95.4193 41.2997 95.2938 40.9971 95.0706 40.7739C94.8474 40.5507 94.5448 40.4252 94.2292 40.4249ZM94.2292 42.2106C94.1115 42.2106 93.9964 42.1757 93.8985 42.1103C93.8006 42.0449 93.7243 41.9519 93.6793 41.8432C93.6342 41.7344 93.6224 41.6147 93.6454 41.4993C93.6684 41.3838 93.725 41.2777 93.8083 41.1945C93.8915 41.1112 93.9976 41.0545 94.1131 41.0316C94.2285 41.0086 94.3482 41.0204 94.457 41.0654C94.5657 41.1105 94.6587 41.1868 94.7241 41.2847C94.7895 41.3826 94.8244 41.4977 94.8244 41.6154C94.8243 41.7732 94.7615 41.9245 94.6499 42.0361C94.5383 42.1477 94.387 42.2105 94.2292 42.2106ZM77.381 2.13086C77.1455 2.13086 76.9153 2.20068 76.7196 2.33149C76.5238 2.4623 76.3712 2.64823 76.2811 2.86576C76.191 3.08329 76.1674 3.32266 76.2134 3.55359C76.2593 3.78452 76.3727 3.99664 76.5392 4.16313C76.7057 4.32962 76.9178 4.443 77.1487 4.48894C77.3796 4.53487 77.619 4.5113 77.8365 4.42119C78.0541 4.33109 78.24 4.1785 78.3708 3.98273C78.5016 3.78696 78.5714 3.55679 78.5714 3.32134C78.5711 3.0057 78.4456 2.70308 78.2224 2.47989C77.9992 2.2567 77.6966 2.13117 77.381 2.13086ZM77.381 3.91657C77.2632 3.91657 77.1482 3.88166 77.0503 3.81626C76.9524 3.75085 76.8761 3.65789 76.831 3.54912C76.786 3.44036 76.7742 3.32068 76.7972 3.20521C76.8201 3.08975 76.8768 2.98368 76.9601 2.90044C77.0433 2.81719 77.1494 2.7605 77.2648 2.73753C77.3803 2.71457 77.5 2.72636 77.6088 2.77141C77.7175 2.81646 77.8105 2.89275 77.8759 2.99064C77.9413 3.08853 77.9762 3.20361 77.9762 3.32134C77.9761 3.47915 77.9133 3.63046 77.8017 3.74206C77.6901 3.85365 77.5388 3.91642 77.381 3.91657ZM96.0316 9.0755C95.7961 9.0755 95.5659 9.14532 95.3702 9.27613C95.1744 9.40694 95.0218 9.59287 94.9317 9.8104C94.8416 10.0279 94.818 10.2673 94.864 10.4982C94.9099 10.7292 95.0233 10.9413 95.1898 11.1078C95.3563 11.2743 95.5684 11.3876 95.7993 11.4336C96.0302 11.4795 96.2696 11.4559 96.4871 11.3658C96.7047 11.2757 96.8906 11.1231 97.0214 10.9274C97.1522 10.7316 97.222 10.5014 97.222 10.266C97.2217 9.95034 97.0962 9.64772 96.873 9.42453C96.6498 9.20134 96.3472 9.07582 96.0316 9.0755ZM96.0316 10.8612C95.9138 10.8612 95.7988 10.8263 95.7009 10.7609C95.603 10.6955 95.5267 10.6025 95.4816 10.4938C95.4366 10.385 95.4248 10.2653 95.4478 10.1499C95.4707 10.0344 95.5274 9.92833 95.6107 9.84508C95.6939 9.76184 95.8 9.70514 95.9154 9.68218C96.0309 9.65921 96.1506 9.671 96.2594 9.71605C96.3681 9.7611 96.4611 9.83739 96.5265 9.93528C96.5919 10.0332 96.6268 10.1483 96.6268 10.266C96.6266 10.4238 96.5639 10.5751 96.4523 10.6867C96.3407 10.7983 96.1894 10.8611 96.0316 10.8612ZM18.0387 18.2023C18.0387 17.9668 17.9689 17.7367 17.8381 17.5409C17.7073 17.3451 17.5213 17.1925 17.3038 17.1024C17.0863 17.0123 16.8469 16.9888 16.616 17.0347C16.3851 17.0806 16.1729 17.194 16.0064 17.3605C15.84 17.527 15.7266 17.7391 15.6806 17.97C15.6347 18.201 15.6583 18.4403 15.7484 18.6579C15.8385 18.8754 15.9911 19.0613 16.1868 19.1921C16.3826 19.3229 16.6128 19.3928 16.8482 19.3928C17.1639 19.3924 17.4665 19.2669 17.6897 19.0437C17.9129 18.8205 18.0384 18.5179 18.0387 18.2023ZM16.253 18.2023C16.253 18.0846 16.2879 17.9695 16.3533 17.8716C16.4187 17.7737 16.5117 17.6974 16.6205 17.6524C16.7292 17.6073 16.8489 17.5955 16.9644 17.6185C17.0798 17.6415 17.1859 17.6981 17.2691 17.7814C17.3524 17.8646 17.4091 17.9707 17.432 18.0862C17.455 18.2016 17.4432 18.3213 17.3982 18.4301C17.3531 18.5388 17.2768 18.6318 17.1789 18.6972C17.081 18.7626 16.966 18.7975 16.8482 18.7975C16.6904 18.7974 16.5391 18.7346 16.4275 18.623C16.3159 18.5114 16.2532 18.3601 16.253 18.2023Z" fill="#152639"/>
<path d="M6.48098 40.4316L7.3661 39.2673L6.80717 38.9506L6.23872 40.2542H6.22026L5.64288 38.9601L5.07443 39.2857L5.95003 40.4226V40.4411L4.58038 40.2637V40.897L5.95895 40.7202V40.7387L5.07443 41.875L5.60479 42.2107L6.21074 40.897H6.22919L6.78812 42.2012L7.37503 41.8661L6.48098 40.7482V40.7292L7.88693 40.897V40.2637L6.48098 40.45V40.4316ZM7.23931 3.7131L6.72979 4.36727L7.03515 4.56072L7.38395 3.80418H7.39467L7.71669 4.55537L8.05479 4.36191L7.53991 3.71846V3.70775L8.34943 3.80418V3.43929L7.53991 3.54703V3.53632L8.04943 2.86549L7.72741 2.68334L7.40062 3.43394H7.38931L7.05717 2.6887L6.72979 2.8762L7.23395 3.53096V3.54168L6.44526 3.43929V3.80418L7.23931 3.70239V3.7131ZM38.872 3.74644V3.12501L37.4929 3.30775V3.2893L38.3607 2.14763L37.8125 1.83691L37.2554 3.11608H37.2369L36.6709 1.84584L36.1131 2.16608L36.972 3.28037V3.29882L35.6286 3.12501V3.74644L36.981 3.57263V3.59108L36.1131 4.70537L36.6339 5.03453L37.228 3.74644H37.2459L37.7941 5.02501L38.3697 4.69644L37.4929 3.60001V3.58156L38.872 3.74644ZM82.6536 21.3327L83.4024 20.3476L82.9292 20.0798L82.4488 21.1827H82.4328L81.9447 20.0875L81.4631 20.3631L82.2042 21.325V21.3405L81.0458 21.1905V21.7262L82.2119 21.5768V21.5929L81.4631 22.5536L81.9125 22.8375L82.425 21.7262H82.4405L82.9131 22.8298L83.4101 22.5458L82.6536 21.6006V21.5845L83.8429 21.7262V21.1905L82.6536 21.3482V21.3327Z" fill="#152639"/>
<path d="M1.19048 89.8302C1.84796 89.8302 2.38095 89.2972 2.38095 88.6397C2.38095 87.9822 1.84796 87.4492 1.19048 87.4492C0.532994 87.4492 0 87.9822 0 88.6397C0 89.2972 0.532994 89.8302 1.19048 89.8302Z" fill="#DD4F4F"/>
<path d="M6.5476 87.4492H4.76189C4.44615 87.4492 4.14335 87.5746 3.92009 87.7979C3.69684 88.0212 3.57141 88.324 3.57141 88.6397C3.57141 88.9554 3.69684 89.2582 3.92009 89.4815C4.14335 89.7047 4.44615 89.8302 4.76189 89.8302H6.5476C6.86334 89.8302 7.16614 89.7047 7.3894 89.4815C7.61265 89.2582 7.73808 88.9554 7.73808 88.6397C7.73808 88.324 7.61265 88.0212 7.3894 87.7979C7.16614 87.5746 6.86334 87.4492 6.5476 87.4492ZM95.2381 87.4492H93.4524C93.1366 87.4492 92.8338 87.5746 92.6106 87.7979C92.3873 88.0212 92.2619 88.324 92.2619 88.6397C92.2619 88.9554 92.3873 89.2582 92.6106 89.4815C92.8338 89.7047 93.1366 89.8302 93.4524 89.8302H95.2381C95.5538 89.8302 95.8566 89.7047 96.0799 89.4815C96.3031 89.2582 96.4286 88.9554 96.4286 88.6397C96.4286 88.324 96.3031 88.0212 96.0799 87.7979C95.8566 87.5746 95.5538 87.4492 95.2381 87.4492Z" fill="#DD4F4F"/>
<path d="M98.8095 89.8302C99.467 89.8302 100 89.2972 100 88.6397C100 87.9822 99.467 87.4492 98.8095 87.4492C98.152 87.4492 97.619 87.9822 97.619 88.6397C97.619 89.2972 98.152 89.8302 98.8095 89.8302Z" fill="#DD4F4F"/>
</svg>
