<svg width="100" height="100" viewBox="0 0 100 100" fill="none" xmlns="http://www.w3.org/2000/svg">
<path fill-rule="evenodd" clip-rule="evenodd" d="M32.0761 24.1685C37.5577 20.5057 44.0024 18.5508 50.5951 18.5508C59.4326 18.5607 67.9053 22.0758 74.1543 28.3249C80.4034 34.5739 83.9185 43.0466 83.9284 51.8841C83.9284 58.4768 81.9734 64.9215 78.3107 70.4031C74.648 75.8848 69.4421 80.1572 63.3512 82.6801C57.2603 85.203 50.5581 85.8631 44.0921 84.577C37.626 83.2908 31.6866 80.1161 27.0248 75.4543C22.3631 70.7926 19.1884 64.8532 17.9022 58.3871C16.6161 51.9211 17.2762 45.2189 19.7991 39.128C22.322 33.0371 26.5944 27.8312 32.0761 24.1685ZM33.3988 77.6201C38.4889 81.0212 44.4733 82.8365 50.5951 82.8365C58.8013 82.8272 66.6688 79.5632 72.4714 73.7605C78.2741 67.9578 81.5381 60.0903 81.5474 51.8841C81.5474 45.7623 79.7321 39.778 76.331 34.6879C72.9299 29.5978 68.0958 25.6306 62.44 23.2878C56.7842 20.9451 50.5607 20.3322 44.5566 21.5265C38.5524 22.7208 33.0372 25.6687 28.7084 29.9975C24.3797 34.3262 21.4317 39.8414 20.2374 45.8456C19.0431 51.8498 19.6561 58.0733 21.9988 63.7291C24.3415 69.3849 28.3088 74.219 33.3988 77.6201ZM40.6368 64.4703L68.8082 36.7489C68.9187 36.6349 69.0508 36.5441 69.1969 36.4819C69.343 36.4197 69.5 36.3873 69.6588 36.3867C69.8175 36.3861 69.9748 36.4173 70.1213 36.4784C70.2679 36.5395 70.4007 36.6292 70.5121 36.7424C70.6234 36.8556 70.7109 36.9899 70.7696 37.1375C70.8282 37.285 70.8568 37.4428 70.8535 37.6015C70.8503 37.7602 70.8153 37.9167 70.7507 38.0617C70.6861 38.2067 70.5931 38.3374 70.4773 38.4459L41.4439 67.0173C41.2214 67.2365 40.9217 67.3594 40.6094 67.3596H40.5892C40.4311 67.3569 40.2752 67.3228 40.1305 67.2593C39.9858 67.1957 39.8552 67.1039 39.7463 66.9894L30.685 57.4656C30.4695 57.2364 30.3535 56.9313 30.3623 56.6169C30.371 56.3025 30.5039 56.0043 30.7317 55.7876C30.9596 55.5708 31.264 55.453 31.5785 55.4599C31.8929 55.4668 32.1919 55.5979 32.41 55.8245L40.6368 64.4703Z" fill="#57AD23"/>
<path d="M89.715 87.4487H63.2507C71.6287 84.3404 78.6474 78.3859 83.0794 70.6264C87.5114 62.8669 89.0746 53.7964 87.4956 45.0009C85.9166 36.2055 81.296 28.2451 74.4417 22.5118C67.5874 16.7784 58.9358 13.6371 49.9998 13.6371C41.0638 13.6371 32.4121 16.7784 25.5579 22.5118C18.7036 28.2451 14.083 36.2055 12.504 45.0009C10.925 53.7964 12.4882 62.8669 16.9202 70.6264C21.3522 78.3859 28.3709 84.3404 36.7489 87.4487H10.2846C10.1152 87.4266 9.94312 87.4408 9.77971 87.4905C9.6163 87.5402 9.46537 87.6242 9.33701 87.7369C9.20866 87.8496 9.10581 87.9884 9.03536 88.144C8.96491 88.2995 8.92847 88.4684 8.92847 88.6392C8.92847 88.81 8.96491 88.9788 9.03536 89.1344C9.10581 89.29 9.20866 89.4288 9.33701 89.5415C9.46537 89.6541 9.6163 89.7381 9.77971 89.7878C9.94312 89.8375 10.1152 89.8518 10.2846 89.8297H89.715C89.8843 89.8518 90.0565 89.8375 90.2199 89.7878C90.3833 89.7381 90.5342 89.6541 90.6626 89.5415C90.7909 89.4288 90.8938 89.29 90.9642 89.1344C91.0347 88.9788 91.0711 88.81 91.0711 88.6392C91.0711 88.4684 91.0347 88.2995 90.9642 88.144C90.8938 87.9884 90.7909 87.8496 90.6626 87.7369C90.5342 87.6242 90.3833 87.5402 90.2199 87.4905C90.0565 87.4408 89.8843 87.4266 89.715 87.4487ZM14.2858 51.7344C14.2858 44.6708 16.3804 37.7658 20.3047 31.8926C24.2291 26.0195 29.8069 21.4419 36.3328 18.7387C42.8587 16.0356 50.0397 15.3283 56.9676 16.7064C63.8955 18.0844 70.2592 21.4859 75.2539 26.4806C80.2486 31.4753 83.6501 37.839 85.0281 44.7669C86.4062 51.6948 85.6989 58.8758 82.9958 65.4017C80.2926 71.9276 75.7151 77.5054 69.8419 81.4298C63.9687 85.3541 57.0637 87.4487 50.0001 87.4487C40.5314 87.438 31.4535 83.6718 24.7581 76.9764C18.0627 70.281 14.2965 61.2032 14.2858 51.7344ZM52.6787 10.5142C53.0318 10.5142 53.3771 10.4095 53.6707 10.2132C53.9644 10.017 54.1933 9.73814 54.3284 9.41184C54.4636 9.08554 54.499 8.7265 54.4301 8.3801C54.3612 8.03371 54.1911 7.71552 53.9413 7.46579C53.6916 7.21605 53.3734 7.04598 53.027 6.97708C52.6806 6.90817 52.3216 6.94354 51.9953 7.07869C51.669 7.21385 51.3901 7.44273 51.1939 7.73639C50.9977 8.03005 50.8929 8.3753 50.8929 8.72848C50.8934 9.20193 51.0817 9.65586 51.4165 9.99065C51.7513 10.3254 52.2052 10.5137 52.6787 10.5142ZM52.6787 7.83562C52.8552 7.83562 53.0279 7.88799 53.1747 7.98609C53.3215 8.0842 53.436 8.22365 53.5035 8.3868C53.5711 8.54994 53.5888 8.72947 53.5544 8.90267C53.5199 9.07586 53.4349 9.23495 53.31 9.35982C53.1851 9.48469 53.026 9.56973 52.8528 9.60418C52.6796 9.63863 52.5001 9.62095 52.337 9.55337C52.1738 9.48579 52.0344 9.37135 51.9363 9.22452C51.8382 9.07769 51.7858 8.90507 51.7858 8.72848C51.786 8.49173 51.8801 8.26472 52.0475 8.09731C52.2149 7.9299 52.4419 7.83578 52.6787 7.83562ZM94.2292 40.4249C93.9938 40.4249 93.7636 40.4947 93.5679 40.6255C93.3721 40.7563 93.2195 40.9423 93.1294 41.1598C93.0393 41.3773 93.0157 41.6167 93.0616 41.8476C93.1076 42.0786 93.221 42.2907 93.3875 42.4572C93.5539 42.6237 93.7661 42.737 93.997 42.783C94.2279 42.8289 94.4673 42.8053 94.6848 42.7152C94.9024 42.6251 95.0883 42.4725 95.2191 42.2768C95.3499 42.081 95.4197 41.8508 95.4197 41.6154C95.4194 41.2997 95.2939 40.9971 95.0707 40.7739C94.8475 40.5507 94.5449 40.4252 94.2292 40.4249ZM94.2292 42.2106C94.1115 42.2106 93.9964 42.1757 93.8986 42.1103C93.8007 42.0449 93.7244 41.9519 93.6793 41.8432C93.6343 41.7344 93.6225 41.6147 93.6454 41.4993C93.6684 41.3838 93.7251 41.2777 93.8083 41.1945C93.8916 41.1112 93.9977 41.0545 94.1131 41.0316C94.2286 41.0086 94.3483 41.0204 94.457 41.0654C94.5658 41.1105 94.6588 41.1868 94.7242 41.2847C94.7896 41.3826 94.8245 41.4977 94.8245 41.6154C94.8243 41.7732 94.7616 41.9245 94.65 42.0361C94.5384 42.1477 94.3871 42.2105 94.2292 42.2106ZM77.381 2.13086C77.1456 2.13086 76.9154 2.20068 76.7196 2.33149C76.5239 2.4623 76.3713 2.64823 76.2812 2.86576C76.1911 3.08329 76.1675 3.32266 76.2134 3.55359C76.2594 3.78452 76.3727 3.99664 76.5392 4.16313C76.7057 4.32962 76.9179 4.443 77.1488 4.48894C77.3797 4.53487 77.6191 4.5113 77.8366 4.42119C78.0541 4.33109 78.2401 4.1785 78.3709 3.98273C78.5017 3.78696 78.5715 3.55679 78.5715 3.32134C78.5712 3.0057 78.4457 2.70308 78.2225 2.47989C77.9993 2.2567 77.6967 2.13117 77.381 2.13086ZM77.381 3.91657C77.2633 3.91657 77.1482 3.88166 77.0503 3.81626C76.9524 3.75085 76.8762 3.65789 76.8311 3.54912C76.7861 3.44036 76.7743 3.32068 76.7972 3.20521C76.8202 3.08975 76.8769 2.98368 76.9601 2.90044C77.0434 2.81719 77.1494 2.7605 77.2649 2.73753C77.3804 2.71457 77.5001 2.72636 77.6088 2.77141C77.7176 2.81646 77.8105 2.89275 77.876 2.99064C77.9414 3.08853 77.9763 3.20361 77.9763 3.32134C77.9761 3.47915 77.9134 3.63046 77.8018 3.74206C77.6902 3.85365 77.5388 3.91642 77.381 3.91657ZM96.0316 9.0755C95.7962 9.0755 95.566 9.14532 95.3702 9.27613C95.1745 9.40694 95.0219 9.59287 94.9318 9.8104C94.8417 10.0279 94.8181 10.2673 94.864 10.4982C94.91 10.7292 95.0233 10.9413 95.1898 11.1078C95.3563 11.2743 95.5685 11.3876 95.7994 11.4336C96.0303 11.4795 96.2697 11.4559 96.4872 11.3658C96.7047 11.2757 96.8907 11.1231 97.0215 10.9274C97.1523 10.7316 97.2221 10.5014 97.2221 10.266C97.2218 9.95034 97.0963 9.64772 96.8731 9.42453C96.6499 9.20134 96.3473 9.07582 96.0316 9.0755ZM96.0316 10.8612C95.9139 10.8612 95.7988 10.8263 95.7009 10.7609C95.603 10.6955 95.5267 10.6025 95.4817 10.4938C95.4366 10.385 95.4249 10.2653 95.4478 10.1499C95.4708 10.0344 95.5275 9.92833 95.6107 9.84508C95.694 9.76184 95.8 9.70514 95.9155 9.68218C96.031 9.65921 96.1507 9.671 96.2594 9.71605C96.3682 9.7611 96.4611 9.83739 96.5266 9.93528C96.592 10.0332 96.6269 10.1483 96.6269 10.266C96.6267 10.4238 96.5639 10.5751 96.4523 10.6867C96.3408 10.7983 96.1894 10.8611 96.0316 10.8612ZM18.0388 18.2023C18.0388 17.9668 17.969 17.7367 17.8381 17.5409C17.7073 17.3451 17.5214 17.1925 17.3039 17.1024C17.0863 17.0123 16.847 16.9888 16.616 17.0347C16.3851 17.0806 16.173 17.194 16.0065 17.3605C15.84 17.527 15.7266 17.7391 15.6807 17.97C15.6348 18.201 15.6583 18.4403 15.7484 18.6579C15.8385 18.8754 15.9911 19.0613 16.1869 19.1921C16.3827 19.3229 16.6128 19.3928 16.8483 19.3928C17.1639 19.3924 17.4666 19.2669 17.6897 19.0437C17.9129 18.8205 18.0385 18.5179 18.0388 18.2023ZM16.2531 18.2023C16.2531 18.0846 16.288 17.9695 16.3534 17.8716C16.4188 17.7737 16.5117 17.6974 16.6205 17.6524C16.7293 17.6073 16.849 17.5955 16.9644 17.6185C17.0799 17.6415 17.186 17.6981 17.2692 17.7814C17.3524 17.8646 17.4091 17.9707 17.4321 18.0862C17.4551 18.2016 17.4433 18.3213 17.3982 18.4301C17.3532 18.5388 17.2769 18.6318 17.179 18.6972C17.0811 18.7626 16.966 18.7975 16.8483 18.7975C16.6905 18.7974 16.5392 18.7346 16.4276 18.623C16.316 18.5114 16.2532 18.3601 16.2531 18.2023Z" fill="currentColor"/>
<path d="M6.48092 40.4316L7.36604 39.2673L6.80711 38.9506L6.23866 40.2542H6.2202L5.64282 38.9601L5.07437 39.2857L5.94997 40.4226V40.4411L4.58032 40.2637V40.897L5.95889 40.7202V40.7387L5.07437 41.875L5.60473 42.2107L6.21068 40.897H6.22913L6.78806 42.2012L7.37496 41.8661L6.48092 40.7482V40.7292L7.88687 40.897V40.2637L6.48092 40.45V40.4316ZM7.23925 3.7131L6.72973 4.36727L7.03508 4.56072L7.38389 3.80418H7.39461L7.71663 4.55537L8.05473 4.36191L7.53985 3.71846V3.70775L8.34937 3.80418V3.43929L7.53985 3.54703V3.53632L8.04937 2.86549L7.72735 2.68334L7.40056 3.43394H7.38925L7.05711 2.6887L6.72973 2.8762L7.23389 3.53096V3.54168L6.4452 3.43929V3.80418L7.23925 3.70239V3.7131ZM38.872 3.74644V3.12501L37.4928 3.30775V3.2893L38.3607 2.14763L37.8125 1.83691L37.2553 3.11608H37.2369L36.6708 1.84584L36.1131 2.16608L36.972 3.28037V3.29882L35.6285 3.12501V3.74644L36.9809 3.57263V3.59108L36.1131 4.70537L36.6339 5.03453L37.2279 3.74644H37.2458L37.794 5.02501L38.3696 4.69644L37.4928 3.60001V3.58156L38.872 3.74644ZM82.6535 21.3327L83.4023 20.3476L82.9291 20.0798L82.4488 21.1827H82.4327L81.9446 20.0875L81.4631 20.3631L82.2041 21.325V21.3405L81.0458 21.1905V21.7262L82.2119 21.5768V21.5929L81.4631 22.5536L81.9125 22.8375L82.4249 21.7262H82.4404L82.913 22.8298L83.4101 22.5458L82.6535 21.6006V21.5845L83.8428 21.7262V21.1905L82.6535 21.3482V21.3327Z" fill="currentColor"/>
<path d="M1.19048 89.8302C1.84796 89.8302 2.38095 89.2972 2.38095 88.6397C2.38095 87.9822 1.84796 87.4492 1.19048 87.4492C0.532994 87.4492 0 87.9822 0 88.6397C0 89.2972 0.532994 89.8302 1.19048 89.8302Z" fill="#57AD23"/>
<path d="M6.54772 87.4492H4.76201C4.44628 87.4492 4.14347 87.5746 3.92022 87.7979C3.69696 88.0212 3.57153 88.324 3.57153 88.6397C3.57153 88.9554 3.69696 89.2582 3.92022 89.4815C4.14347 89.7047 4.44628 89.8302 4.76201 89.8302H6.54772C6.86346 89.8302 7.16626 89.7047 7.38952 89.4815C7.61277 89.2582 7.7382 88.9554 7.7382 88.6397C7.7382 88.324 7.61277 88.0212 7.38952 87.7979C7.16626 87.5746 6.86346 87.4492 6.54772 87.4492ZM95.2382 87.4492H93.4525C93.1367 87.4492 92.8339 87.5746 92.6107 87.7979C92.3874 88.0212 92.262 88.324 92.262 88.6397C92.262 88.9554 92.3874 89.2582 92.6107 89.4815C92.8339 89.7047 93.1367 89.8302 93.4525 89.8302H95.2382C95.5539 89.8302 95.8567 89.7047 96.08 89.4815C96.3033 89.2582 96.4287 88.9554 96.4287 88.6397C96.4287 88.324 96.3033 88.0212 96.08 87.7979C95.8567 87.5746 95.5539 87.4492 95.2382 87.4492Z" fill="#57AD23"/>
<path d="M98.8096 89.8302C99.4671 89.8302 100 89.2972 100 88.6397C100 87.9822 99.4671 87.4492 98.8096 87.4492C98.1521 87.4492 97.6191 87.9822 97.6191 88.6397C97.6191 89.2972 98.1521 89.8302 98.8096 89.8302Z" fill="#57AD23"/>
</svg>
