<svg width="60" height="60" viewBox="0 0 60 60" fill="none" xmlns="http://www.w3.org/2000/svg">
<circle cx="30" cy="30" r="30" fill="#D1DBFF" fill-opacity="0.21"/>
<path d="M31.5 30.75H35.6895L36.969 32.031C37.0388 32.1006 37.1216 32.1558 37.2127 32.1933C37.3038 32.2309 37.4014 32.2502 37.5 32.25H39C39.1989 32.25 39.3897 32.171 39.5303 32.0303C39.671 31.8897 39.75 31.6989 39.75 31.5V30C39.75 29.8011 39.671 29.6103 39.5303 29.4697C39.3897 29.329 39.1989 29.25 39 29.25H31.5V30.75Z" fill="#3062B4"/>
<path d="M36 22.5H24C22.4087 22.5 20.8826 23.1321 19.7574 24.2574C18.6321 25.3826 18 26.9087 18 28.5V37.5C18 37.8978 18.158 38.2794 18.4393 38.5607C18.7206 38.842 19.1022 39 19.5 39H40.5C40.8978 39 41.2794 38.842 41.5607 38.5607C41.842 38.2794 42 37.8978 42 37.5V28.5C42 26.9087 41.3679 25.3826 40.2426 24.2574C39.1174 23.1321 37.5913 22.5 36 22.5ZM30 28.5C30.001 27.6486 29.8204 26.8068 29.4701 26.0308C29.1199 25.2548 28.6081 24.5625 27.969 24H36C37.1935 24 38.3381 24.4741 39.182 25.318C40.0259 26.1619 40.5 27.3065 40.5 28.5V37.5H30V28.5ZM24.8775 28.7355C24.63 28.6305 24.327 28.5 24 28.5C23.673 28.5 23.37 28.629 23.1225 28.7355C22.746 28.896 22.5 29.001 22.5 28.5C22.5 28.1022 22.658 27.7206 22.9393 27.4393C23.2206 27.158 23.6022 27 24 27C24.3978 27 24.7794 27.158 25.0607 27.4393C25.342 27.7206 25.5 28.1022 25.5 28.5C25.5 29.001 25.254 28.896 24.8775 28.7355Z" fill="#3062B4"/>
</svg>
